<svg width="15" height="12" viewBox="0 0 15 12" fill="none" xmlns="http://www.w3.org/2000/svg">
<path d="M1.08506 3.27496C1.08577 2.9453 1.08977 2.61564 1.08459 2.28621C1.08318 2.19508 1.11355 2.17389 1.19879 2.17507C1.48513 2.17954 1.7717 2.17271 2.05803 2.17907C2.15458 2.18119 2.17624 2.14681 2.17506 2.05804C2.17059 1.7717 2.17695 1.48513 2.1713 1.1988C2.16965 1.10885 2.19767 1.08624 2.28479 1.08789C2.57513 1.09307 2.86547 1.08718 3.15581 1.09142C3.23658 1.0926 3.26483 1.07023 3.26366 0.986871C3.25942 0.708307 3.26813 0.429507 3.25989 0.151178C3.25659 0.0360319 3.28108 -0.000466457 3.40565 4.48877e-06C4.69674 0.00542037 5.98761 0.00330111 7.2787 0.00330111C8.42852 0.00330111 9.57833 0.00494942 10.7279 0.000710908C10.8393 0.000239962 10.8756 0.0268484 10.8734 0.142466C10.8675 0.45588 10.8753 0.769765 10.8779 1.08342L10.8817 1.08059C10.8308 1.08318 10.7802 1.08765 10.7293 1.08765C9.72998 1.08812 8.73063 1.08907 7.73152 1.08624C7.63851 1.08601 7.60154 1.10414 7.60413 1.20704C7.61143 1.4889 7.61025 1.77147 7.60413 2.05333C7.60224 2.14681 7.62179 2.18331 7.72445 2.18072C8.01432 2.17366 8.30442 2.17907 8.59429 2.17719C8.65716 2.17672 8.69625 2.1826 8.69507 2.26361C8.69013 2.60057 8.69107 2.93753 8.68989 3.27449C8.36847 3.2719 8.04729 3.26625 7.72587 3.26907C7.63568 3.26978 7.60366 3.24859 7.60578 3.15252C7.61213 2.86241 7.60507 2.57208 7.60978 2.28197C7.61119 2.19862 7.58411 2.17554 7.50311 2.17672C7.209 2.18072 6.91466 2.18166 6.62079 2.17601C6.53202 2.17436 6.51883 2.20874 6.51978 2.28527C6.52354 2.5716 6.51742 2.85794 6.52378 3.14427C6.5259 3.24011 6.50259 3.27096 6.40227 3.26978C6.08109 3.26554 5.75967 3.27237 5.43825 3.27496C5.43825 2.94577 5.44155 2.61634 5.43589 2.28715C5.43425 2.1972 5.46132 2.1753 5.54798 2.17695C5.83808 2.18213 6.12818 2.17672 6.41829 2.18025C6.49858 2.18119 6.52637 2.15788 6.52496 2.07452C6.52025 1.78065 6.52048 1.48655 6.52496 1.19267C6.52613 1.11002 6.5 1.08718 6.41852 1.08742C5.39939 1.08977 4.38003 1.08954 3.36091 1.08742C3.28626 1.08742 3.25824 1.10579 3.25942 1.18538C3.26342 1.48325 3.26248 1.78112 3.25895 2.07899C3.258 2.15623 3.28367 2.17931 3.36044 2.17813C3.65054 2.17413 3.94064 2.18048 4.23051 2.17413C4.33011 2.17201 4.35484 2.20403 4.3539 2.3001C4.3506 2.62506 4.35672 2.95024 4.35931 3.27543C4.03436 3.27308 3.70941 3.26648 3.38445 3.27049C3.28414 3.27167 3.25895 3.23893 3.26083 3.14357C3.26648 2.86171 3.26012 2.57937 3.26436 2.29751C3.26554 2.21062 3.24764 2.17224 3.14898 2.17436C2.86312 2.18072 2.57702 2.17907 2.29115 2.17507C2.20261 2.17389 2.16824 2.1965 2.17035 2.2928C2.17695 2.57867 2.16941 2.86477 2.17459 3.15063C2.17624 3.24152 2.15128 3.27143 2.05686 3.27002C1.7319 3.26531 1.40672 3.27002 1.08153 3.27119L1.08482 3.27473L1.08506 3.27496Z" fill="#16DE93"/>
<path d="M10.8784 7.60364C10.8758 7.92459 10.8694 8.24554 10.8727 8.56625C10.8737 8.66633 10.8501 8.70235 10.7428 8.69953C10.4571 8.69176 10.171 8.69953 9.88516 8.69529C9.80369 8.69411 9.77685 8.71884 9.77802 8.80149C9.7825 9.09136 9.7759 9.38122 9.78203 9.67085C9.78415 9.76646 9.75236 9.78859 9.66194 9.78812C9.33722 9.78577 9.01227 9.79165 8.68755 9.79448L8.69037 9.79707C8.69461 9.42667 8.70285 9.05603 8.68637 8.68564C9.01415 8.71413 9.34263 8.68917 9.67065 8.7C9.75754 8.70283 9.78509 8.67575 9.78367 8.58791C9.77873 8.30629 9.78721 8.02443 9.7792 7.74304C9.77614 7.63119 9.81452 7.60693 9.91907 7.60858C10.2398 7.61376 10.5605 7.60811 10.8812 7.6067L10.8784 7.60364Z" fill="#16DE93"/>
<path d="M10.8779 1.08338C11.1991 1.08527 11.5203 1.09068 11.8415 1.08715C11.9324 1.08621 11.963 1.10881 11.9606 1.20418C11.9543 1.49005 11.9623 1.77638 11.9561 2.06248C11.9543 2.15714 11.9856 2.18069 12.0755 2.17927C12.3654 2.17433 12.6555 2.17951 12.9456 2.17598C13.0214 2.17504 13.0459 2.19717 13.045 2.27558C13.041 2.60854 13.0436 2.94174 13.0438 3.27493L13.0469 3.2714C12.7177 3.27022 12.3882 3.26669 12.059 3.26904C11.9832 3.26951 11.9569 3.24879 11.9583 3.17014C11.963 2.92714 11.9599 2.68413 11.9599 2.44088C11.9599 2.17716 11.9599 2.18045 11.6985 2.17621C11.4247 2.17197 11.1506 2.19246 10.8772 2.16538C10.8694 1.8037 10.8617 1.44201 10.8812 1.08032L10.8774 1.08315L10.8779 1.08338Z" fill="#16DE93"/>
<path d="M4.35956 8.68545C4.01553 8.70946 3.67103 8.68992 3.32677 8.69581C3.25213 8.69698 3.26202 8.644 3.26202 8.59809C3.26178 8.31599 3.25731 8.03389 3.26461 7.75203C3.26743 7.64324 3.24412 7.60251 3.12521 7.60651C2.84735 7.6164 2.56902 7.60651 2.29093 7.61169C2.20121 7.61334 2.16942 7.5912 2.17083 7.49537C2.17531 7.17041 2.16966 6.84546 2.16801 6.52051L2.16495 6.52357C2.49791 6.5238 2.83086 6.52663 3.16382 6.52239C3.24247 6.52145 3.26437 6.54688 3.26343 6.622C3.26013 6.90409 3.26696 7.18619 3.25966 7.46805C3.25684 7.57755 3.28156 7.61758 3.39953 7.61357C3.67739 7.60439 3.95572 7.61404 4.23381 7.60863C4.32518 7.60674 4.35579 7.63194 4.35437 7.72636C4.3499 8.04755 4.35437 8.36873 4.35532 8.68968L4.35979 8.68497L4.35956 8.68545Z" fill="#16DE93"/>
<path d="M6.52449 10.877C6.19977 10.8763 5.87529 10.8728 5.55057 10.8765C5.46721 10.8775 5.43401 10.8612 5.4359 10.7687C5.44273 10.4442 5.44037 10.1195 5.44155 9.795L5.43825 9.79735C5.48087 9.79429 5.52349 9.78888 5.56611 9.78864C5.84727 9.78794 6.12842 9.78582 6.40958 9.78958C6.49058 9.79076 6.52731 9.77593 6.52567 9.68174C6.51907 9.34996 6.52213 9.01794 6.52143 8.68616C6.88358 8.70594 7.24551 8.70641 7.60766 8.68616C7.60649 9.05656 7.60554 9.42719 7.60437 9.79759L7.6079 9.79382C7.27918 9.7917 6.95022 9.79241 6.62174 9.78534C6.53485 9.78346 6.51954 9.81478 6.52049 9.89319C6.52425 10.2221 6.52166 10.5511 6.52166 10.8801L6.52472 10.8768L6.52449 10.877Z" fill="#16DE93"/>
<path d="M1.08435 5.43726C0.755399 5.43726 0.426444 5.43537 0.0974879 5.43961C0.0193109 5.44079 -0.000233379 5.4163 2.09431e-06 5.34071C0.0025923 4.6828 0.0016504 4.02489 0.00117946 3.36674C0.00117946 3.31423 -0.00517831 3.26667 0.0748825 3.26784C0.411609 3.27255 0.7481 3.27302 1.08483 3.27491L1.08153 3.27138C1.08153 3.99451 1.08153 4.71765 1.08153 5.44079L1.08435 5.43726Z" fill="#16DE93"/>
<path d="M13.044 3.27493C13.3808 3.27305 13.7175 3.2721 14.0542 3.26881C14.1088 3.26834 14.1293 3.28576 14.1293 3.34275C14.1277 4.01667 14.1272 4.69036 14.1296 5.36428C14.1298 5.44528 14.0836 5.43846 14.0314 5.43822C13.7022 5.43751 13.3732 5.43751 13.044 5.43728L13.0471 5.44105C13.0471 4.71791 13.0471 3.99477 13.0471 3.27163L13.044 3.27517V3.27493Z" fill="#16DE93"/>
<path d="M5.44178 9.79522C5.12531 9.79263 4.8086 9.78486 4.49212 9.79051C4.37862 9.79263 4.34636 9.76131 4.3499 9.64758C4.36002 9.3271 4.3572 9.00638 4.35955 8.68567L4.35508 8.69038C4.52273 8.6932 4.69063 8.70003 4.85828 8.69768C5.05302 8.69485 5.24823 8.71463 5.44226 8.6859C5.44108 9.05654 5.43967 9.42717 5.43849 9.79781L5.44178 9.79545V9.79522Z" fill="#16DE93"/>
<path d="M2.16801 6.52068C1.83929 6.52138 1.5108 6.5195 1.18208 6.52421C1.10202 6.52539 1.0853 6.49689 1.08601 6.42319C1.0886 6.0947 1.08554 5.76598 1.0846 5.4375L1.08177 5.44103C1.41379 5.44056 1.74581 5.44009 2.07782 5.43962C2.12445 5.43962 2.17342 5.4302 2.17272 5.50532C2.16871 5.84487 2.1673 6.18442 2.16495 6.52397L2.16801 6.52091V6.52068Z" fill="#16DE93"/>
<path d="M13.0443 5.43713C13.044 5.76609 13.0417 6.09481 13.0447 6.42377C13.0454 6.49794 13.0278 6.52525 12.948 6.52384C12.6192 6.5189 12.2903 6.52078 11.9613 6.52031L11.9642 6.52384C11.9627 6.19041 11.9637 5.85698 11.9583 5.52379C11.9569 5.44161 11.9969 5.43855 12.0588 5.43902C12.3882 5.44114 12.7179 5.44043 13.0473 5.4409L13.0443 5.43713Z" fill="#16DE93"/>
<path d="M11.9613 6.52051C11.9604 6.84923 11.9585 7.17818 11.959 7.5069C11.959 7.56766 11.9578 7.6124 11.8758 7.61122C11.5434 7.60627 11.2106 7.6058 10.8781 7.60368L10.881 7.60674C10.8586 7.26766 10.8772 6.92788 10.8711 6.58856C10.8697 6.51415 10.9217 6.52404 10.9683 6.52404C11.3004 6.52404 11.6324 6.52404 11.9644 6.52404L11.9616 6.52051H11.9613Z" fill="#16DE93"/>
<path d="M8.68754 9.79454C8.68966 10.1273 8.68966 10.46 8.69508 10.7925C8.69649 10.8758 8.65081 10.8756 8.591 10.8754C8.26205 10.8749 7.93332 10.8763 7.60437 10.877L7.60743 10.8803V9.79407L7.60413 9.79784C7.96629 9.78041 8.32821 9.78136 8.69037 9.79713L8.68754 9.79454Z" fill="#16DE93"/>
<path d="M7.60437 10.8769C7.60508 11.2066 7.60437 11.536 7.60767 11.8655C7.60837 11.9333 7.59495 11.962 7.51795 11.9611C7.21584 11.9566 6.91373 11.9566 6.61162 11.9611C6.53438 11.9622 6.52119 11.9328 6.52167 11.8655C6.52473 11.536 6.52378 11.2064 6.52426 10.8767L6.52119 10.88C6.88335 10.88 7.24527 10.88 7.60743 10.88L7.60437 10.8767V10.8769Z" fill="#16DE93"/>
<path d="M4.35507 3.27124C4.71723 3.27124 5.07915 3.27124 5.44131 3.27148C5.43966 3.96424 5.43731 4.657 5.43683 5.35C5.43683 5.74135 5.43966 6.13247 5.44131 6.52383C5.11188 6.52359 4.78222 6.52218 4.45279 6.52383C4.38145 6.5243 4.35107 6.5064 4.3513 6.42611C4.3546 5.37448 4.35437 4.32286 4.35484 3.27124H4.35507Z" fill="#16DE93"/>
<path d="M6.52448 8.68968C6.16233 8.70004 5.80017 8.70027 5.43825 8.68968C5.43825 7.96654 5.43825 7.2434 5.43848 6.52026C5.75496 6.52121 6.07167 6.52756 6.38791 6.5205C6.49858 6.51814 6.52448 6.55488 6.52401 6.65825C6.52119 7.33524 6.52354 8.01222 6.52425 8.68944L6.52448 8.68968Z" fill="#16DE93"/>
<path d="M9.77378 3.27122C9.77614 3.31408 9.78038 3.35694 9.78038 3.39979C9.77943 4.41091 9.77661 5.42203 9.7792 6.43315C9.77943 6.52452 9.73799 6.52358 9.67394 6.52334C9.34522 6.5224 9.01627 6.52334 8.68755 6.52334C8.69084 6.1673 8.69673 5.8115 8.6972 5.45547C8.69791 4.7467 8.69555 4.03792 8.69414 3.32938C8.69414 3.31008 8.6899 3.29077 8.68778 3.27122C9.0497 3.27122 9.41186 3.27099 9.77378 3.27075V3.27122Z" fill="#16DE93"/>
<path d="M8.69084 8.69011C8.32868 8.7 7.96653 8.70071 7.60437 8.68987C7.60555 8.01666 7.60979 7.34321 7.60508 6.66999C7.60413 6.55296 7.63121 6.51787 7.75178 6.52093C8.06448 6.52918 8.37743 6.52188 8.69037 6.52093C8.69037 7.24407 8.69061 7.96721 8.69084 8.69035V8.69011Z" fill="#16DE93"/>
<path d="M10.8814 2.16357C10.8546 2.4054 10.8774 2.64818 10.869 2.89048C10.8647 3.01104 10.9194 3.16575 10.8466 3.24251C10.7731 3.31998 10.6172 3.26441 10.4976 3.26724C10.2551 3.27289 10.0125 3.27289 9.77001 3.27524C9.79591 2.96748 9.77519 2.65924 9.78108 2.35125C9.78485 2.15675 9.76036 2.17794 9.95839 2.17723C10.2318 2.17629 10.5052 2.17723 10.7783 2.177C10.8132 2.177 10.8489 2.18288 10.8812 2.16357H10.8814Z" fill="#16DE93"/>
</svg>
