<svg width="853" height="371" viewBox="0 0 853 371" fill="none" xmlns="http://www.w3.org/2000/svg">
<path d="M5.068 368.154C4.15333 368.154 3.35533 367.944 2.674 367.524C1.99267 367.095 1.46067 366.502 1.078 365.746C0.704667 364.981 0.518 364.094 0.518 363.086C0.518 362.097 0.709333 361.224 1.092 360.468C1.47467 359.712 2.00667 359.119 2.688 358.69C3.37867 358.261 4.18133 358.046 5.096 358.046C5.80533 358.046 6.44467 358.177 7.014 358.438C7.59267 358.699 8.078 359.073 8.47 359.558C8.862 360.043 9.142 360.627 9.31 361.308H7.882C7.67667 360.627 7.33133 360.123 6.846 359.796C6.37 359.469 5.78667 359.306 5.096 359.306C4.43333 359.306 3.85933 359.46 3.374 359.768C2.898 360.076 2.52933 360.515 2.268 361.084C2.00667 361.644 1.876 362.316 1.876 363.1C1.876 363.875 2.00667 364.547 2.268 365.116C2.52933 365.685 2.898 366.124 3.374 366.432C3.85933 366.74 4.43333 366.894 5.096 366.894C5.796 366.894 6.38867 366.721 6.874 366.376C7.35933 366.031 7.7 365.499 7.896 364.78H9.296C9.13733 365.48 8.862 366.082 8.47 366.586C8.078 367.09 7.59267 367.477 7.014 367.748C6.43533 368.019 5.78667 368.154 5.068 368.154ZM13.0224 368.14C12.2291 368.14 11.6317 367.911 11.2304 367.454C10.8384 366.987 10.6424 366.273 10.6424 365.312V361.126H11.9444V365.2C11.9444 365.816 12.0517 366.264 12.2664 366.544C12.4904 366.815 12.8451 366.95 13.3304 366.95C13.7224 366.95 14.0397 366.861 14.2824 366.684C14.5344 366.507 14.7164 366.25 14.8284 365.914C14.9497 365.578 15.0104 365.177 15.0104 364.71V361.126H16.3124V368H15.0664V367.076C14.8237 367.449 14.5391 367.72 14.2124 367.888C13.8857 368.056 13.4891 368.14 13.0224 368.14ZM18.1366 368V361.126H19.3826V362.022C19.6532 361.649 19.9426 361.383 20.2506 361.224C20.5586 361.056 20.9412 360.972 21.3986 360.972C21.8839 360.972 22.2946 361.07 22.6306 361.266C22.9759 361.462 23.2419 361.77 23.4286 362.19C23.6712 361.779 23.9792 361.476 24.3526 361.28C24.7352 361.075 25.1692 360.972 25.6546 360.972C26.4479 360.972 27.0406 361.201 27.4326 361.658C27.8339 362.115 28.0346 362.829 28.0346 363.8V368H26.7326V363.884C26.7326 363.277 26.6299 362.839 26.4246 362.568C26.2192 362.297 25.8832 362.162 25.4166 362.162C24.8192 362.162 24.3899 362.363 24.1286 362.764C23.8672 363.165 23.7366 363.73 23.7366 364.458V368H22.4346V363.884C22.4346 363.277 22.3319 362.839 22.1266 362.568C21.9212 362.297 21.5852 362.162 21.1186 362.162C20.5212 362.162 20.0919 362.363 19.8306 362.764C19.5692 363.165 19.4386 363.73 19.4386 364.458V368H18.1366ZM32.0673 368.14C31.274 368.14 30.6767 367.911 30.2753 367.454C29.8833 366.987 29.6873 366.273 29.6873 365.312V361.126H30.9893V365.2C30.9893 365.816 31.0967 366.264 31.3113 366.544C31.5353 366.815 31.89 366.95 32.3753 366.95C32.7673 366.95 33.0847 366.861 33.3273 366.684C33.5793 366.507 33.7613 366.25 33.8733 365.914C33.9947 365.578 34.0553 365.177 34.0553 364.71V361.126H35.3573V368H34.1113V367.076C33.8687 367.449 33.584 367.72 33.2573 367.888C32.9307 368.056 32.534 368.14 32.0673 368.14ZM38.8895 368.084C38.2735 368.084 37.8348 367.944 37.5735 367.664C37.3122 367.384 37.1815 366.969 37.1815 366.418V358.2H38.4835V366.152C38.4835 366.423 38.5302 366.623 38.6235 366.754C38.7262 366.875 38.8988 366.936 39.1415 366.936C39.1882 366.936 39.2348 366.936 39.2815 366.936C39.3375 366.936 39.3935 366.931 39.4495 366.922V368.014C39.3748 368.033 39.2862 368.047 39.1835 368.056C39.0902 368.075 38.9922 368.084 38.8895 368.084ZM42.4201 368.154C41.7108 368.154 41.1554 367.991 40.7541 367.664C40.3528 367.328 40.1521 366.847 40.1521 366.222C40.1521 365.877 40.2174 365.583 40.3481 365.34C40.4881 365.097 40.6794 364.897 40.9221 364.738C41.1648 364.579 41.4401 364.453 41.7481 364.36C42.0654 364.257 42.4061 364.173 42.7701 364.108L44.6041 363.786V363.534C44.6041 362.983 44.4781 362.605 44.2261 362.4C43.9741 362.195 43.6148 362.092 43.1481 362.092C42.6814 362.092 42.3221 362.181 42.0701 362.358C41.8274 362.535 41.6781 362.82 41.6221 363.212H40.3201C40.3574 362.717 40.5021 362.307 40.7541 361.98C41.0154 361.644 41.3514 361.392 41.7621 361.224C42.1821 361.056 42.6534 360.972 43.1761 360.972C44.0628 360.972 44.7394 361.187 45.2061 361.616C45.6728 362.036 45.9061 362.745 45.9061 363.744V368H44.6461V367.048C44.3848 367.403 44.0721 367.678 43.7081 367.874C43.3534 368.061 42.9241 368.154 42.4201 368.154ZM42.7001 367.048C43.0454 367.048 43.3628 366.978 43.6521 366.838C43.9414 366.698 44.1701 366.493 44.3381 366.222C44.5154 365.951 44.6041 365.625 44.6041 365.242V364.836L43.1621 365.088C42.8168 365.144 42.5134 365.209 42.2521 365.284C41.9908 365.349 41.7901 365.447 41.6501 365.578C41.5101 365.709 41.4401 365.9 41.4401 366.152C41.4401 366.451 41.5428 366.675 41.7481 366.824C41.9534 366.973 42.2708 367.048 42.7001 367.048ZM49.7288 368.084C48.9914 368.084 48.4828 367.921 48.2028 367.594C47.9321 367.267 47.7968 366.824 47.7968 366.264V362.302H46.8028V361.126H47.7968V359.11H49.0988V361.126H50.5828V362.302H49.0988V365.984C49.0988 366.273 49.1408 366.497 49.2248 366.656C49.3181 366.815 49.5234 366.894 49.8408 366.894C49.9808 366.894 50.1068 366.889 50.2188 366.88C50.3401 366.861 50.4614 366.843 50.5828 366.824V367.972C50.4521 368.009 50.3074 368.037 50.1488 368.056C49.9994 368.075 49.8594 368.084 49.7288 368.084ZM51.7967 368V361.126H53.0987V368H51.7967ZM51.7547 359.768V358.41H53.1547V359.768H51.7547ZM56.6079 368L54.0319 361.126H55.4179L57.2519 366.334L59.0859 361.126H60.4159L57.8679 368H56.6079ZM64.0026 368.154C63.3586 368.154 62.7893 368.005 62.2946 367.706C61.8093 367.407 61.4266 366.992 61.1466 366.46C60.8666 365.919 60.7266 365.284 60.7266 364.556C60.7266 363.959 60.8106 363.436 60.9786 362.988C61.1466 362.54 61.3753 362.167 61.6646 361.868C61.9633 361.569 62.3086 361.345 62.7006 361.196C63.0926 361.047 63.5126 360.972 63.9606 360.972C64.586 360.972 65.1226 361.117 65.5706 361.406C66.028 361.695 66.378 362.097 66.6206 362.61C66.8726 363.114 66.9986 363.693 66.9986 364.346V364.808H62.0566C62.094 365.545 62.29 366.096 62.6446 366.46C63.0086 366.824 63.4613 367.006 64.0026 367.006C64.432 367.006 64.7726 366.927 65.0246 366.768C65.2766 366.6 65.4773 366.343 65.6266 365.998H66.9706C66.8493 366.381 66.686 366.712 66.4806 366.992C66.2753 367.263 66.042 367.487 65.7806 367.664C65.5193 367.832 65.2393 367.953 64.9406 368.028C64.642 368.112 64.3293 368.154 64.0026 368.154ZM62.0986 363.828H65.6406C65.6033 363.24 65.4353 362.806 65.1366 362.526C64.8473 362.237 64.4553 362.092 63.9606 362.092C63.466 362.092 63.0553 362.232 62.7286 362.512C62.402 362.792 62.192 363.231 62.0986 363.828ZM74.2653 368L70.7793 358.2H72.2213L75.0493 366.278L77.8353 358.2H79.2353L75.7493 368H74.2653ZM82.1175 368.154C81.4642 368.154 80.8902 368.005 80.3955 367.706C79.9102 367.407 79.5322 366.992 79.2615 366.46C78.9909 365.919 78.8555 365.284 78.8555 364.556C78.8555 363.828 78.9909 363.198 79.2615 362.666C79.5322 362.125 79.9102 361.709 80.3955 361.42C80.8902 361.121 81.4642 360.972 82.1175 360.972C82.7709 360.972 83.3402 361.121 83.8255 361.42C84.3109 361.709 84.6889 362.125 84.9595 362.666C85.2302 363.198 85.3655 363.828 85.3655 364.556C85.3655 365.284 85.2302 365.919 84.9595 366.46C84.6889 366.992 84.3109 367.407 83.8255 367.706C83.3402 368.005 82.7709 368.154 82.1175 368.154ZM82.1175 366.978C82.7242 366.978 83.1955 366.773 83.5315 366.362C83.8769 365.951 84.0495 365.349 84.0495 364.556C84.0495 363.763 83.8769 363.165 83.5315 362.764C83.1955 362.353 82.7242 362.148 82.1175 362.148C81.5015 362.148 81.0209 362.353 80.6755 362.764C80.3395 363.165 80.1715 363.763 80.1715 364.556C80.1715 365.349 80.3395 365.951 80.6755 366.362C81.0209 366.773 81.5015 366.978 82.1175 366.978ZM88.409 368.084C87.793 368.084 87.3543 367.944 87.093 367.664C86.8317 367.384 86.701 366.969 86.701 366.418V358.2H88.003V366.152C88.003 366.423 88.0497 366.623 88.143 366.754C88.2457 366.875 88.4183 366.936 88.661 366.936C88.7077 366.936 88.7543 366.936 88.801 366.936C88.857 366.936 88.913 366.931 88.969 366.922V368.014C88.8943 368.033 88.8057 368.047 88.703 368.056C88.6097 368.075 88.5117 368.084 88.409 368.084ZM95.2196 370.296C94.6222 369.4 94.1742 368.42 93.8756 367.356C93.5862 366.283 93.4416 365.158 93.4416 363.982C93.4416 362.815 93.5909 361.695 93.8896 360.622C94.1882 359.549 94.6316 358.569 95.2196 357.682H96.3676C95.8262 358.615 95.4109 359.595 95.1216 360.622C94.8322 361.639 94.6876 362.759 94.6876 363.982C94.6876 365.205 94.8276 366.329 95.1076 367.356C95.3969 368.373 95.8169 369.353 96.3676 370.296H95.2196ZM101.323 368.154C100.082 368.154 99.1348 367.813 98.4815 367.132C97.8375 366.451 97.5155 365.457 97.5155 364.15V358.2H98.8735V364.136C98.8735 365.097 99.0788 365.797 99.4895 366.236C99.9095 366.675 100.516 366.894 101.309 366.894C102.112 366.894 102.719 366.675 103.129 366.236C103.549 365.797 103.759 365.097 103.759 364.136V358.2H105.117V364.15C105.117 365.457 104.795 366.451 104.151 367.132C103.507 367.813 102.565 368.154 101.323 368.154ZM110.421 368.154C109.236 368.154 108.293 367.888 107.593 367.356C106.903 366.815 106.501 366.017 106.389 364.962H107.803C107.887 365.606 108.13 366.091 108.531 366.418C108.942 366.735 109.572 366.894 110.421 366.894C111.168 366.894 111.747 366.773 112.157 366.53C112.568 366.278 112.773 365.877 112.773 365.326C112.773 365.055 112.713 364.827 112.591 364.64C112.479 364.444 112.283 364.276 112.003 364.136C111.723 363.996 111.336 363.875 110.841 363.772L109.511 363.478C108.503 363.254 107.785 362.932 107.355 362.512C106.926 362.083 106.711 361.504 106.711 360.776C106.711 360.235 106.842 359.763 107.103 359.362C107.374 358.951 107.766 358.629 108.279 358.396C108.802 358.163 109.437 358.046 110.183 358.046C110.883 358.046 111.49 358.153 112.003 358.368C112.517 358.573 112.932 358.895 113.249 359.334C113.576 359.763 113.795 360.314 113.907 360.986H112.493C112.372 360.379 112.125 359.95 111.751 359.698C111.387 359.437 110.865 359.306 110.183 359.306C109.502 359.306 108.979 359.418 108.615 359.642C108.251 359.857 108.069 360.202 108.069 360.678C108.069 360.949 108.121 361.182 108.223 361.378C108.335 361.565 108.522 361.723 108.783 361.854C109.054 361.985 109.423 362.106 109.889 362.218L111.219 362.526C112.265 362.769 113.011 363.105 113.459 363.534C113.907 363.954 114.131 364.533 114.131 365.27C114.131 365.886 113.977 366.409 113.669 366.838C113.361 367.267 112.927 367.594 112.367 367.818C111.817 368.042 111.168 368.154 110.421 368.154ZM115.606 368V358.2H118.504C119.615 358.2 120.567 358.382 121.36 358.746C122.163 359.11 122.779 359.651 123.208 360.37C123.637 361.089 123.852 361.975 123.852 363.03C123.852 364.094 123.637 364.995 123.208 365.732C122.788 366.469 122.186 367.034 121.402 367.426C120.618 367.809 119.675 368 118.574 368H115.606ZM116.964 366.74H118.49C119.787 366.74 120.777 366.432 121.458 365.816C122.149 365.191 122.494 364.271 122.494 363.058C122.494 361.835 122.149 360.93 121.458 360.342C120.777 359.754 119.787 359.46 118.49 359.46H116.964V366.74ZM124.611 370.296C125.162 369.353 125.582 368.373 125.871 367.356C126.16 366.329 126.305 365.209 126.305 363.996C126.305 362.773 126.16 361.649 125.871 360.622C125.591 359.595 125.171 358.615 124.611 357.682H125.759C126.366 358.569 126.814 359.549 127.103 360.622C127.402 361.695 127.551 362.82 127.551 363.996C127.551 365.163 127.402 366.283 127.103 367.356C126.804 368.429 126.356 369.409 125.759 370.296H124.611Z" fill="#8A8A8E"/>
<path d="M5.068 12.154C4.15333 12.154 3.35533 11.944 2.674 11.524C1.99267 11.0947 1.46067 10.502 1.078 9.746C0.704667 8.98067 0.518 8.094 0.518 7.086C0.518 6.09667 0.709333 5.224 1.092 4.468C1.47467 3.712 2.00667 3.11933 2.688 2.69C3.37867 2.26067 4.18133 2.046 5.096 2.046C5.80533 2.046 6.44467 2.17667 7.014 2.438C7.59267 2.69933 8.078 3.07267 8.47 3.558C8.862 4.04333 9.142 4.62667 9.31 5.308H7.882C7.67667 4.62667 7.33133 4.12267 6.846 3.796C6.37 3.46933 5.78667 3.306 5.096 3.306C4.43333 3.306 3.85933 3.46 3.374 3.768C2.898 4.076 2.52933 4.51467 2.268 5.084C2.00667 5.644 1.876 6.316 1.876 7.1C1.876 7.87467 2.00667 8.54667 2.268 9.116C2.52933 9.68533 2.898 10.124 3.374 10.432C3.85933 10.74 4.43333 10.894 5.096 10.894C5.796 10.894 6.38867 10.7213 6.874 10.376C7.35933 10.0307 7.7 9.49867 7.896 8.78H9.296C9.13733 9.48 8.862 10.082 8.47 10.586C8.078 11.09 7.59267 11.4773 7.014 11.748C6.43533 12.0187 5.78667 12.154 5.068 12.154ZM13.0224 12.14C12.2291 12.14 11.6317 11.9113 11.2304 11.454C10.8384 10.9873 10.6424 10.2733 10.6424 9.312V5.126H11.9444V9.2C11.9444 9.816 12.0517 10.264 12.2664 10.544C12.4904 10.8147 12.8451 10.95 13.3304 10.95C13.7224 10.95 14.0397 10.8613 14.2824 10.684C14.5344 10.5067 14.7164 10.25 14.8284 9.914C14.9497 9.578 15.0104 9.17667 15.0104 8.71V5.126H16.3124V12H15.0664V11.076C14.8237 11.4493 14.5391 11.72 14.2124 11.888C13.8857 12.056 13.4891 12.14 13.0224 12.14ZM18.1366 12V5.126H19.3826V6.022C19.6532 5.64867 19.9426 5.38267 20.2506 5.224C20.5586 5.056 20.9412 4.972 21.3986 4.972C21.8839 4.972 22.2946 5.07 22.6306 5.266C22.9759 5.462 23.2419 5.77 23.4286 6.19C23.6712 5.77933 23.9792 5.476 24.3526 5.28C24.7352 5.07467 25.1692 4.972 25.6546 4.972C26.4479 4.972 27.0406 5.20067 27.4326 5.658C27.8339 6.11533 28.0346 6.82933 28.0346 7.8V12H26.7326V7.884C26.7326 7.27733 26.6299 6.83867 26.4246 6.568C26.2192 6.29733 25.8832 6.162 25.4166 6.162C24.8192 6.162 24.3899 6.36267 24.1286 6.764C23.8672 7.16533 23.7366 7.73 23.7366 8.458V12H22.4346V7.884C22.4346 7.27733 22.3319 6.83867 22.1266 6.568C21.9212 6.29733 21.5852 6.162 21.1186 6.162C20.5212 6.162 20.0919 6.36267 19.8306 6.764C19.5692 7.16533 19.4386 7.73 19.4386 8.458V12H18.1366ZM32.0673 12.14C31.274 12.14 30.6767 11.9113 30.2753 11.454C29.8833 10.9873 29.6873 10.2733 29.6873 9.312V5.126H30.9893V9.2C30.9893 9.816 31.0967 10.264 31.3113 10.544C31.5353 10.8147 31.89 10.95 32.3753 10.95C32.7673 10.95 33.0847 10.8613 33.3273 10.684C33.5793 10.5067 33.7613 10.25 33.8733 9.914C33.9947 9.578 34.0553 9.17667 34.0553 8.71V5.126H35.3573V12H34.1113V11.076C33.8687 11.4493 33.584 11.72 33.2573 11.888C32.9307 12.056 32.534 12.14 32.0673 12.14ZM38.8895 12.084C38.2735 12.084 37.8348 11.944 37.5735 11.664C37.3122 11.384 37.1815 10.9687 37.1815 10.418V2.2H38.4835V10.152C38.4835 10.4227 38.5302 10.6233 38.6235 10.754C38.7262 10.8753 38.8988 10.936 39.1415 10.936C39.1882 10.936 39.2348 10.936 39.2815 10.936C39.3375 10.936 39.3935 10.9313 39.4495 10.922V12.014C39.3748 12.0327 39.2862 12.0467 39.1835 12.056C39.0902 12.0747 38.9922 12.084 38.8895 12.084ZM42.4201 12.154C41.7108 12.154 41.1554 11.9907 40.7541 11.664C40.3528 11.328 40.1521 10.8473 40.1521 10.222C40.1521 9.87667 40.2174 9.58267 40.3481 9.34C40.4881 9.09733 40.6794 8.89667 40.9221 8.738C41.1648 8.57933 41.4401 8.45333 41.7481 8.36C42.0654 8.25733 42.4061 8.17333 42.7701 8.108L44.6041 7.786V7.534C44.6041 6.98333 44.4781 6.60533 44.2261 6.4C43.9741 6.19467 43.6148 6.092 43.1481 6.092C42.6814 6.092 42.3221 6.18067 42.0701 6.358C41.8274 6.53533 41.6781 6.82 41.6221 7.212H40.3201C40.3574 6.71733 40.5021 6.30667 40.7541 5.98C41.0154 5.644 41.3514 5.392 41.7621 5.224C42.1821 5.056 42.6534 4.972 43.1761 4.972C44.0628 4.972 44.7394 5.18667 45.2061 5.616C45.6728 6.036 45.9061 6.74533 45.9061 7.744V12H44.6461V11.048C44.3848 11.4027 44.0721 11.678 43.7081 11.874C43.3534 12.0607 42.9241 12.154 42.4201 12.154ZM42.7001 11.048C43.0454 11.048 43.3628 10.978 43.6521 10.838C43.9414 10.698 44.1701 10.4927 44.3381 10.222C44.5154 9.95133 44.6041 9.62467 44.6041 9.242V8.836L43.1621 9.088C42.8168 9.144 42.5134 9.20933 42.2521 9.284C41.9908 9.34933 41.7901 9.44733 41.6501 9.578C41.5101 9.70867 41.4401 9.9 41.4401 10.152C41.4401 10.4507 41.5428 10.6747 41.7481 10.824C41.9534 10.9733 42.2708 11.048 42.7001 11.048ZM49.7288 12.084C48.9914 12.084 48.4828 11.9207 48.2028 11.594C47.9321 11.2673 47.7968 10.824 47.7968 10.264V6.302H46.8028V5.126H47.7968V3.11H49.0988V5.126H50.5828V6.302H49.0988V9.984C49.0988 10.2733 49.1408 10.4973 49.2248 10.656C49.3181 10.8147 49.5234 10.894 49.8408 10.894C49.9808 10.894 50.1068 10.8893 50.2188 10.88C50.3401 10.8613 50.4614 10.8427 50.5828 10.824V11.972C50.4521 12.0093 50.3074 12.0373 50.1488 12.056C49.9994 12.0747 49.8594 12.084 49.7288 12.084ZM51.7967 12V5.126H53.0987V12H51.7967ZM51.7547 3.768V2.41H53.1547V3.768H51.7547ZM56.6079 12L54.0319 5.126H55.4179L57.2519 10.334L59.0859 5.126H60.4159L57.8679 12H56.6079ZM64.0026 12.154C63.3586 12.154 62.7893 12.0047 62.2946 11.706C61.8093 11.4073 61.4266 10.992 61.1466 10.46C60.8666 9.91867 60.7266 9.284 60.7266 8.556C60.7266 7.95867 60.8106 7.436 60.9786 6.988C61.1466 6.54 61.3753 6.16667 61.6646 5.868C61.9633 5.56933 62.3086 5.34533 62.7006 5.196C63.0926 5.04667 63.5126 4.972 63.9606 4.972C64.586 4.972 65.1226 5.11667 65.5706 5.406C66.028 5.69533 66.378 6.09667 66.6206 6.61C66.8726 7.114 66.9986 7.69267 66.9986 8.346V8.808H62.0566C62.094 9.54533 62.29 10.096 62.6446 10.46C63.0086 10.824 63.4613 11.006 64.0026 11.006C64.432 11.006 64.7726 10.9267 65.0246 10.768C65.2766 10.6 65.4773 10.3433 65.6266 9.998H66.9706C66.8493 10.3807 66.686 10.712 66.4806 10.992C66.2753 11.2627 66.042 11.4867 65.7806 11.664C65.5193 11.832 65.2393 11.9533 64.9406 12.028C64.642 12.112 64.3293 12.154 64.0026 12.154ZM62.0986 7.828H65.6406C65.6033 7.24 65.4353 6.806 65.1366 6.526C64.8473 6.23667 64.4553 6.092 63.9606 6.092C63.466 6.092 63.0553 6.232 62.7286 6.512C62.402 6.792 62.192 7.23067 62.0986 7.828ZM74.2653 12L70.7793 2.2H72.2213L75.0493 10.278L77.8353 2.2H79.2353L75.7493 12H74.2653ZM82.1175 12.154C81.4642 12.154 80.8902 12.0047 80.3955 11.706C79.9102 11.4073 79.5322 10.992 79.2615 10.46C78.9909 9.91867 78.8555 9.284 78.8555 8.556C78.8555 7.828 78.9909 7.198 79.2615 6.666C79.5322 6.12467 79.9102 5.70933 80.3955 5.42C80.8902 5.12133 81.4642 4.972 82.1175 4.972C82.7709 4.972 83.3402 5.12133 83.8255 5.42C84.3109 5.70933 84.6889 6.12467 84.9595 6.666C85.2302 7.198 85.3655 7.828 85.3655 8.556C85.3655 9.284 85.2302 9.91867 84.9595 10.46C84.6889 10.992 84.3109 11.4073 83.8255 11.706C83.3402 12.0047 82.7709 12.154 82.1175 12.154ZM82.1175 10.978C82.7242 10.978 83.1955 10.7727 83.5315 10.362C83.8769 9.95133 84.0495 9.34933 84.0495 8.556C84.0495 7.76267 83.8769 7.16533 83.5315 6.764C83.1955 6.35333 82.7242 6.148 82.1175 6.148C81.5015 6.148 81.0209 6.35333 80.6755 6.764C80.3395 7.16533 80.1715 7.76267 80.1715 8.556C80.1715 9.34933 80.3395 9.95133 80.6755 10.362C81.0209 10.7727 81.5015 10.978 82.1175 10.978ZM88.409 12.084C87.793 12.084 87.3543 11.944 87.093 11.664C86.8317 11.384 86.701 10.9687 86.701 10.418V2.2H88.003V10.152C88.003 10.4227 88.0497 10.6233 88.143 10.754C88.2457 10.8753 88.4183 10.936 88.661 10.936C88.7077 10.936 88.7543 10.936 88.801 10.936C88.857 10.936 88.913 10.9313 88.969 10.922V12.014C88.8943 12.0327 88.8057 12.0467 88.703 12.056C88.6097 12.0747 88.5117 12.084 88.409 12.084ZM95.2196 14.296C94.6222 13.4 94.1742 12.42 93.8756 11.356C93.5862 10.2827 93.4416 9.158 93.4416 7.982C93.4416 6.81533 93.5909 5.69533 93.8896 4.622C94.1882 3.54867 94.6316 2.56867 95.2196 1.682H96.3676C95.8262 2.61533 95.4109 3.59533 95.1216 4.622C94.8322 5.63933 94.6876 6.75933 94.6876 7.982C94.6876 9.20467 94.8276 10.3293 95.1076 11.356C95.3969 12.3733 95.8169 13.3533 96.3676 14.296H95.2196ZM101.323 12.154C100.082 12.154 99.1348 11.8133 98.4815 11.132C97.8375 10.4507 97.5155 9.45667 97.5155 8.15V2.2H98.8735V8.136C98.8735 9.09733 99.0788 9.79733 99.4895 10.236C99.9095 10.6747 100.516 10.894 101.309 10.894C102.112 10.894 102.719 10.6747 103.129 10.236C103.549 9.79733 103.759 9.09733 103.759 8.136V2.2H105.117V8.15C105.117 9.45667 104.795 10.4507 104.151 11.132C103.507 11.8133 102.565 12.154 101.323 12.154ZM110.421 12.154C109.236 12.154 108.293 11.888 107.593 11.356C106.903 10.8147 106.501 10.0167 106.389 8.962H107.803C107.887 9.606 108.13 10.0913 108.531 10.418C108.942 10.7353 109.572 10.894 110.421 10.894C111.168 10.894 111.747 10.7727 112.157 10.53C112.568 10.278 112.773 9.87667 112.773 9.326C112.773 9.05533 112.713 8.82667 112.591 8.64C112.479 8.444 112.283 8.276 112.003 8.136C111.723 7.996 111.336 7.87467 110.841 7.772L109.511 7.478C108.503 7.254 107.785 6.932 107.355 6.512C106.926 6.08267 106.711 5.504 106.711 4.776C106.711 4.23467 106.842 3.76333 107.103 3.362C107.374 2.95133 107.766 2.62933 108.279 2.396C108.802 2.16267 109.437 2.046 110.183 2.046C110.883 2.046 111.49 2.15333 112.003 2.368C112.517 2.57333 112.932 2.89533 113.249 3.334C113.576 3.76333 113.795 4.314 113.907 4.986H112.493C112.372 4.37933 112.125 3.95 111.751 3.698C111.387 3.43667 110.865 3.306 110.183 3.306C109.502 3.306 108.979 3.418 108.615 3.642C108.251 3.85667 108.069 4.202 108.069 4.678C108.069 4.94867 108.121 5.182 108.223 5.378C108.335 5.56467 108.522 5.72333 108.783 5.854C109.054 5.98467 109.423 6.106 109.889 6.218L111.219 6.526C112.265 6.76867 113.011 7.10467 113.459 7.534C113.907 7.954 114.131 8.53267 114.131 9.27C114.131 9.886 113.977 10.4087 113.669 10.838C113.361 11.2673 112.927 11.594 112.367 11.818C111.817 12.042 111.168 12.154 110.421 12.154ZM115.606 12V2.2H118.504C119.615 2.2 120.567 2.382 121.36 2.746C122.163 3.11 122.779 3.65133 123.208 4.37C123.637 5.08867 123.852 5.97533 123.852 7.03C123.852 8.094 123.637 8.99467 123.208 9.732C122.788 10.4693 122.186 11.034 121.402 11.426C120.618 11.8087 119.675 12 118.574 12H115.606ZM116.964 10.74H118.49C119.787 10.74 120.777 10.432 121.458 9.816C122.149 9.19067 122.494 8.27133 122.494 7.058C122.494 5.83533 122.149 4.93 121.458 4.342C120.777 3.754 119.787 3.46 118.49 3.46H116.964V10.74ZM124.611 14.296C125.162 13.3533 125.582 12.3733 125.871 11.356C126.16 10.3293 126.305 9.20933 126.305 7.996C126.305 6.77333 126.16 5.64867 125.871 4.622C125.591 3.59533 125.171 2.61533 124.611 1.682H125.759C126.366 2.56867 126.814 3.54867 127.103 4.622C127.402 5.69533 127.551 6.82 127.551 7.996C127.551 9.16267 127.402 10.2827 127.103 11.356C126.804 12.4293 126.356 13.4093 125.759 14.296H124.611Z" fill="#8A8A8E"/>
<path d="M216.031 366.614L210.641 364.374V363.086L216.031 360.846V362.12L211.985 363.73L216.031 365.326V366.614ZM221.29 368V365.746H216.908V364.584L221.262 358.2H222.62V364.514H223.964V365.746H222.62V368H221.29ZM218.364 364.514H221.29V360.16L218.364 364.514ZM224.669 368V366.39H226.083V368H224.669ZM227.297 368V366.894C228.277 366.091 229.127 365.368 229.845 364.724C230.573 364.071 231.138 363.455 231.539 362.876C231.941 362.288 232.141 361.691 232.141 361.084C232.141 360.533 231.992 360.095 231.693 359.768C231.395 359.441 230.979 359.278 230.447 359.278C229.934 359.278 229.528 359.427 229.229 359.726C228.931 360.025 228.744 360.449 228.669 361H227.311C227.358 360.393 227.517 359.871 227.787 359.432C228.067 358.993 228.436 358.653 228.893 358.41C229.36 358.167 229.887 358.046 230.475 358.046C231.157 358.046 231.721 358.177 232.169 358.438C232.617 358.699 232.953 359.049 233.177 359.488C233.411 359.927 233.527 360.417 233.527 360.958C233.527 361.527 233.401 362.069 233.149 362.582C232.897 363.095 232.561 363.59 232.141 364.066C231.721 364.533 231.259 364.99 230.755 365.438C230.251 365.877 229.747 366.32 229.243 366.768H233.667V368H227.297ZM235.11 368V358.2H239.044C239.632 358.2 240.155 358.284 240.612 358.452C241.079 358.611 241.447 358.877 241.718 359.25C241.989 359.623 242.124 360.118 242.124 360.734C242.124 361.247 241.989 361.695 241.718 362.078C241.447 362.461 241.083 362.727 240.626 362.876C241.205 363.025 241.653 363.287 241.97 363.66C242.297 364.033 242.46 364.542 242.46 365.186C242.46 365.839 242.315 366.376 242.026 366.796C241.746 367.207 241.349 367.51 240.836 367.706C240.332 367.902 239.739 368 239.058 368H235.11ZM236.468 366.768H239.03C239.431 366.768 239.786 366.726 240.094 366.642C240.402 366.549 240.645 366.39 240.822 366.166C241.009 365.933 241.102 365.606 241.102 365.186C241.102 364.766 241.009 364.439 240.822 364.206C240.645 363.973 240.402 363.809 240.094 363.716C239.786 363.623 239.431 363.576 239.03 363.576H236.468V366.768ZM236.468 362.344H239.086C239.581 362.344 239.982 362.227 240.29 361.994C240.607 361.761 240.766 361.378 240.766 360.846C240.766 360.323 240.607 359.959 240.29 359.754C239.982 359.539 239.581 359.432 239.086 359.432H236.468V362.344Z" fill="#8A8A8E"/>
<path d="M213.285 13V5.706H211.395V4.74C211.908 4.72133 212.314 4.67 212.613 4.586C212.921 4.502 213.149 4.35267 213.299 4.138C213.457 3.914 213.569 3.60133 213.635 3.2H214.643V13H213.285ZM219.882 13.154C218.771 13.154 217.908 12.7153 217.292 11.838C216.676 10.9513 216.368 9.70533 216.368 8.1C216.368 6.49467 216.676 5.25333 217.292 4.376C217.908 3.48933 218.771 3.046 219.882 3.046C220.992 3.046 221.851 3.48933 222.458 4.376C223.074 5.25333 223.382 6.49467 223.382 8.1C223.382 9.70533 223.074 10.9513 222.458 11.838C221.851 12.7153 220.992 13.154 219.882 13.154ZM219.882 11.908C220.563 11.908 221.09 11.5813 221.464 10.928C221.846 10.2747 222.038 9.332 222.038 8.1C222.038 6.868 221.846 5.92533 221.464 5.272C221.09 4.61867 220.563 4.292 219.882 4.292C219.2 4.292 218.668 4.61867 218.286 5.272C217.912 5.92533 217.726 6.868 217.726 8.1C217.726 9.332 217.912 10.2747 218.286 10.928C218.668 11.5813 219.2 11.908 219.882 11.908ZM228.016 13.154C226.906 13.154 226.042 12.7153 225.426 11.838C224.81 10.9513 224.502 9.70533 224.502 8.1C224.502 6.49467 224.81 5.25333 225.426 4.376C226.042 3.48933 226.906 3.046 228.016 3.046C229.127 3.046 229.986 3.48933 230.592 4.376C231.208 5.25333 231.516 6.49467 231.516 8.1C231.516 9.70533 231.208 10.9513 230.592 11.838C229.986 12.7153 229.127 13.154 228.016 13.154ZM228.016 11.908C228.698 11.908 229.225 11.5813 229.598 10.928C229.981 10.2747 230.172 9.332 230.172 8.1C230.172 6.868 229.981 5.92533 229.598 5.272C229.225 4.61867 228.698 4.292 228.016 4.292C227.335 4.292 226.803 4.61867 226.42 5.272C226.047 5.92533 225.86 6.868 225.86 8.1C225.86 9.332 226.047 10.2747 226.42 10.928C226.803 11.5813 227.335 11.908 228.016 11.908ZM233.099 13V3.2H234.457V8.086L238.965 3.2H240.659L236.599 7.526L240.869 13H239.189L235.689 8.506L234.457 9.808V13H233.099Z" fill="#8A8A8E"/>
<path d="M505.223 368L509.269 359.46H504.369V358.2H510.725V359.334L506.707 368H505.223ZM511.976 368V358.2H515.91C516.498 358.2 517.021 358.284 517.478 358.452C517.945 358.611 518.313 358.877 518.584 359.25C518.855 359.623 518.99 360.118 518.99 360.734C518.99 361.247 518.855 361.695 518.584 362.078C518.313 362.461 517.949 362.727 517.492 362.876C518.071 363.025 518.519 363.287 518.836 363.66C519.163 364.033 519.326 364.542 519.326 365.186C519.326 365.839 519.181 366.376 518.892 366.796C518.612 367.207 518.215 367.51 517.702 367.706C517.198 367.902 516.605 368 515.924 368H511.976ZM513.334 366.768H515.896C516.297 366.768 516.652 366.726 516.96 366.642C517.268 366.549 517.511 366.39 517.688 366.166C517.875 365.933 517.968 365.606 517.968 365.186C517.968 364.766 517.875 364.439 517.688 364.206C517.511 363.973 517.268 363.809 516.96 363.716C516.652 363.623 516.297 363.576 515.896 363.576H513.334V366.768ZM513.334 362.344H515.952C516.447 362.344 516.848 362.227 517.156 361.994C517.473 361.761 517.632 361.378 517.632 360.846C517.632 360.323 517.473 359.959 517.156 359.754C516.848 359.539 516.447 359.432 515.952 359.432H513.334V362.344Z" fill="#8A8A8E"/>
<path d="M500.037 13V5.706H498.147V4.74C498.661 4.72133 499.067 4.67 499.365 4.586C499.673 4.502 499.902 4.35267 500.051 4.138C500.21 3.914 500.322 3.60133 500.387 3.2H501.395V13H500.037ZM506.397 13.154C505.79 13.154 505.267 13.056 504.829 12.86C504.39 12.664 504.031 12.3747 503.751 11.992C503.48 11.6093 503.284 11.138 503.163 10.578H504.521C504.661 11.0447 504.885 11.3853 505.193 11.6C505.51 11.8053 505.902 11.908 506.369 11.908C506.994 11.908 507.475 11.712 507.811 11.32C508.147 10.9187 508.315 10.382 508.315 9.71C508.315 9.07533 508.151 8.57133 507.825 8.198C507.498 7.81533 507.031 7.624 506.425 7.624C506.089 7.624 505.795 7.68 505.543 7.792C505.3 7.904 505.104 8.04867 504.955 8.226C504.805 8.40333 504.698 8.59467 504.633 8.8H503.373L503.639 3.2H509.113V4.432H504.773L504.619 7.288C504.833 6.98933 505.118 6.76533 505.473 6.616C505.827 6.45733 506.21 6.378 506.621 6.378C507.302 6.378 507.867 6.532 508.315 6.84C508.763 7.148 509.099 7.55867 509.323 8.072C509.556 8.576 509.673 9.122 509.673 9.71C509.673 10.158 509.598 10.592 509.449 11.012C509.309 11.4227 509.099 11.7913 508.819 12.118C508.548 12.4353 508.207 12.6873 507.797 12.874C507.395 13.0607 506.929 13.154 506.397 13.154ZM514.263 13.154C513.153 13.154 512.289 12.7153 511.673 11.838C511.057 10.9513 510.749 9.70533 510.749 8.1C510.749 6.49467 511.057 5.25333 511.673 4.376C512.289 3.48933 513.153 3.046 514.263 3.046C515.374 3.046 516.233 3.48933 516.839 4.376C517.455 5.25333 517.763 6.49467 517.763 8.1C517.763 9.70533 517.455 10.9513 516.839 11.838C516.233 12.7153 515.374 13.154 514.263 13.154ZM514.263 11.908C514.945 11.908 515.472 11.5813 515.845 10.928C516.228 10.2747 516.419 9.332 516.419 8.1C516.419 6.868 516.228 5.92533 515.845 5.272C515.472 4.61867 514.945 4.292 514.263 4.292C513.582 4.292 513.05 4.61867 512.667 5.272C512.294 5.92533 512.107 6.868 512.107 8.1C512.107 9.332 512.294 10.2747 512.667 10.928C513.05 11.5813 513.582 11.908 514.263 11.908ZM519.346 13V3.2H520.704V8.086L525.212 3.2H526.906L522.846 7.526L527.116 13H525.436L521.936 8.506L520.704 9.808V13H519.346Z" fill="#8A8A8E"/>
<path d="M642.328 368V360.706H640.438V359.74C640.951 359.721 641.357 359.67 641.656 359.586C641.964 359.502 642.192 359.353 642.342 359.138C642.5 358.914 642.612 358.601 642.678 358.2H643.686V368H642.328ZM648.925 368.154C647.814 368.154 646.951 367.715 646.335 366.838C645.719 365.951 645.411 364.705 645.411 363.1C645.411 361.495 645.719 360.253 646.335 359.376C646.951 358.489 647.814 358.046 648.925 358.046C650.035 358.046 650.894 358.489 651.501 359.376C652.117 360.253 652.425 361.495 652.425 363.1C652.425 364.705 652.117 365.951 651.501 366.838C650.894 367.715 650.035 368.154 648.925 368.154ZM648.925 366.908C649.606 366.908 650.133 366.581 650.507 365.928C650.889 365.275 651.081 364.332 651.081 363.1C651.081 361.868 650.889 360.925 650.507 360.272C650.133 359.619 649.606 359.292 648.925 359.292C648.243 359.292 647.711 359.619 647.329 360.272C646.955 360.925 646.769 361.868 646.769 363.1C646.769 364.332 646.955 365.275 647.329 365.928C647.711 366.581 648.243 366.908 648.925 366.908ZM653.206 368V366.39H654.62V368H653.206ZM659.009 368.154C658.402 368.154 657.88 368.056 657.441 367.86C657.002 367.664 656.643 367.375 656.363 366.992C656.092 366.609 655.896 366.138 655.775 365.578H657.133C657.273 366.045 657.497 366.385 657.805 366.6C658.122 366.805 658.514 366.908 658.981 366.908C659.606 366.908 660.087 366.712 660.423 366.32C660.759 365.919 660.927 365.382 660.927 364.71C660.927 364.075 660.764 363.571 660.437 363.198C660.11 362.815 659.644 362.624 659.037 362.624C658.701 362.624 658.407 362.68 658.155 362.792C657.912 362.904 657.716 363.049 657.567 363.226C657.418 363.403 657.31 363.595 657.245 363.8H655.985L656.251 358.2H661.725V359.432H657.385L657.231 362.288C657.446 361.989 657.73 361.765 658.085 361.616C658.44 361.457 658.822 361.378 659.233 361.378C659.914 361.378 660.479 361.532 660.927 361.84C661.375 362.148 661.711 362.559 661.935 363.072C662.168 363.576 662.285 364.122 662.285 364.71C662.285 365.158 662.21 365.592 662.061 366.012C661.921 366.423 661.711 366.791 661.431 367.118C661.16 367.435 660.82 367.687 660.409 367.874C660.008 368.061 659.541 368.154 659.009 368.154ZM663.824 368V358.2H667.758C668.346 358.2 668.868 358.284 669.326 358.452C669.792 358.611 670.161 358.877 670.432 359.25C670.702 359.623 670.838 360.118 670.838 360.734C670.838 361.247 670.702 361.695 670.432 362.078C670.161 362.461 669.797 362.727 669.34 362.876C669.918 363.025 670.366 363.287 670.684 363.66C671.01 364.033 671.174 364.542 671.174 365.186C671.174 365.839 671.029 366.376 670.74 366.796C670.46 367.207 670.063 367.51 669.55 367.706C669.046 367.902 668.453 368 667.772 368H663.824ZM665.182 366.768H667.744C668.145 366.768 668.5 366.726 668.808 366.642C669.116 366.549 669.358 366.39 669.536 366.166C669.722 365.933 669.816 365.606 669.816 365.186C669.816 364.766 669.722 364.439 669.536 364.206C669.358 363.973 669.116 363.809 668.808 363.716C668.5 363.623 668.145 363.576 667.744 363.576H665.182V366.768ZM665.182 362.344H667.8C668.294 362.344 668.696 362.227 669.004 361.994C669.321 361.761 669.48 361.378 669.48 360.846C669.48 360.323 669.321 359.959 669.004 359.754C668.696 359.539 668.294 359.432 667.8 359.432H665.182V362.344Z" fill="#8A8A8E"/>
<path d="M640.234 13V11.894C641.214 11.0913 642.063 10.368 642.782 9.724C643.51 9.07067 644.074 8.45467 644.476 7.876C644.877 7.288 645.078 6.69067 645.078 6.084C645.078 5.53333 644.928 5.09467 644.63 4.768C644.331 4.44133 643.916 4.278 643.384 4.278C642.87 4.278 642.464 4.42733 642.166 4.726C641.867 5.02467 641.68 5.44933 641.606 6H640.248C640.294 5.39333 640.453 4.87067 640.724 4.432C641.004 3.99333 641.372 3.65267 641.83 3.41C642.296 3.16733 642.824 3.046 643.412 3.046C644.093 3.046 644.658 3.17667 645.106 3.438C645.554 3.69933 645.89 4.04933 646.114 4.488C646.347 4.92667 646.464 5.41667 646.464 5.958C646.464 6.52733 646.338 7.06867 646.086 7.582C645.834 8.09533 645.498 8.59 645.078 9.066C644.658 9.53267 644.196 9.99 643.692 10.438C643.188 10.8767 642.684 11.32 642.18 11.768H646.604V13H640.234ZM651.098 13.154C649.988 13.154 649.124 12.7153 648.508 11.838C647.892 10.9513 647.584 9.70533 647.584 8.1C647.584 6.49467 647.892 5.25333 648.508 4.376C649.124 3.48933 649.988 3.046 651.098 3.046C652.209 3.046 653.068 3.48933 653.674 4.376C654.29 5.25333 654.598 6.49467 654.598 8.1C654.598 9.70533 654.29 10.9513 653.674 11.838C653.068 12.7153 652.209 13.154 651.098 13.154ZM651.098 11.908C651.78 11.908 652.307 11.5813 652.68 10.928C653.063 10.2747 653.254 9.332 653.254 8.1C653.254 6.868 653.063 5.92533 652.68 5.272C652.307 4.61867 651.78 4.292 651.098 4.292C650.417 4.292 649.885 4.61867 649.502 5.272C649.129 5.92533 648.942 6.868 648.942 8.1C648.942 9.332 649.129 10.2747 649.502 10.928C649.885 11.5813 650.417 11.908 651.098 11.908ZM659.233 13.154C658.123 13.154 657.259 12.7153 656.643 11.838C656.027 10.9513 655.719 9.70533 655.719 8.1C655.719 6.49467 656.027 5.25333 656.643 4.376C657.259 3.48933 658.123 3.046 659.233 3.046C660.344 3.046 661.203 3.48933 661.809 4.376C662.425 5.25333 662.733 6.49467 662.733 8.1C662.733 9.70533 662.425 10.9513 661.809 11.838C661.203 12.7153 660.344 13.154 659.233 13.154ZM659.233 11.908C659.915 11.908 660.442 11.5813 660.815 10.928C661.198 10.2747 661.389 9.332 661.389 8.1C661.389 6.868 661.198 5.92533 660.815 5.272C660.442 4.61867 659.915 4.292 659.233 4.292C658.552 4.292 658.02 4.61867 657.637 5.272C657.264 5.92533 657.077 6.868 657.077 8.1C657.077 9.332 657.264 10.2747 657.637 10.928C658.02 11.5813 658.552 11.908 659.233 11.908ZM664.316 13V3.2H665.674V8.086L670.182 3.2H671.876L667.816 7.526L672.086 13H670.406L666.906 8.506L665.674 9.808V13H664.316Z" fill="#8A8A8E"/>
<path d="M791.03 368V360.706H789.14V359.74C789.653 359.721 790.059 359.67 790.358 359.586C790.666 359.502 790.894 359.353 791.044 359.138C791.202 358.914 791.314 358.601 791.38 358.2H792.388V368H791.03ZM798.187 368V365.746H793.805V364.584L798.159 358.2H799.517V364.514H800.861V365.746H799.517V368H798.187ZM795.261 364.514H798.187V360.16L795.261 364.514ZM802.122 368V358.2H806.056C806.644 358.2 807.166 358.284 807.624 358.452C808.09 358.611 808.459 358.877 808.73 359.25C809 359.623 809.136 360.118 809.136 360.734C809.136 361.247 809 361.695 808.73 362.078C808.459 362.461 808.095 362.727 807.638 362.876C808.216 363.025 808.664 363.287 808.982 363.66C809.308 364.033 809.472 364.542 809.472 365.186C809.472 365.839 809.327 366.376 809.038 366.796C808.758 367.207 808.361 367.51 807.848 367.706C807.344 367.902 806.751 368 806.07 368H802.122ZM803.48 366.768H806.042C806.443 366.768 806.798 366.726 807.106 366.642C807.414 366.549 807.656 366.39 807.834 366.166C808.02 365.933 808.114 365.606 808.114 365.186C808.114 364.766 808.02 364.439 807.834 364.206C807.656 363.973 807.414 363.809 807.106 363.716C806.798 363.623 806.443 363.576 806.042 363.576H803.48V366.768ZM803.48 362.344H806.098C806.592 362.344 806.994 362.227 807.302 361.994C807.619 361.761 807.778 361.378 807.778 360.846C807.778 360.323 807.619 359.959 807.302 359.754C806.994 359.539 806.592 359.432 806.098 359.432H803.48V362.344Z" fill="#8A8A8E"/>
<path d="M783.487 13V11.894C784.467 11.0913 785.316 10.368 786.035 9.724C786.763 9.07067 787.327 8.45467 787.729 7.876C788.13 7.288 788.331 6.69067 788.331 6.084C788.331 5.53333 788.181 5.09467 787.883 4.768C787.584 4.44133 787.169 4.278 786.637 4.278C786.123 4.278 785.717 4.42733 785.419 4.726C785.12 5.02467 784.933 5.44933 784.859 6H783.501C783.547 5.39333 783.706 4.87067 783.977 4.432C784.257 3.99333 784.625 3.65267 785.083 3.41C785.549 3.16733 786.077 3.046 786.665 3.046C787.346 3.046 787.911 3.17667 788.359 3.438C788.807 3.69933 789.143 4.04933 789.367 4.488C789.6 4.92667 789.717 5.41667 789.717 5.958C789.717 6.52733 789.591 7.06867 789.339 7.582C789.087 8.09533 788.751 8.59 788.331 9.066C787.911 9.53267 787.449 9.99 786.945 10.438C786.441 10.8767 785.937 11.32 785.433 11.768H789.857V13H783.487ZM794.113 13.154C793.507 13.154 792.984 13.056 792.545 12.86C792.107 12.664 791.747 12.3747 791.467 11.992C791.197 11.6093 791.001 11.138 790.879 10.578H792.237C792.377 11.0447 792.601 11.3853 792.909 11.6C793.227 11.8053 793.619 11.908 794.085 11.908C794.711 11.908 795.191 11.712 795.527 11.32C795.863 10.9187 796.031 10.382 796.031 9.71C796.031 9.07533 795.868 8.57133 795.541 8.198C795.215 7.81533 794.748 7.624 794.141 7.624C793.805 7.624 793.511 7.68 793.259 7.792C793.017 7.904 792.821 8.04867 792.671 8.226C792.522 8.40333 792.415 8.59467 792.349 8.8H791.089L791.355 3.2H796.829V4.432H792.489L792.335 7.288C792.55 6.98933 792.835 6.76533 793.189 6.616C793.544 6.45733 793.927 6.378 794.337 6.378C795.019 6.378 795.583 6.532 796.031 6.84C796.479 7.148 796.815 7.55867 797.039 8.072C797.273 8.576 797.389 9.122 797.389 9.71C797.389 10.158 797.315 10.592 797.165 11.012C797.025 11.4227 796.815 11.7913 796.535 12.118C796.265 12.4353 795.924 12.6873 795.513 12.874C795.112 13.0607 794.645 13.154 794.113 13.154ZM801.98 13.154C800.87 13.154 800.006 12.7153 799.39 11.838C798.774 10.9513 798.466 9.70533 798.466 8.1C798.466 6.49467 798.774 5.25333 799.39 4.376C800.006 3.48933 800.87 3.046 801.98 3.046C803.091 3.046 803.95 3.48933 804.556 4.376C805.172 5.25333 805.48 6.49467 805.48 8.1C805.48 9.70533 805.172 10.9513 804.556 11.838C803.95 12.7153 803.091 13.154 801.98 13.154ZM801.98 11.908C802.662 11.908 803.189 11.5813 803.562 10.928C803.945 10.2747 804.136 9.332 804.136 8.1C804.136 6.868 803.945 5.92533 803.562 5.272C803.189 4.61867 802.662 4.292 801.98 4.292C801.299 4.292 800.767 4.61867 800.384 5.272C800.011 5.92533 799.824 6.868 799.824 8.1C799.824 9.332 800.011 10.2747 800.384 10.928C800.767 11.5813 801.299 11.908 801.98 11.908ZM807.063 13V3.2H808.421V8.086L812.929 3.2H814.623L810.563 7.526L814.833 13H813.153L809.653 8.506L808.421 9.808V13H807.063Z" fill="#8A8A8E"/>
<path d="M360.975 368V365.746H356.593V364.584L360.947 358.2H362.305V364.514H363.649V365.746H362.305V368H360.975ZM358.049 364.514H360.975V360.16L358.049 364.514ZM364.354 368V366.39H365.768V368H364.354ZM366.982 368V366.894C367.962 366.091 368.811 365.368 369.53 364.724C370.258 364.071 370.822 363.455 371.224 362.876C371.625 362.288 371.826 361.691 371.826 361.084C371.826 360.533 371.676 360.095 371.378 359.768C371.079 359.441 370.664 359.278 370.132 359.278C369.618 359.278 369.212 359.427 368.914 359.726C368.615 360.025 368.428 360.449 368.354 361H366.996C367.042 360.393 367.201 359.871 367.472 359.432C367.752 358.993 368.12 358.653 368.578 358.41C369.044 358.167 369.572 358.046 370.16 358.046C370.841 358.046 371.406 358.177 371.854 358.438C372.302 358.699 372.638 359.049 372.862 359.488C373.095 359.927 373.212 360.417 373.212 360.958C373.212 361.527 373.086 362.069 372.834 362.582C372.582 363.095 372.246 363.59 371.826 364.066C371.406 364.533 370.944 364.99 370.44 365.438C369.936 365.877 369.432 366.32 368.928 366.768H373.352V368H366.982ZM374.794 368V358.2H378.728C379.316 358.2 379.839 358.284 380.296 358.452C380.763 358.611 381.132 358.877 381.402 359.25C381.673 359.623 381.808 360.118 381.808 360.734C381.808 361.247 381.673 361.695 381.402 362.078C381.132 362.461 380.768 362.727 380.31 362.876C380.889 363.025 381.337 363.287 381.654 363.66C381.981 364.033 382.144 364.542 382.144 365.186C382.144 365.839 382 366.376 381.71 366.796C381.43 367.207 381.034 367.51 380.52 367.706C380.016 367.902 379.424 368 378.742 368H374.794ZM376.152 366.768H378.714C379.116 366.768 379.47 366.726 379.778 366.642C380.086 366.549 380.329 366.39 380.506 366.166C380.693 365.933 380.786 365.606 380.786 365.186C380.786 364.766 380.693 364.439 380.506 364.206C380.329 363.973 380.086 363.809 379.778 363.716C379.47 363.623 379.116 363.576 378.714 363.576H376.152V366.768ZM376.152 362.344H378.77C379.265 362.344 379.666 362.227 379.974 361.994C380.292 361.761 380.45 361.378 380.45 360.846C380.45 360.323 380.292 359.959 379.974 359.754C379.666 359.539 379.265 359.432 378.77 359.432H376.152V362.344Z" fill="white"/>
<path d="M357.366 13V5.706H355.476V4.74C355.989 4.72133 356.395 4.67 356.694 4.586C357.002 4.502 357.23 4.35267 357.38 4.138C357.538 3.914 357.65 3.60133 357.716 3.2H358.724V13H357.366ZM360.071 13V11.894C361.051 11.0913 361.9 10.368 362.619 9.724C363.347 9.07067 363.911 8.45467 364.313 7.876C364.714 7.288 364.915 6.69067 364.915 6.084C364.915 5.53333 364.765 5.09467 364.467 4.768C364.168 4.44133 363.753 4.278 363.221 4.278C362.707 4.278 362.301 4.42733 362.003 4.726C361.704 5.02467 361.517 5.44933 361.443 6H360.085C360.131 5.39333 360.29 4.87067 360.561 4.432C360.841 3.99333 361.209 3.65267 361.667 3.41C362.133 3.16733 362.661 3.046 363.249 3.046C363.93 3.046 364.495 3.17667 364.943 3.438C365.391 3.69933 365.727 4.04933 365.951 4.488C366.184 4.92667 366.301 5.41667 366.301 5.958C366.301 6.52733 366.175 7.06867 365.923 7.582C365.671 8.09533 365.335 8.59 364.915 9.066C364.495 9.53267 364.033 9.99 363.529 10.438C363.025 10.8767 362.521 11.32 362.017 11.768H366.441V13H360.071ZM370.935 13.154C369.825 13.154 368.961 12.7153 368.345 11.838C367.729 10.9513 367.421 9.70533 367.421 8.1C367.421 6.49467 367.729 5.25333 368.345 4.376C368.961 3.48933 369.825 3.046 370.935 3.046C372.046 3.046 372.905 3.48933 373.511 4.376C374.127 5.25333 374.435 6.49467 374.435 8.1C374.435 9.70533 374.127 10.9513 373.511 11.838C372.905 12.7153 372.046 13.154 370.935 13.154ZM370.935 11.908C371.617 11.908 372.144 11.5813 372.517 10.928C372.9 10.2747 373.091 9.332 373.091 8.1C373.091 6.868 372.9 5.92533 372.517 5.272C372.144 4.61867 371.617 4.292 370.935 4.292C370.254 4.292 369.722 4.61867 369.339 5.272C368.966 5.92533 368.779 6.868 368.779 8.1C368.779 9.332 368.966 10.2747 369.339 10.928C369.722 11.5813 370.254 11.908 370.935 11.908ZM376.018 13V3.2H377.376V8.086L381.884 3.2H383.578L379.518 7.526L383.788 13H382.108L378.608 8.506L377.376 9.808V13H376.018Z" fill="white"/>
<rect x="172" y="323" width="109" height="7" fill="#56565B" fill-opacity="0.3"/>
<rect x="315" y="268" width="109" height="62" fill="#16DE93"/>
<rect x="458" y="207" width="109" height="123" fill="#56565B" fill-opacity="0.3"/>
<rect x="601" y="128" width="109" height="202" fill="#56565B" fill-opacity="0.3"/>
<rect x="744" y="55" width="109" height="275" fill="#56565B" fill-opacity="0.3"/>
</svg>
