<svg width="33" height="33" viewBox="0 0 33 33" fill="none" xmlns="http://www.w3.org/2000/svg">
<path d="M33 3.14526H31.4325V29.8649H33V3.14526Z" fill="#16DE93"/>
<path d="M31.4325 29.865H29.8547V31.4325H31.4325V29.865Z" fill="#16DE93"/>
<path d="M31.4325 1.57776H29.8547V3.14526H31.4325V1.57776Z" fill="#16DE93"/>
<path d="M29.8547 31.4325H3.14532V33H29.8547V31.4325Z" fill="#16DE93"/>
<path d="M29.8547 0H3.14532V1.57781H29.8547V0Z" fill="#16DE93"/>
<path d="M3.14532 29.865H1.57782V31.4325H3.14532V29.865Z" fill="#16DE93"/>
<path d="M3.14532 1.57776H1.57782V3.14526H3.14532V1.57776Z" fill="#16DE93"/>
<path d="M1.57781 3.14526H0V29.8649H1.57781V3.14526Z" fill="#16DE93"/>
<path d="M25.5742 21.5286C24.9057 21.5294 24.2371 21.5302 23.5686 21.531L23.5737 21.5357C23.5682 21.4512 23.5575 21.3667 23.5575 21.2822C23.5567 18.0903 23.5551 14.8988 23.5615 11.7073C23.5615 11.5166 23.5145 11.4652 23.3241 11.47C22.7926 11.4838 22.2603 11.4704 21.7284 11.4775C21.5882 11.4795 21.5309 11.4498 21.5333 11.2947C21.542 10.7367 21.54 10.1783 21.5345 9.61992C21.5333 9.48961 21.5767 9.4517 21.7039 9.45328C22.2619 9.45881 22.8203 9.46118 23.3786 9.45209C23.535 9.44972 23.5619 9.50935 23.5603 9.64796C23.5536 10.1862 23.5634 10.7252 23.554 11.2635C23.5512 11.4155 23.5998 11.4479 23.7427 11.4459C24.3532 11.4376 24.9641 11.4415 25.575 11.4412V21.5286H25.5742Z" fill="#16DE93"/>
<path d="M13.4574 15.5063C14.0612 15.5063 14.6654 15.4987 15.2692 15.511C15.4496 15.5145 15.484 15.4569 15.4828 15.2891C15.4757 14.0945 15.482 12.8996 15.4757 11.7046C15.4749 11.5352 15.5045 11.4673 15.696 11.4728C16.2272 11.4879 16.7595 11.4843 17.291 11.474C17.4521 11.4709 17.4999 11.5104 17.4991 11.6774C17.4916 12.8787 17.4987 14.0799 17.4912 15.2812C17.49 15.4541 17.526 15.5122 17.7127 15.511C18.914 15.5015 20.1153 15.509 21.3165 15.5027C21.4745 15.5019 21.5325 15.5351 21.529 15.7057C21.5179 16.2439 21.5187 16.7821 21.529 17.3204C21.5321 17.4835 21.4875 17.5301 21.3224 17.5289C20.1212 17.5218 18.9199 17.5289 17.7187 17.521C17.5398 17.5198 17.4896 17.5656 17.4908 17.7476C17.4991 18.9556 17.4924 20.1636 17.4987 21.3712C17.4995 21.5256 17.4596 21.571 17.3032 21.5682C16.7587 21.5583 16.2133 21.5575 15.6688 21.5682C15.5057 21.5714 15.4761 21.5141 15.4765 21.3668C15.4816 20.1656 15.4753 18.9643 15.4836 17.763C15.4848 17.5767 15.4417 17.519 15.2482 17.5206C14.047 17.5297 12.8457 17.5222 11.6445 17.5285C11.4834 17.5293 11.4308 17.4874 11.434 17.3208C11.4443 16.7825 11.4447 16.2443 11.434 15.7061C11.4304 15.5359 11.4881 15.5003 11.6464 15.5023C12.2502 15.511 12.8544 15.5059 13.4582 15.5059L13.4574 15.5063Z" fill="#16DE93"/>
<path d="M9.40781 21.5378C8.80362 21.5354 8.19984 21.5279 7.59605 21.5338C7.45113 21.535 7.40848 21.5007 7.40848 21.3502C7.41322 18.1062 7.41282 14.8618 7.40927 11.6178C7.40927 11.4831 7.44046 11.4377 7.58223 11.4397C8.14021 11.4476 8.69858 11.4385 9.25656 11.446C9.39635 11.448 9.43268 11.4049 9.43071 11.2691C9.4236 10.7241 9.4315 10.1788 9.42518 9.63383C9.4236 9.49917 9.46151 9.45099 9.6013 9.45257C10.1593 9.45928 10.7177 9.45928 11.2756 9.45257C11.4166 9.4506 11.4533 9.49996 11.4518 9.63383C11.4458 10.1855 11.445 10.7371 11.4522 11.2888C11.4541 11.4325 11.4166 11.4807 11.2654 11.478C10.7271 11.4685 10.1881 11.4823 9.64987 11.4701C9.46783 11.4657 9.42321 11.519 9.4236 11.6983C9.42913 14.8965 9.42794 18.0947 9.42637 21.2929C9.42637 21.3763 9.45006 21.4639 9.4007 21.5425C9.40109 21.5425 9.40702 21.5378 9.40702 21.5378H9.40781Z" fill="#16DE93"/>
<path d="M16.5119 9.4288C14.8968 9.4288 13.2813 9.42603 11.6662 9.43275C11.4956 9.43354 11.4411 9.39405 11.445 9.21714C11.4569 8.6789 11.4533 8.14027 11.4466 7.60204C11.4446 7.46225 11.4738 7.40894 11.629 7.40894C14.8727 7.41367 18.1163 7.41328 21.3603 7.40973C21.4958 7.40973 21.5416 7.44606 21.54 7.58545C21.5329 8.13711 21.5313 8.68877 21.5408 9.24004C21.5435 9.40155 21.4863 9.43235 21.3386 9.43196C19.7298 9.42722 18.121 9.4288 16.5122 9.4288H16.5119Z" fill="#16DE93"/>
<path d="M11.4861 23.5225C11.5667 23.566 11.6536 23.5443 11.7373 23.5443C14.928 23.5455 18.1191 23.5466 21.3098 23.5419C21.4839 23.5419 21.5463 23.5778 21.5416 23.7654C21.5282 24.3036 21.5321 24.8423 21.54 25.3805C21.5424 25.529 21.4954 25.5685 21.3497 25.5685C18.1128 25.5649 14.8759 25.5649 11.6393 25.5685C11.4988 25.5685 11.4439 25.5377 11.4462 25.3845C11.4549 24.8265 11.4494 24.2685 11.4498 23.7101C11.4498 23.645 11.4439 23.5778 11.4881 23.5214L11.4865 23.5233L11.4861 23.5225Z" fill="#16DE93"/>
<path d="M11.4877 23.5205C11.3538 23.5663 11.2152 23.5434 11.079 23.5442C10.6016 23.547 10.1237 23.5359 9.64671 23.5501C9.45835 23.5556 9.42084 23.4909 9.424 23.3183C9.43426 22.7955 9.42834 22.2719 9.42676 21.7486C9.42676 21.6779 9.44335 21.6045 9.40781 21.537C9.40741 21.537 9.40149 21.5421 9.40109 21.5421C10.0479 21.5381 10.6951 21.5354 11.3424 21.5291C11.4727 21.5279 11.4478 21.6175 11.4482 21.6906C11.4498 22.2335 11.4478 22.7765 11.4506 23.3195C11.4506 23.3874 11.4206 23.464 11.4849 23.5225L11.4869 23.5205H11.4877Z" fill="#16DE93"/>
<path d="M23.5685 21.5311C23.5646 22.1341 23.5551 22.7375 23.561 23.3401C23.5626 23.502 23.5216 23.5525 23.3553 23.5494C22.8044 23.5391 22.2536 23.5423 21.7027 23.5478C21.5759 23.549 21.5329 23.5126 21.5345 23.3823C21.5404 22.8184 21.5392 22.2541 21.5353 21.6902C21.5345 21.5793 21.5546 21.5256 21.6849 21.5271C22.3144 21.5354 22.9438 21.5335 23.5737 21.5354L23.5685 21.5307V21.5311Z" fill="#16DE93"/>
</svg>
