<svg width="15" height="12" viewBox="0 0 15 12" fill="none" xmlns="http://www.w3.org/2000/svg">
<path d="M1.08508 3.27496C1.08578 2.9453 1.08978 2.61564 1.0846 2.28621C1.08319 2.19508 1.11357 2.17389 1.19881 2.17507C1.48514 2.17954 1.77171 2.17271 2.05805 2.17907C2.15459 2.18119 2.17626 2.14681 2.17508 2.05804C2.17061 1.7717 2.17696 1.48513 2.17131 1.1988C2.16966 1.10885 2.19768 1.08624 2.28481 1.08789C2.57515 1.09307 2.86549 1.08718 3.15582 1.09142C3.23659 1.0926 3.26485 1.07023 3.26367 0.986871C3.25943 0.708307 3.26814 0.429507 3.2599 0.151178C3.25661 0.0360319 3.2811 -0.000466457 3.40566 4.48877e-06C4.69676 0.00542037 5.98762 0.00330111 7.27872 0.00330111C8.42853 0.00330111 9.57835 0.00494942 10.7279 0.000710908C10.8393 0.000239962 10.8756 0.0268484 10.8734 0.142466C10.8676 0.45588 10.8753 0.769765 10.8779 1.08342L10.8817 1.08059C10.8308 1.08318 10.7802 1.08765 10.7293 1.08765C9.72999 1.08812 8.73065 1.08907 7.73153 1.08624C7.63852 1.08601 7.60155 1.10414 7.60414 1.20704C7.61144 1.4889 7.61027 1.77147 7.60414 2.05333C7.60226 2.14681 7.6218 2.18331 7.72447 2.18072C8.01434 2.17366 8.30444 2.17907 8.59431 2.17719C8.65718 2.17672 8.69627 2.1826 8.69509 2.26361C8.69015 2.60057 8.69109 2.93753 8.68991 3.27449C8.36849 3.2719 8.0473 3.26625 7.72588 3.26907C7.6357 3.26978 7.60367 3.24859 7.60579 3.15252C7.61215 2.86241 7.60509 2.57208 7.6098 2.28197C7.61121 2.19862 7.58413 2.17554 7.50313 2.17672C7.20902 2.18072 6.91468 2.18166 6.62081 2.17601C6.53204 2.17436 6.51885 2.20874 6.51979 2.28527C6.52356 2.5716 6.51744 2.85794 6.52379 3.14427C6.52591 3.24011 6.5026 3.27096 6.40229 3.26978C6.0811 3.26554 5.75968 3.27237 5.43826 3.27496C5.43826 2.94577 5.44156 2.61634 5.43591 2.28715C5.43426 2.1972 5.46134 2.1753 5.54799 2.17695C5.8381 2.18213 6.1282 2.17672 6.4183 2.18025C6.4986 2.18119 6.52638 2.15788 6.52497 2.07452C6.52026 1.78065 6.5205 1.48655 6.52497 1.19267C6.52615 1.11002 6.50001 1.08718 6.41854 1.08742C5.39941 1.08977 4.38005 1.08954 3.36092 1.08742C3.28628 1.08742 3.25825 1.10579 3.25943 1.18538C3.26344 1.48325 3.26249 1.78112 3.25896 2.07899C3.25802 2.15623 3.28369 2.17931 3.36045 2.17813C3.65055 2.17413 3.94066 2.18048 4.23052 2.17413C4.33013 2.17201 4.35485 2.20403 4.35391 2.3001C4.35061 2.62506 4.35674 2.95024 4.35933 3.27543C4.03437 3.27308 3.70942 3.26648 3.38447 3.27049C3.28416 3.27167 3.25896 3.23893 3.26084 3.14357C3.2665 2.86171 3.26014 2.57937 3.26438 2.29751C3.26555 2.21062 3.24766 2.17224 3.149 2.17436C2.86313 2.18072 2.57703 2.17907 2.29117 2.17507C2.20263 2.17389 2.16825 2.1965 2.17037 2.2928C2.17696 2.57867 2.16943 2.86477 2.17461 3.15063C2.17626 3.24152 2.1513 3.27143 2.05687 3.27002C1.73192 3.26531 1.40673 3.27002 1.08154 3.27119L1.08484 3.27473L1.08508 3.27496Z" fill="#909CBD"/>
<path d="M10.8784 7.60364C10.8758 7.92459 10.8695 8.24554 10.8728 8.56625C10.8737 8.66633 10.8502 8.70235 10.7428 8.69953C10.4572 8.69176 10.1711 8.69953 9.88519 8.69529C9.80372 8.69411 9.77688 8.71884 9.77805 8.80149C9.78253 9.09136 9.77593 9.38122 9.78206 9.67085C9.78418 9.76646 9.75239 9.78859 9.66197 9.78812C9.33725 9.78577 9.0123 9.79165 8.68758 9.79448L8.6904 9.79707C8.69464 9.42667 8.70288 9.05603 8.6864 8.68564C9.01418 8.71413 9.34266 8.68917 9.67068 8.7C9.75757 8.70283 9.78512 8.67575 9.7837 8.58791C9.77876 8.30629 9.78724 8.02443 9.77923 7.74304C9.77617 7.63119 9.81455 7.60693 9.9191 7.60858C10.2398 7.61376 10.5605 7.60811 10.8812 7.6067L10.8784 7.60364Z" fill="#909CBD"/>
<path d="M10.8779 1.08338C11.1991 1.08527 11.5203 1.09068 11.8414 1.08715C11.9323 1.08621 11.963 1.10881 11.9606 1.20418C11.9542 1.49005 11.9622 1.77638 11.9561 2.06248C11.9542 2.15714 11.9856 2.18069 12.0755 2.17927C12.3654 2.17433 12.6555 2.17951 12.9456 2.17598C13.0214 2.17504 13.0459 2.19717 13.0449 2.27558C13.0409 2.60854 13.0435 2.94174 13.0438 3.27493L13.0468 3.2714C12.7176 3.27022 12.3882 3.26669 12.059 3.26904C11.9832 3.26951 11.9568 3.24879 11.9582 3.17014C11.963 2.92714 11.9599 2.68413 11.9599 2.44088C11.9599 2.17716 11.9599 2.18045 11.6985 2.17621C11.4247 2.17197 11.1506 2.19246 10.8772 2.16538C10.8694 1.8037 10.8616 1.44201 10.8812 1.08032L10.8774 1.08315L10.8779 1.08338Z" fill="#909CBD"/>
<path d="M4.35952 8.68545C4.0155 8.70946 3.671 8.68992 3.32674 8.69581C3.2521 8.69698 3.26199 8.644 3.26199 8.59809C3.26175 8.31599 3.25728 8.03389 3.26458 7.75203C3.2674 7.64324 3.24409 7.60251 3.12518 7.60651C2.84732 7.6164 2.56899 7.60651 2.29089 7.61169C2.20118 7.61334 2.16939 7.5912 2.1708 7.49537C2.17528 7.17041 2.16963 6.84546 2.16798 6.52051L2.16492 6.52357C2.49788 6.5238 2.83083 6.52663 3.16379 6.52239C3.24244 6.52145 3.26434 6.54688 3.2634 6.622C3.2601 6.90409 3.26693 7.18619 3.25963 7.46805C3.2568 7.57755 3.28153 7.61758 3.3995 7.61357C3.67736 7.60439 3.95569 7.61404 4.23378 7.60863C4.32515 7.60674 4.35576 7.63194 4.35434 7.72636C4.34987 8.04755 4.35434 8.36873 4.35529 8.68968L4.35976 8.68497L4.35952 8.68545Z" fill="#909CBD"/>
<path d="M6.52446 10.877C6.19974 10.8763 5.87526 10.8728 5.55054 10.8765C5.46718 10.8775 5.43398 10.8612 5.43587 10.7687C5.4427 10.4442 5.44034 10.1195 5.44152 9.795L5.43822 9.79735C5.48084 9.79429 5.52346 9.78888 5.56608 9.78864C5.84724 9.78794 6.12839 9.78582 6.40955 9.78958C6.49055 9.79076 6.52728 9.77593 6.52564 9.68174C6.51904 9.34996 6.5221 9.01794 6.5214 8.68616C6.88355 8.70594 7.24548 8.70641 7.60763 8.68616C7.60646 9.05656 7.60551 9.42719 7.60434 9.79759L7.60787 9.79382C7.27915 9.7917 6.95019 9.79241 6.62171 9.78534C6.53482 9.78346 6.51951 9.81478 6.52045 9.89319C6.52422 10.2221 6.52163 10.5511 6.52163 10.8801L6.52469 10.8768L6.52446 10.877Z" fill="#909CBD"/>
<path d="M1.08435 5.43726C0.755399 5.43726 0.426444 5.43537 0.0974879 5.43961C0.0193109 5.44079 -0.000233379 5.4163 2.09431e-06 5.34071C0.0025923 4.6828 0.0016504 4.02489 0.00117946 3.36674C0.00117946 3.31423 -0.00517831 3.26667 0.0748825 3.26784C0.411609 3.27255 0.7481 3.27302 1.08483 3.27491L1.08153 3.27138C1.08153 3.99451 1.08153 4.71765 1.08153 5.44079L1.08435 5.43726Z" fill="#909CBD"/>
<path d="M13.0441 3.27493C13.3808 3.27305 13.7175 3.2721 14.0542 3.26881C14.1089 3.26834 14.1294 3.28576 14.1294 3.34275C14.1277 4.01667 14.1272 4.69036 14.1296 5.36428C14.1298 5.44528 14.0837 5.43846 14.0314 5.43822C13.7022 5.43751 13.3733 5.43751 13.0441 5.43728L13.0471 5.44105C13.0471 4.71791 13.0471 3.99477 13.0471 3.27163L13.0441 3.27517V3.27493Z" fill="#909CBD"/>
<path d="M5.44175 9.79522C5.12528 9.79263 4.80857 9.78486 4.49209 9.79051C4.37859 9.79263 4.34633 9.76131 4.34987 9.64758C4.35999 9.3271 4.35717 9.00638 4.35952 8.68567L4.35505 8.69038C4.5227 8.6932 4.6906 8.70003 4.85825 8.69768C5.05299 8.69485 5.24819 8.71463 5.44222 8.6859C5.44105 9.05654 5.43963 9.42717 5.43846 9.79781L5.44175 9.79545V9.79522Z" fill="#909CBD"/>
<path d="M2.16802 6.52068C1.8393 6.52138 1.51082 6.5195 1.1821 6.52421C1.10204 6.52539 1.08532 6.49689 1.08603 6.42319C1.08862 6.0947 1.08555 5.76598 1.08461 5.4375L1.08179 5.44103C1.4138 5.44056 1.74582 5.44009 2.07784 5.43962C2.12446 5.43962 2.17344 5.4302 2.17273 5.50532C2.16873 5.84487 2.16732 6.18442 2.16496 6.52397L2.16802 6.52091V6.52068Z" fill="#909CBD"/>
<path d="M13.0443 5.43713C13.0441 5.76609 13.0417 6.09481 13.0448 6.42377C13.0455 6.49794 13.0278 6.52525 12.948 6.52384C12.6193 6.5189 12.2903 6.52078 11.9613 6.52031L11.9642 6.52384C11.9628 6.19041 11.9637 5.85698 11.9583 5.52379C11.9569 5.44161 11.9969 5.43855 12.0588 5.43902C12.3883 5.44114 12.7179 5.44043 13.0474 5.4409L13.0443 5.43713Z" fill="#909CBD"/>
<path d="M11.9614 6.52051C11.9604 6.84923 11.9585 7.17818 11.959 7.5069C11.959 7.56766 11.9578 7.6124 11.8759 7.61122C11.5434 7.60627 11.2107 7.6058 10.8782 7.60368L10.881 7.60674C10.8586 7.26766 10.8772 6.92788 10.8711 6.58856C10.8697 6.51415 10.9217 6.52404 10.9684 6.52404C11.3004 6.52404 11.6324 6.52404 11.9644 6.52404L11.9616 6.52051H11.9614Z" fill="#909CBD"/>
<path d="M8.68754 9.79454C8.68966 10.1273 8.68966 10.46 8.69507 10.7925C8.69649 10.8758 8.6508 10.8756 8.59099 10.8754C8.26204 10.8749 7.93332 10.8763 7.60436 10.877L7.60742 10.8803V9.79407L7.60413 9.79784C7.96628 9.78041 8.32821 9.78136 8.69036 9.79713L8.68754 9.79454Z" fill="#909CBD"/>
<path d="M7.60442 10.8769C7.60512 11.2066 7.60442 11.536 7.60771 11.8655C7.60842 11.9333 7.595 11.962 7.518 11.9611C7.21589 11.9566 6.91377 11.9566 6.61166 11.9611C6.53443 11.9622 6.52124 11.9328 6.52171 11.8655C6.52477 11.536 6.52383 11.2064 6.5243 10.8767L6.52124 10.88C6.8834 10.88 7.24532 10.88 7.60748 10.88L7.60442 10.8767V10.8769Z" fill="#909CBD"/>
<path d="M4.35509 3.27124C4.71724 3.27124 5.07917 3.27124 5.44132 3.27148C5.43968 3.96424 5.43732 4.657 5.43685 5.35C5.43685 5.74135 5.43968 6.13247 5.44132 6.52383C5.1119 6.52359 4.78224 6.52218 4.45281 6.52383C4.38146 6.5243 4.35108 6.5064 4.35132 6.42611C4.35462 5.37448 4.35438 4.32286 4.35485 3.27124H4.35509Z" fill="#909CBD"/>
<path d="M6.52447 8.68968C6.16231 8.70004 5.80015 8.70027 5.43823 8.68968C5.43823 7.96654 5.43823 7.2434 5.43847 6.52026C5.75494 6.52121 6.07165 6.52756 6.38789 6.5205C6.49857 6.51814 6.52447 6.55488 6.524 6.65825C6.52117 7.33524 6.52353 8.01222 6.52423 8.68944L6.52447 8.68968Z" fill="#909CBD"/>
<path d="M9.77374 3.27122C9.77609 3.31408 9.78033 3.35694 9.78033 3.39979C9.77939 4.41091 9.77656 5.42203 9.77915 6.43315C9.77939 6.52452 9.73794 6.52358 9.6739 6.52334C9.34518 6.5224 9.01622 6.52334 8.6875 6.52334C8.6908 6.1673 8.69668 5.8115 8.69715 5.45547C8.69786 4.7467 8.69551 4.03792 8.69409 3.32938C8.69409 3.31008 8.68985 3.29077 8.68774 3.27122C9.04966 3.27122 9.41181 3.27099 9.77374 3.27075V3.27122Z" fill="#909CBD"/>
<path d="M8.69084 8.69011C8.32868 8.7 7.96653 8.70071 7.60437 8.68987C7.60555 8.01666 7.60979 7.34321 7.60508 6.66999C7.60413 6.55296 7.63121 6.51787 7.75178 6.52093C8.06448 6.52918 8.37743 6.52188 8.69037 6.52093C8.69037 7.24407 8.69061 7.96721 8.69084 8.69035V8.69011Z" fill="#909CBD"/>
<path d="M10.8815 2.16357C10.8546 2.4054 10.8774 2.64818 10.869 2.89048C10.8647 3.01104 10.9194 3.16575 10.8466 3.24251C10.7731 3.31998 10.6173 3.26441 10.4976 3.26724C10.2551 3.27289 10.0126 3.27289 9.77002 3.27524C9.79592 2.96748 9.7752 2.65924 9.78109 2.35125C9.78485 2.15675 9.76037 2.17794 9.9584 2.17723C10.2318 2.17629 10.5052 2.17723 10.7783 2.177C10.8132 2.177 10.849 2.18288 10.8812 2.16357H10.8815Z" fill="#909CBD"/>
</svg>
