<svg width="640" height="413" viewBox="0 0 640 413" fill="none" xmlns="http://www.w3.org/2000/svg">
<mask id="mask0_1420_219" style="mask-type:alpha" maskUnits="userSpaceOnUse" x="0" y="0" width="640" height="413">
<rect width="640" height="413" fill="#D9D9D9"/>
</mask>
<g mask="url(#mask0_1420_219)">
<path d="M-84.4032 285.629C42.5669 308.762 148.809 280.666 186.058 263.726L190.832 278.321L-19.5496 397.959L-84.4032 285.629Z" fill="url(#paint0_linear_1420_219)" stroke="url(#paint1_linear_1420_219)"/>
<path d="M54.7948 526.727C98.2461 405.201 175.699 327.242 208.994 303.452L198.741 292.02L-10.0588 414.398L54.7948 526.727Z" fill="url(#paint2_linear_1420_219)" stroke="url(#paint3_linear_1420_219)"/>
<path d="M237.798 316.96L265.881 300.746L241.363 258.28L240.967 257.595L216.45 215.129L188.367 231.343L206.72 277.368L207.116 278.053L237.798 316.96Z" stroke="url(#paint4_linear_1420_219)"/>
<path d="M-191.464 101.776C-87.6026 250.033 98.9737 255.252 177.224 240.515L180.204 248.841C74.506 287.217 -52.7004 274.632 -98.5333 262.737L-191.464 101.776Z" fill="url(#paint5_linear_1420_219)" stroke="url(#paint6_linear_1420_219)"/>
<path d="M160.882 712.056C84.4184 547.981 174.557 383.001 226.444 322.602L220.725 315.859C134.64 388.208 80.583 505.484 67.9679 551.124L160.882 712.056Z" fill="url(#paint7_linear_1420_219)" stroke="url(#paint8_linear_1420_219)"/>
<path d="M232.457 174.838L346.156 109.193C242.784 106.043 180.854 137.659 162.81 153.86L232.457 174.838Z" stroke="url(#paint9_linear_1420_219)"/>
<path d="M308.382 306.345L422.082 240.701C373.124 331.798 314.779 369.624 291.726 377.149L308.382 306.345Z" stroke="url(#paint10_linear_1420_219)"/>
<path d="M454.37 200.142C530.766 155.304 560.732 94.8978 565.625 70.1549C541.75 62.0208 474.455 57.7689 397.425 101.511C320.396 145.253 252.543 184.854 228.246 199.187L256.322 247.817L257.113 249.187L285.19 297.818C309.751 283.942 377.973 244.98 454.37 200.142Z" fill="url(#paint11_linear_1420_219)" stroke="url(#paint12_linear_1420_219)"/>
<mask id="path-10-inside-1_1420_219" fill="white">
<path d="M423.064 160.679L416.736 149.718L427.697 143.389L434.025 154.35L444.987 148.021L438.658 137.059L427.696 143.387L421.367 132.426L454.251 113.44L460.58 124.402L449.619 130.73L455.948 141.692L466.91 135.364L460.581 124.403L471.543 118.074L477.872 129.036L466.91 135.365L473.238 146.325L462.277 152.654L455.949 141.693L444.987 148.022L451.315 158.982L440.354 165.311L434.026 154.35L423.064 160.679Z"/>
</mask>
<path d="M423.064 160.679L416.736 149.718L427.697 143.389L434.025 154.35L444.987 148.021L438.658 137.059L427.696 143.387L421.367 132.426L454.251 113.44L460.58 124.402L449.619 130.73L455.948 141.692L466.91 135.364L460.581 124.403L471.543 118.074L477.872 129.036L466.91 135.365L473.238 146.325L462.277 152.654L455.949 141.693L444.987 148.022L451.315 158.982L440.354 165.311L434.026 154.35L423.064 160.679Z" fill="url(#paint13_linear_1420_219)"/>
<path d="M423.064 160.679L422.198 161.179L422.698 162.045L423.564 161.545L423.064 160.679ZM416.736 149.718L416.236 148.852L415.37 149.352L415.87 150.218L416.736 149.718ZM427.697 143.389L428.563 142.889L428.063 142.023L427.197 142.523L427.697 143.389ZM434.025 154.35L433.159 154.85L433.659 155.716L434.525 155.216L434.025 154.35ZM444.987 148.021L445.487 148.887L446.353 148.387L445.853 147.521L444.987 148.021ZM438.658 137.059L439.524 136.559L439.024 135.693L438.158 136.193L438.658 137.059ZM427.696 143.387L426.83 143.887L427.33 144.753L428.196 144.253L427.696 143.387ZM421.367 132.426L420.867 131.56L420.001 132.06L420.501 132.926L421.367 132.426ZM454.251 113.44L455.117 112.94L454.617 112.074L453.751 112.574L454.251 113.44ZM460.58 124.402L461.08 125.268L461.946 124.768L461.446 123.902L460.58 124.402ZM449.619 130.73L449.119 129.864L448.253 130.364L448.753 131.23L449.619 130.73ZM455.948 141.692L455.082 142.192L455.582 143.058L456.448 142.558L455.948 141.692ZM466.91 135.364L467.41 136.23L468.276 135.73L467.776 134.864L466.91 135.364ZM460.581 124.403L460.081 123.537L459.215 124.037L459.715 124.903L460.581 124.403ZM471.543 118.074L472.409 117.574L471.909 116.708L471.043 117.208L471.543 118.074ZM477.872 129.036L478.372 129.902L479.238 129.402L478.738 128.536L477.872 129.036ZM466.91 135.365L466.41 134.499L465.544 134.999L466.044 135.865L466.91 135.365ZM473.238 146.325L473.738 147.191L474.604 146.691L474.104 145.825L473.238 146.325ZM462.277 152.654L461.411 153.154L461.911 154.02L462.777 153.52L462.277 152.654ZM455.949 141.693L456.815 141.193L456.315 140.327L455.449 140.827L455.949 141.693ZM444.987 148.022L444.487 147.156L443.621 147.656L444.121 148.522L444.987 148.022ZM451.315 158.982L451.815 159.848L452.681 159.348L452.181 158.482L451.315 158.982ZM440.354 165.311L439.488 165.811L439.988 166.677L440.854 166.177L440.354 165.311ZM434.026 154.35L434.892 153.85L434.392 152.984L433.526 153.484L434.026 154.35ZM423.064 160.679L423.93 160.179L417.602 149.218L416.736 149.718L415.87 150.218L422.198 161.179L423.064 160.679ZM416.736 149.718L417.236 150.584L428.197 144.255L427.697 143.389L427.197 142.523L416.236 148.852L416.736 149.718ZM427.697 143.389L426.831 143.889L433.159 154.85L434.025 154.35L434.891 153.85L428.563 142.889L427.697 143.389ZM434.025 154.35L434.525 155.216L445.487 148.887L444.987 148.021L444.487 147.155L433.525 153.484L434.025 154.35ZM444.987 148.021L445.853 147.521L439.524 136.559L438.658 137.059L437.792 137.559L444.121 148.521L444.987 148.021ZM438.658 137.059L438.158 136.193L427.196 142.521L427.696 143.387L428.196 144.253L439.158 137.925L438.658 137.059ZM427.696 143.387L428.562 142.887L422.233 131.926L421.367 132.426L420.501 132.926L426.83 143.887L427.696 143.387ZM421.367 132.426L421.867 133.292L454.751 114.306L454.251 113.44L453.751 112.574L420.867 131.56L421.367 132.426ZM454.251 113.44L453.385 113.94L459.714 124.902L460.58 124.402L461.446 123.902L455.117 112.94L454.251 113.44ZM460.58 124.402L460.08 123.536L449.119 129.864L449.619 130.73L450.119 131.596L461.08 125.268L460.58 124.402ZM449.619 130.73L448.753 131.23L455.082 142.192L455.948 141.692L456.814 141.192L450.485 130.23L449.619 130.73ZM455.948 141.692L456.448 142.558L467.41 136.23L466.91 135.364L466.41 134.498L455.448 140.826L455.948 141.692ZM466.91 135.364L467.776 134.864L461.448 123.903L460.581 124.403L459.715 124.903L466.044 135.864L466.91 135.364ZM460.581 124.403L461.081 125.269L472.043 118.941L471.543 118.074L471.043 117.208L460.081 123.537L460.581 124.403ZM471.543 118.074L470.677 118.574L477.006 129.536L477.872 129.036L478.738 128.536L472.409 117.574L471.543 118.074ZM477.872 129.036L477.372 128.17L466.41 134.499L466.91 135.365L467.41 136.231L478.372 129.902L477.872 129.036ZM466.91 135.365L466.044 135.865L472.372 146.825L473.238 146.325L474.104 145.825L467.776 134.865L466.91 135.365ZM473.238 146.325L472.738 145.459L461.777 151.788L462.277 152.654L462.777 153.52L473.738 147.191L473.238 146.325ZM462.277 152.654L463.143 152.154L456.815 141.193L455.949 141.693L455.083 142.193L461.411 153.154L462.277 152.654ZM455.949 141.693L455.449 140.827L444.487 147.156L444.987 148.022L445.487 148.888L456.449 142.559L455.949 141.693ZM444.987 148.022L444.121 148.522L450.449 159.482L451.315 158.982L452.181 158.482L445.853 147.522L444.987 148.022ZM451.315 158.982L450.815 158.116L439.854 164.445L440.354 165.311L440.854 166.177L451.815 159.848L451.315 158.982ZM440.354 165.311L441.22 164.811L434.892 153.85L434.026 154.35L433.16 154.85L439.488 165.811L440.354 165.311ZM434.026 154.35L433.526 153.484L422.564 159.813L423.064 160.679L423.564 161.545L434.526 155.216L434.026 154.35Z" fill="url(#paint14_linear_1420_219)" mask="url(#path-10-inside-1_1420_219)"/>
</g>
<defs>
<linearGradient id="paint0_linear_1420_219" x1="160.75" y1="219.89" x2="-393.197" y2="489.482" gradientUnits="userSpaceOnUse">
<stop stop-color="white" stop-opacity="0"/>
<stop offset="1" stop-color="#D9D9D9"/>
</linearGradient>
<linearGradient id="paint1_linear_1420_219" x1="160.75" y1="219.89" x2="-51.5809" y2="342.479" gradientUnits="userSpaceOnUse">
<stop stop-color="white" stop-opacity="0"/>
<stop offset="1" stop-color="white"/>
</linearGradient>
<linearGradient id="paint2_linear_1420_219" x1="234.303" y1="347.288" x2="-128.252" y2="682.638" gradientUnits="userSpaceOnUse">
<stop stop-color="white" stop-opacity="0"/>
<stop offset="1" stop-color="#D9D9D9"/>
</linearGradient>
<linearGradient id="paint3_linear_1420_219" x1="234.303" y1="347.288" x2="21.9726" y2="469.877" gradientUnits="userSpaceOnUse">
<stop stop-color="white" stop-opacity="0"/>
<stop offset="1" stop-color="white"/>
</linearGradient>
<linearGradient id="paint4_linear_1420_219" x1="241.165" y1="257.938" x2="206.918" y2="277.71" gradientUnits="userSpaceOnUse">
<stop stop-color="white" stop-opacity="0.2"/>
<stop offset="0.490385" stop-color="#999999" stop-opacity="0.5"/>
<stop offset="1" stop-color="white"/>
</linearGradient>
<linearGradient id="paint5_linear_1420_219" x1="103.275" y1="112.432" x2="-388.968" y2="117.174" gradientUnits="userSpaceOnUse">
<stop stop-color="white" stop-opacity="0"/>
<stop offset="1" stop-color="#D9D9D9"/>
</linearGradient>
<linearGradient id="paint6_linear_1420_219" x1="103.275" y1="112.432" x2="-113.165" y2="237.394" gradientUnits="userSpaceOnUse">
<stop stop-color="white" stop-opacity="0"/>
<stop offset="1" stop-color="white"/>
</linearGradient>
<linearGradient id="paint7_linear_1420_219" x1="206" y1="360.5" x2="101.4" y2="836.81" gradientUnits="userSpaceOnUse">
<stop stop-color="white" stop-opacity="0"/>
<stop offset="1" stop-color="#D9D9D9"/>
</linearGradient>
<linearGradient id="paint8_linear_1420_219" x1="300.393" y1="450.686" x2="82.5831" y2="576.439" gradientUnits="userSpaceOnUse">
<stop stop-color="white" stop-opacity="0"/>
<stop offset="1" stop-color="white"/>
</linearGradient>
<linearGradient id="paint9_linear_1420_219" x1="332.5" y1="85.5389" x2="175.649" y2="176.097" gradientUnits="userSpaceOnUse">
<stop stop-color="white" stop-opacity="0.9"/>
<stop offset="0.485577" stop-color="#999999" stop-opacity="0.1"/>
<stop offset="1" stop-color="#999999"/>
</linearGradient>
<linearGradient id="paint10_linear_1420_219" x1="435.739" y1="264.355" x2="278.888" y2="354.913" gradientUnits="userSpaceOnUse">
<stop stop-color="white" stop-opacity="0.9"/>
<stop offset="0.485577" stop-color="#999999" stop-opacity="0.1"/>
<stop offset="1" stop-color="#999999"/>
</linearGradient>
<linearGradient id="paint11_linear_1420_219" x1="789.31" y1="-58.0765" x2="377.662" y2="179.588" gradientUnits="userSpaceOnUse">
<stop stop-color="#D9D9D9"/>
<stop offset="1" stop-color="white" stop-opacity="0"/>
</linearGradient>
<linearGradient id="paint12_linear_1420_219" x1="565.625" y1="70.1549" x2="256.718" y2="248.502" gradientUnits="userSpaceOnUse">
<stop stop-color="#FCFCFC"/>
<stop offset="0.230769" stop-color="white"/>
<stop offset="0.6875" stop-color="white" stop-opacity="0.2"/>
<stop offset="1" stop-color="white"/>
</linearGradient>
<linearGradient id="paint13_linear_1420_219" x1="474.707" y1="123.554" x2="419.899" y2="155.197" gradientUnits="userSpaceOnUse">
<stop stop-color="#FBFBFB"/>
<stop offset="1" stop-color="#E3E3E3"/>
</linearGradient>
<linearGradient id="paint14_linear_1420_219" x1="474.707" y1="123.554" x2="419.899" y2="155.197" gradientUnits="userSpaceOnUse">
<stop stop-color="#EBEBEB"/>
<stop offset="1" stop-color="white"/>
</linearGradient>
</defs>
</svg>
