<svg width="33" height="33" viewBox="0 0 33 33" fill="none" xmlns="http://www.w3.org/2000/svg">
<path d="M33 3.14539H31.4325V29.8651H33V3.14539Z" fill="#16DE93"/>
<path d="M31.4325 29.865H29.8547V31.4325H31.4325V29.865Z" fill="#16DE93"/>
<path d="M31.4325 1.57776H29.8547V3.14526H31.4325V1.57776Z" fill="#16DE93"/>
<path d="M29.8547 31.4325H3.14531V33H29.8547V31.4325Z" fill="#16DE93"/>
<path d="M18.8513 18.8616L20.4291 18.8616L20.4291 20.4291L21.9966 20.4291L21.9966 22.007L23.5641 22.007L23.5641 20.4291L25.1419 20.4291L25.1419 18.8616L26.7094 18.8616L26.7094 17.2941L28.2872 17.2941L28.2872 15.7163L25.1419 15.7163L25.1419 7.85821L20.4291 7.85821L20.4291 15.7163L17.2838 15.7163L17.2838 17.2941L18.8513 17.2941L18.8513 18.8616Z" fill="#16DE93"/>
<path d="M26.7197 25.1418H6.29062V26.7197H26.7197V25.1418Z" fill="#16DE93"/>
<path d="M7.85813 22.0069H12.5709V14.1488H15.7163V12.571H14.1488V11.0035H12.5709V9.43597H11.0034V7.85815H9.43594V9.43597H7.85813V11.0035H6.29063V12.571H4.71281V14.1488H7.85813V22.0069Z" fill="#16DE93"/>
<path d="M29.8547 0H3.14531V1.57781H29.8547V0Z" fill="#16DE93"/>
<path d="M3.1453 29.865H1.5778V31.4325H3.1453V29.865Z" fill="#16DE93"/>
<path d="M3.1453 1.57776H1.5778V3.14526H3.1453V1.57776Z" fill="#16DE93"/>
<path d="M1.57781 3.14539H0V29.8651H1.57781V3.14539Z" fill="#16DE93"/>
</svg>
