<svg width="33" height="33" viewBox="0 0 33 33" fill="none" xmlns="http://www.w3.org/2000/svg">
<path d="M33 3.14526H31.4325V29.8649H33V3.14526Z" fill="#16DE93"/>
<path d="M31.4325 29.865H29.8547V31.4325H31.4325V29.865Z" fill="#16DE93"/>
<path d="M31.4325 1.57776H29.8547V3.14526H31.4325V1.57776Z" fill="#16DE93"/>
<path d="M29.8547 31.4325H3.14532V33H29.8547V31.4325Z" fill="#16DE93"/>
<path d="M29.8547 0H3.14532V1.57781H29.8547V0Z" fill="#16DE93"/>
<path d="M3.14532 29.865H1.57782V31.4325H3.14532V29.865Z" fill="#16DE93"/>
<path d="M3.14532 1.57776H1.57782V3.14526H3.14532V1.57776Z" fill="#16DE93"/>
<path d="M1.57781 3.14526H0V29.8649H1.57781V3.14526Z" fill="#16DE93"/>
<path d="M9.87028 15.0112C10.3715 14.9977 10.8736 15.0143 11.3752 15.004C11.5435 15.0004 11.5899 15.0584 11.5873 15.2219C11.5798 15.7321 11.5944 16.2427 11.5802 16.7524C11.5749 16.9559 11.6422 17.0036 11.8321 17.0023C12.9904 16.9942 14.1486 17.0014 15.3069 16.9946C15.4711 16.9937 15.5212 17.0397 15.5203 17.209C15.5136 18.4018 15.5145 19.595 15.5203 20.7878C15.5212 20.9355 15.4773 20.9846 15.3339 20.9832C14.8176 20.9778 14.3009 20.9751 13.7847 20.9855C13.6014 20.9891 13.5633 20.9116 13.5659 20.7455C13.573 20.2276 13.5637 19.7098 13.5704 19.1925C13.5726 19.0281 13.519 18.9714 13.3534 18.9723C12.1806 18.9781 11.0073 18.9777 9.83442 18.9723C9.68256 18.9718 9.62633 19.0177 9.62854 19.1758C9.63518 19.7161 9.63518 20.2565 9.6281 20.7963C9.62588 20.9512 9.67326 21.0057 9.82911 21.003C10.3232 20.9945 10.8182 21.0134 11.3119 20.9936C11.5465 20.9841 11.5953 21.0679 11.5886 21.2867C11.574 21.7816 11.5922 22.2773 11.5802 22.7722C11.5753 22.9649 11.6431 23.0149 11.8219 23.0117C12.3161 23.0032 12.8111 23.0239 13.3047 23.0063C13.523 22.9987 13.5549 23.0824 13.5505 23.2747C13.5385 23.7547 13.5465 24.2351 13.5469 24.7151C13.5469 24.9075 13.6451 25.0039 13.8413 25.0042C14.3208 25.0042 14.8008 25.0146 15.2798 24.9993C15.4822 24.9929 15.5269 25.0618 15.522 25.255C15.5096 25.7647 15.5247 26.2753 15.5158 26.7855C15.5127 26.9571 15.5725 27.0021 15.7337 26.9994C16.2499 26.9904 16.7666 26.9886 17.2829 26.9994C17.4604 27.003 17.5118 26.9404 17.5091 26.7675C17.5007 26.2425 17.5113 25.717 17.502 25.192C17.4994 25.0429 17.5401 24.9993 17.6862 25.0011C18.21 25.0087 18.7338 24.9979 19.2575 25.0074C19.424 25.0105 19.4723 24.9551 19.4692 24.7885C19.4599 24.2784 19.4741 23.7677 19.4617 23.258C19.4572 23.068 19.4966 22.9978 19.7012 23.005C20.1802 23.0225 20.6602 23.0113 21.1397 23.0104C21.4253 23.0099 21.4262 23.009 21.427 22.7096C21.4279 22.2143 21.4346 21.719 21.4239 21.2241C21.42 21.0431 21.4815 20.9945 21.652 20.9976C22.1536 21.0071 22.6552 20.9958 23.1569 21.0035C23.3158 21.0062 23.3769 20.9625 23.376 20.7896C23.3698 19.5891 23.3694 18.3887 23.376 17.1883C23.3769 17.0081 23.3048 16.9789 23.152 16.9811C22.6504 16.9888 22.1483 16.9775 21.6471 16.9888C21.4695 16.9928 21.4213 16.933 21.4253 16.7582C21.4359 16.2634 21.4297 15.7681 21.4288 15.2728C21.4288 14.9805 21.4275 14.9796 21.1357 14.9792C19.9996 14.9787 18.8635 14.9765 17.7274 14.9819C17.5614 14.9828 17.4918 14.9396 17.4927 14.7568C17.4989 13.5712 17.4985 12.3856 17.4927 11.2004C17.4918 11.0388 17.5507 10.9978 17.6995 10.9996C18.2087 11.0068 18.7178 11.0095 19.2266 10.9978C19.3939 10.9942 19.4391 11.0428 19.436 11.2108C19.4258 11.7358 19.4364 12.2613 19.4311 12.7863C19.4293 12.9457 19.4776 13.0151 19.6454 13.0142C20.8183 13.0092 21.9916 13.0092 23.1644 13.0142C23.3304 13.0151 23.3783 12.9556 23.3756 12.7908C23.3663 12.2735 23.3645 11.7552 23.3756 11.2378C23.38 11.0442 23.3278 10.9735 23.1285 10.9789C22.6495 10.992 22.1695 10.9749 21.69 10.9875C21.4935 10.9924 21.4173 10.9424 21.4235 10.7268C21.4386 10.217 21.4235 9.70642 21.4306 9.19625C21.4332 9.03145 21.3819 8.97337 21.2154 8.97607C20.6992 8.98507 20.1825 8.97427 19.6662 8.98192C19.5126 8.98417 19.4617 8.93419 19.4639 8.77704C19.4714 8.25202 19.4608 7.72654 19.4683 7.20152C19.4705 7.03581 19.4218 6.98088 19.254 6.98448C18.7378 6.99529 18.2211 6.98223 17.7048 6.99259C17.5357 6.99619 17.4896 6.9372 17.4918 6.77375C17.4994 6.24873 17.491 5.72325 17.4963 5.19822C17.4976 5.06044 17.4702 4.9974 17.3156 5.0001C16.7848 5.00911 16.253 5.01001 15.7222 5.0001C15.5486 4.99695 15.5127 5.06719 15.515 5.22614C15.5225 5.73631 15.5088 6.24692 15.5216 6.75664C15.5265 6.94981 15.4618 6.99574 15.2825 6.99169C14.7809 6.98043 14.2792 6.99619 13.7776 6.98358C13.5881 6.97863 13.5416 7.04392 13.546 7.22808C13.5575 7.73825 13.5438 8.24842 13.5513 8.75858C13.554 8.92293 13.5048 8.98327 13.3375 8.98057C12.8288 8.97201 12.3192 8.98372 11.8104 8.97427C11.64 8.97111 11.5775 9.01974 11.5815 9.20166C11.5926 9.71182 11.5771 10.2224 11.5899 10.7322C11.5948 10.9271 11.5421 10.9942 11.3442 10.9893C10.8355 10.9762 10.3263 10.9893 9.81715 10.9816C9.6737 10.9794 9.62588 11.0226 9.62765 11.173C9.63518 11.7732 9.63075 12.3734 9.63075 12.9736C9.63075 13.5662 9.6374 14.1592 9.62677 14.7518C9.62323 14.9427 9.67016 15.0161 9.87161 15.0107L9.87028 15.0112ZM17.4932 18.9943C17.4932 18.4094 17.4989 17.8245 17.4896 17.24C17.487 17.0617 17.5268 16.9883 17.7199 16.9937C18.2135 17.0072 18.7076 17.0036 19.2013 16.9955C19.3656 16.9928 19.4364 17.0302 19.4351 17.2171C19.4276 18.3941 19.4276 19.5711 19.4351 20.7482C19.4364 20.9436 19.362 20.9877 19.1876 20.9846C18.701 20.976 18.2144 20.9742 17.7278 20.9855C17.5476 20.9895 17.4843 20.94 17.4883 20.7486C17.4994 20.1642 17.4923 19.5792 17.4923 18.9943H17.4932ZM13.5673 11.1869C13.5673 11.055 13.608 10.9996 13.7448 11.001C14.2752 11.0068 14.8057 11.0086 15.3361 11.001C15.491 10.9987 15.5185 11.0672 15.5176 11.2027C15.5132 11.802 15.5158 12.4013 15.5158 13.0011H15.5172C15.5172 13.5856 15.5132 14.17 15.5198 14.7545C15.5216 14.9107 15.491 14.9855 15.3153 14.9819C14.7924 14.972 14.269 14.9751 13.7462 14.981C13.6155 14.9823 13.5651 14.9481 13.5655 14.8058C13.5704 13.5995 13.5695 12.3932 13.5668 11.1869H13.5673Z" fill="#16DE93"/>
</svg>
