<svg width="10" height="10" viewBox="0 0 10 10" fill="none" xmlns="http://www.w3.org/2000/svg">
<path d="M1.76448 4.70605H1.17627V5.2943H1.76448V4.70605Z" fill="#16DE93"/>
<path d="M2.3531 5.29395H1.76489V5.8822H2.3531V5.29395Z" fill="#16DE93"/>
<path d="M2.3531 7.64705V7.05884H1.76489V7.64705V8.2353H2.3531V7.64705Z" fill="#16DE93"/>
<path d="M1.76459 3.52941H2.3528H2.94105H3.5293V2.94116H2.94105H2.35284H1.76459H1.17634H0.588135V3.52941H1.17634H1.76459Z" fill="#16DE93"/>
<path d="M4.70613 1.17634V0.588135H4.11792V1.17634V1.76459H4.70613V1.17634Z" fill="#16DE93"/>
<path d="M4.11775 2.35314V1.76489H3.52954V2.35314V2.94135H4.11775V2.35314Z" fill="#16DE93"/>
<path d="M2.94124 6.47033V5.88208H2.35303V6.47033V7.05858H2.94124V6.47033Z" fill="#16DE93"/>
<path d="M5.88215 8.23511H5.29395V8.82336H5.8822H6.4704V8.23511H5.88215Z" fill="#16DE93"/>
<path d="M7.05867 8.82373H6.47046V9.41198H7.05867V8.82373Z" fill="#16DE93"/>
<path d="M9.41193 3.52942V2.94117H8.82372H8.23547H7.64722H7.05901H6.47076V2.35296V1.76471H5.88255V1.17646V0.58825H5.2943V0H4.70605V0.58825H5.2943V1.17646V1.76471H5.88251V2.35296V2.94117H6.47076V3.52942H7.05901H7.64722H8.23547H8.82372H9.41193V4.11763H8.82372V4.70588H8.23547V5.29413H7.64722V5.88233H7.05901V6.47058V7.05883H7.64722V7.64704V8.23529H8.23547V8.82354V9.41175H7.64722H7.05901V10H7.64722H8.23547V9.41175H8.82372V8.82354V8.23529H8.23547V7.64704V7.05883H7.64722V6.47058V5.88233H8.23547V5.29413H8.82372V4.70588H9.41193V4.11763H10.0002V3.52942H9.41193Z" fill="#16DE93"/>
<path d="M1.76452 8.23511H1.17627V8.82336V9.41157H1.76452V8.82336V8.23511Z" fill="#16DE93"/>
<path d="M1.17634 4.11768H0.588135V4.70593H1.17634V4.11768Z" fill="#16DE93"/>
<path d="M0.588208 3.52954H0V4.11779H0.588208V3.52954Z" fill="#16DE93"/>
<path d="M4.70606 7.64697V8.23522H4.11781H3.5296V8.82347H2.94135V9.41168H2.3531H1.76489V9.99993H2.35314H2.94135V9.41168H3.5296V8.82347H4.11785H4.70606V8.23522H5.29431V7.64697H4.70606Z" fill="#16DE93"/>
</svg>
