<svg width="10" height="11" viewBox="0 0 10 11" fill="none" xmlns="http://www.w3.org/2000/svg">
<path d="M1.76448 5.2561H1.17627V5.84435H1.76448V5.2561Z" fill="#8A8A8E"/>
<path d="M2.3531 5.84399H1.76489V6.43224H2.3531V5.84399Z" fill="#8A8A8E"/>
<path d="M2.3531 8.1971V7.60889H1.76489V8.1971V8.78534H2.3531V8.1971Z" fill="#8A8A8E"/>
<path d="M1.76459 4.07946H2.3528H2.94105H3.5293V3.49121H2.94105H2.35284H1.76459H1.17634H0.588135V4.07946H1.17634H1.76459Z" fill="#8A8A8E"/>
<path d="M4.70613 1.72639V1.13818H4.11792V1.72639V2.31464H4.70613V1.72639Z" fill="#8A8A8E"/>
<path d="M4.11775 2.90319V2.31494H3.52954V2.90319V3.4914H4.11775V2.90319Z" fill="#8A8A8E"/>
<path d="M2.94124 7.02038V6.43213H2.35303V7.02038V7.60863H2.94124V7.02038Z" fill="#8A8A8E"/>
<path d="M5.88215 8.78516H5.29395V9.37341H5.8822H6.4704V8.78516H5.88215Z" fill="#8A8A8E"/>
<path d="M7.05867 9.37378H6.47046V9.96203H7.05867V9.37378Z" fill="#8A8A8E"/>
<path d="M9.41193 4.07947V3.49122H8.82372H8.23547H7.64722H7.05901H6.47076V2.90301V2.31476H5.88255V1.72651V1.1383H5.2943V0.550049H4.70605V1.1383H5.2943V1.72651V2.31476H5.88251V2.90301V3.49122H6.47076V4.07947H7.05901H7.64722H8.23547H8.82372H9.41193V4.66767H8.82372V5.25592H8.23547V5.84417H7.64722V6.43238H7.05901V7.02063V7.60888H7.64722V8.19709V8.78534H8.23547V9.37359V9.9618H7.64722H7.05901V10.55H7.64722H8.23547V9.9618H8.82372V9.37359V8.78534H8.23547V8.19709V7.60888H7.64722V7.02063V6.43238H8.23547V5.84417H8.82372V5.25592H9.41193V4.66767H10.0002V4.07947H9.41193Z" fill="#8A8A8E"/>
<path d="M1.76452 8.78516H1.17627V9.37341V9.96161H1.76452V9.37341V8.78516Z" fill="#8A8A8E"/>
<path d="M1.17634 4.66772H0.588135V5.25597H1.17634V4.66772Z" fill="#8A8A8E"/>
<path d="M0.588208 4.07959H0V4.66784H0.588208V4.07959Z" fill="#8A8A8E"/>
<path d="M4.70606 8.19702V8.78527H4.11781H3.5296V9.37352H2.94135V9.96173H2.3531H1.76489V10.55H2.35314H2.94135V9.96173H3.5296V9.37352H4.11785H4.70606V8.78527H5.29431V8.19702H4.70606Z" fill="#8A8A8E"/>
</svg>
