<svg width="13" height="14" viewBox="0 0 13 14" fill="none" xmlns="http://www.w3.org/2000/svg">
<path d="M0 8.55518V3.8925C0.0528496 3.86623 0.109671 3.87601 0.164964 3.8757C0.566071 3.87478 0.967484 3.86929 1.36829 3.87845C1.51461 3.88181 1.56991 3.85371 1.56441 3.69057C1.55066 3.27969 1.5638 2.86789 1.55738 2.4567C1.55555 2.34276 1.58854 2.30915 1.7028 2.31099C2.11918 2.3174 2.53586 2.3064 2.95194 2.3174C3.09919 2.32137 3.12699 2.27036 3.12454 2.13747C3.11721 1.72628 3.12637 1.31479 3.11904 0.903599C3.1169 0.780792 3.15723 0.752687 3.27423 0.753298C4.73691 0.756964 6.19929 0.757575 7.66197 0.752687C7.78936 0.752382 7.81105 0.796372 7.80952 0.908792C7.80402 1.33006 7.81166 1.75194 7.80463 2.17321C7.80249 2.29082 7.84037 2.3174 7.95157 2.31587C8.37284 2.30976 8.79472 2.31862 9.21599 2.31038C9.34613 2.30793 9.37759 2.35009 9.37546 2.47381C9.36843 2.89508 9.37576 3.31666 9.37087 3.73823C9.36965 3.84332 9.39959 3.87876 9.50743 3.87723C9.9287 3.87173 10.3506 3.87906 10.7718 3.87265C10.8922 3.87081 10.938 3.89647 10.9377 4.02967C10.9328 5.49204 10.9335 6.95472 10.9371 8.4171C10.9371 8.53013 10.9084 8.56496 10.7929 8.56312C10.3665 8.5564 9.9397 8.56312 9.51323 8.55854C9.41303 8.55763 9.36904 8.5787 9.37057 8.69112C9.37637 9.12278 9.37668 9.55444 9.37057 9.98609C9.36904 10.101 9.41548 10.1175 9.51415 10.1162C9.94061 10.112 10.3674 10.1184 10.7938 10.1116C10.9108 10.1098 10.9389 10.148 10.9374 10.2595C10.9313 10.6808 10.9389 11.1027 10.9325 11.5239C10.9307 11.6403 10.9588 11.6816 11.0825 11.6791C11.4937 11.6715 11.9052 11.6809 12.3164 11.6736C12.4493 11.6712 12.4994 11.6993 12.4963 11.8462C12.4866 12.313 12.4939 12.7804 12.4948 13.2475H10.9405C10.9142 13.1946 10.924 13.1378 10.9237 13.0825C10.9228 12.6762 10.9185 12.2699 10.9261 11.8636C10.9286 11.7313 10.9011 11.6797 10.7538 11.6837C10.3377 11.6947 9.92106 11.6837 9.50468 11.6901C9.39043 11.6919 9.35743 11.6583 9.35927 11.5444C9.36568 11.1228 9.35835 10.7012 9.36415 10.28C9.36568 10.1663 9.34277 10.1202 9.21599 10.123C8.79472 10.1312 8.37284 10.1297 7.95157 10.1236C7.83854 10.122 7.80341 10.1535 7.80524 10.2687C7.81196 10.6951 7.80524 11.1219 7.80983 11.5484C7.81074 11.6486 7.78997 11.6904 7.67724 11.6901C6.20448 11.6864 4.73172 11.6867 3.25896 11.6901C3.15295 11.6901 3.11904 11.6593 3.12026 11.5529C3.12546 11.1466 3.1224 10.7403 3.1224 10.334C3.1224 10.1956 3.0555 10.1263 2.9217 10.1263C2.5154 10.1263 2.1091 10.1226 1.7028 10.1288C1.58854 10.1306 1.55616 10.0955 1.55799 9.98151C1.56471 9.56024 1.55586 9.13836 1.56349 8.71709C1.56594 8.5894 1.52775 8.5561 1.40219 8.55763C0.935102 8.56343 0.468009 8.55671 0.000916467 8.55488L0 8.55518ZM5.47284 10.115C6.1889 10.115 6.90497 10.1113 7.62073 10.1184C7.76095 10.1199 7.81258 10.0948 7.80799 9.93996C7.79577 9.52389 7.80738 9.1072 7.80127 8.69082C7.79974 8.58359 7.83121 8.55365 7.93783 8.55488C8.36429 8.56068 8.79106 8.55365 9.21752 8.55976C9.32688 8.56129 9.36477 8.53838 9.36446 8.41954C9.36018 6.95717 9.35988 5.49449 9.36446 4.03211C9.36477 3.90564 9.322 3.88303 9.20866 3.88456C8.78739 3.89036 8.36582 3.88273 7.94424 3.88975C7.82754 3.89159 7.79944 3.85523 7.80127 3.74312C7.80769 3.31666 7.80097 2.88989 7.80585 2.46343C7.80708 2.3617 7.78508 2.3226 7.67358 2.3229C6.20601 2.32657 4.73844 2.32657 3.27087 2.3226C3.15051 2.32229 3.12973 2.36506 3.13096 2.47228C3.13615 2.89875 3.13004 3.32552 3.13523 3.75198C3.13646 3.8589 3.10346 3.89067 2.99715 3.88945C2.58077 3.88395 2.16408 3.89495 1.74801 3.88334C1.59435 3.87906 1.56746 3.93038 1.56777 4.07121C1.57296 5.50823 1.57235 6.94525 1.56838 8.38258C1.56807 8.51486 1.59313 8.56587 1.74037 8.5619C2.15645 8.5506 2.57313 8.5619 2.98952 8.55549C3.10255 8.55365 3.13768 8.58329 3.13554 8.69907C3.12851 9.11026 3.1392 9.52175 3.12943 9.93294C3.12607 10.075 3.15631 10.1217 3.30906 10.1196C4.03001 10.1104 4.75127 10.1156 5.47222 10.1156L5.47284 10.115Z" fill="#56565B"/>
</svg>
