<svg width="14" height="15" viewBox="0 0 14 15" fill="none" xmlns="http://www.w3.org/2000/svg">
<path d="M13.6499 10.2869H13.0283V12.7609H13.6499V10.2869Z" fill="#8A8A8E"/>
<path d="M13.7998 10.1365V12.9109H12.8779V10.1365H13.7998ZM13.1787 12.6111H13.5V10.4373H13.1787V12.6111Z" fill="#8A8A8E"/>
<path d="M13.0286 12.761H12.4111V13.3826H13.0286V12.761Z" fill="#8A8A8E"/>
<path d="M13.1787 12.6106V13.5325H12.2607V12.6106H13.1787ZM12.5615 13.2327H12.8789V12.9114H12.5615V13.2327Z" fill="#8A8A8E"/>
<path d="M13.0286 9.66528H12.4111V10.2869H13.0286V9.66528Z" fill="#8A8A8E"/>
<path d="M13.1787 9.51489V10.4368H12.2607V9.51489H13.1787ZM12.5615 10.137H12.8789V9.81567H12.5615V10.137Z" fill="#8A8A8E"/>
<path d="M12.4112 13.3824H9.93311V14H12.4112V13.3824Z" fill="#8A8A8E"/>
<path d="M12.561 13.2321V14.15H9.78271V13.2321H12.561ZM10.0835 13.8502H12.2612V13.5328H10.0835V13.8502Z" fill="#8A8A8E"/>
<path d="M12.4112 9.66518V9.04768H10.5547V8.43018H9.93311V9.66518H12.4112Z" fill="#8A8A8E"/>
<path d="M10.7046 8.27979V8.89795H12.561V9.81494H9.78271V8.27979H10.7046ZM10.0835 9.51514H12.2612V9.19775H10.4048V8.58057H10.0835V9.51514Z" fill="#8A8A8E"/>
<path d="M9.93293 12.761H9.31543V13.3826H9.93293V12.761Z" fill="#8A8A8E"/>
<path d="M10.083 12.6106V13.5325H9.16504V12.6106H10.083ZM9.46582 13.2327H9.7832V12.9114H9.46582V13.2327Z" fill="#8A8A8E"/>
<path d="M9.93293 9.66528H9.31543V10.2869H9.93293V9.66528Z" fill="#8A8A8E"/>
<path d="M10.083 9.51489V10.4368H9.16504V9.51489H10.083ZM9.46582 10.137H9.7832V9.81567H9.46582V10.137Z" fill="#8A8A8E"/>
<path d="M9.93293 7.19141H9.31543V8.43048H9.93293V7.19141Z" fill="#8A8A8E"/>
<path d="M10.083 7.04102V8.58008H9.16504V7.04102H10.083ZM9.46582 8.28027H9.7832V7.3418H9.46582V8.28027Z" fill="#8A8A8E"/>
<path d="M9.31519 10.2869H8.69362V11.5219H5.60204V10.2869H4.98047V12.7609H5.60204V12.1434H8.69362V12.7609H9.31519V10.2869Z" fill="#8A8A8E"/>
<path d="M5.75195 10.1365V11.3718H8.54395V10.1365H9.46484V12.9109H8.54395V12.2937H5.75195V12.9109H4.83008V10.1365H5.75195ZM5.13086 12.6111H5.45215V11.9939H8.84375V12.6111H9.16504V10.4373H8.84375V11.6716H5.45215V10.4373H5.13086V12.6111Z" fill="#8A8A8E"/>
<path d="M9.31493 5.95215H8.69336V7.19122H9.31493V5.95215Z" fill="#8A8A8E"/>
<path d="M9.46484 5.80176V7.34082H8.54297V5.80176H9.46484ZM8.84375 7.04102H9.16504V6.10254H8.84375V7.04102Z" fill="#8A8A8E"/>
<path d="M9.31493 2.23926H8.69336V4.71334H9.31493V2.23926Z" fill="#8A8A8E"/>
<path d="M9.46484 2.08887V4.86328H8.54297V2.08887H9.46484ZM8.84375 4.56348H9.16504V2.38965H8.84375V4.56348Z" fill="#8A8A8E"/>
<path d="M8.69368 1.61768H8.07617V2.23924H8.69368V1.61768Z" fill="#8A8A8E"/>
<path d="M8.84375 1.46729V2.38916H7.92578V1.46729H8.84375ZM8.22656 2.08936H8.54395V1.76807H8.22656V2.08936Z" fill="#8A8A8E"/>
<path d="M8.07613 1H5.60205V1.6175H8.07613V1Z" fill="#8A8A8E"/>
<path d="M8.22607 0.849609V1.76758H5.45166V0.849609H8.22607ZM5.75244 1.46777H7.92627V1.15039H5.75244V1.46777Z" fill="#8A8A8E"/>
<path d="M8.69362 5.95221V4.71313H8.07612V5.3347H5.60204V4.71313H4.98047V5.95221H8.69362Z" fill="#8A8A8E"/>
<path d="M5.75195 4.56274V5.18481H7.92578V4.56274H8.84375V6.10181H4.83008V4.56274H5.75195ZM5.13086 5.802H8.54395V4.86353H8.22656V5.48462H5.45215V4.86353H5.13086V5.802Z" fill="#8A8A8E"/>
<path d="M5.60204 1.61768H4.98047V2.23924H5.60204V1.61768Z" fill="#8A8A8E"/>
<path d="M5.75195 1.46729V2.38916H4.83008V1.46729H5.75195ZM5.13086 2.08936H5.45215V1.76807H5.13086V2.08936Z" fill="#8A8A8E"/>
<path d="M4.9803 12.761H4.36279V13.3826H4.9803V12.761Z" fill="#8A8A8E"/>
<path d="M5.13037 12.6106V13.5325H4.2124V12.6106H5.13037ZM4.51318 13.2327H4.83057V12.9114H4.51318V13.2327Z" fill="#8A8A8E"/>
<path d="M4.9803 9.66528H4.36279V10.2869H4.9803V9.66528Z" fill="#8A8A8E"/>
<path d="M5.13037 9.51489V10.4368H4.2124V9.51489H5.13037ZM4.51318 10.137H4.83057V9.81567H4.51318V10.137Z" fill="#8A8A8E"/>
<path d="M4.9803 5.95215H4.36279V7.19122H4.9803V5.95215Z" fill="#8A8A8E"/>
<path d="M5.13037 5.80176V7.34082H4.2124V5.80176H5.13037ZM4.51318 7.04102H4.83057V6.10254H4.51318V7.04102Z" fill="#8A8A8E"/>
<path d="M4.9803 2.23926H4.36279V4.71334H4.9803V2.23926Z" fill="#8A8A8E"/>
<path d="M5.13037 2.08887V4.86328H4.2124V2.08887H5.13037ZM4.51318 4.56348H4.83057V2.38965H4.51318V4.56348Z" fill="#8A8A8E"/>
<path d="M4.36278 7.19141H3.74121V8.43048H4.36278V7.19141Z" fill="#8A8A8E"/>
<path d="M4.5127 7.04102V8.58008H3.59082V7.04102H4.5127ZM3.8916 8.28027H4.21289V7.3418H3.8916V8.28027Z" fill="#8A8A8E"/>
<path d="M4.36291 13.3824H1.88477V14H4.36291V13.3824Z" fill="#8A8A8E"/>
<path d="M4.5127 13.2321V14.15H1.73438V13.2321H4.5127ZM2.03516 13.8502H4.21289V13.5328H2.03516V13.8502Z" fill="#8A8A8E"/>
<path d="M4.36291 9.66518V9.04768H3.74134V8.43018H3.12384V9.04768H1.88477V9.66518H4.36291Z" fill="#8A8A8E"/>
<path d="M3.8916 8.27979V8.89795H4.5127V9.81494H1.73438V8.89795H2.97363V8.27979H3.8916ZM3.27344 9.19775H2.03516V9.51514H4.21289V9.19775H3.5918V8.58057H3.27344V9.19775Z" fill="#8A8A8E"/>
<path d="M1.88508 12.761H1.26758V13.3826H1.88508V12.761Z" fill="#8A8A8E"/>
<path d="M2.03516 12.6106V13.5325H1.11719V12.6106H2.03516ZM1.41797 13.2327H1.73535V12.9114H1.41797V13.2327Z" fill="#8A8A8E"/>
<path d="M1.88508 9.66528H1.26758V10.2869H1.88508V9.66528Z" fill="#8A8A8E"/>
<path d="M2.03516 9.51489V10.4368H1.11719V9.51489H2.03516ZM1.41797 10.137H1.73535V9.81567H1.41797V10.137Z" fill="#8A8A8E"/>
<path d="M1.2679 10.2869H0.650391V12.7609H1.2679V10.2869Z" fill="#8A8A8E"/>
<path d="M1.41797 10.1365V12.9109H0.5V10.1365H1.41797ZM0.800781 12.6111H1.11816V10.4373H0.800781V12.6111Z" fill="#8A8A8E"/>
</svg>
