<svg width="12" height="14" viewBox="0 0 12 14" fill="none" xmlns="http://www.w3.org/2000/svg">
<path d="M5.89262 0C5.94631 0 5.99973 0 6.05342 0C6.08805 0.0193289 6.12188 0.0402685 6.15758 0.0574497C8.02523 0.962953 9.89235 1.8698 11.7621 2.77128C11.9281 2.85128 12.0003 2.95705 12 3.14389C11.996 5.54175 11.9962 7.9396 11.9997 10.3375C11.9997 10.5109 11.9366 10.6172 11.7839 10.6988C10.9863 11.1254 10.1925 11.5597 9.39731 11.9909C8.37879 12.5434 7.36027 13.0956 6.34201 13.6486C6.2502 13.6985 6.15919 13.7477 6.05235 13.6985C5.93584 13.6451 5.81906 13.5917 5.7055 13.5323C3.89718 12.5863 2.09074 11.6373 0.280268 10.6958C0.101208 10.6027 0.0311409 10.4843 0.0308725 10.2859C0.0300671 8.75893 0.0220134 7.23168 0.015302 5.7047C0.0150336 5.63383 0.00536913 5.56322 0 5.49262V3.26872C0.0238926 3.07624 0.162148 2.99409 0.318389 2.91302C1.61557 2.24107 2.9106 1.5643 4.20537 0.887785C4.76859 0.593557 5.33047 0.295839 5.89289 0L5.89262 0ZM11.4923 3.4706C11.4427 3.49584 11.415 3.50872 11.3887 3.52349C9.75517 4.43651 8.12215 5.3506 6.48698 6.26094C6.40966 6.30389 6.39758 6.35436 6.39758 6.43114C6.39893 8.59168 6.39866 10.7522 6.39946 12.913C6.39946 12.9501 6.38685 12.9914 6.41987 13.0303C6.4502 13.0156 6.47812 13.0032 6.50497 12.9887C8.13423 12.1052 9.76268 11.2204 11.3936 10.3399C11.4808 10.2926 11.4937 10.2357 11.4937 10.149C11.4918 7.97503 11.4923 5.80107 11.4923 3.62711C11.4923 3.58282 11.4923 3.53852 11.4923 3.47034V3.4706ZM11.1401 3.0655C11.1017 3.04483 11.0647 3.02309 11.026 3.00403C9.39168 2.20027 7.75651 1.39758 6.12349 0.590872C6.02577 0.54255 5.95141 0.539329 5.85369 0.590872C4.22523 1.44725 2.5949 2.2996 0.965369 3.15383C0.924832 3.17503 0.874362 3.18443 0.849664 3.23275C0.867114 3.24349 0.881611 3.25369 0.89745 3.26174C2.6153 4.11973 4.33369 4.97718 6.05074 5.83758C6.12671 5.8757 6.1804 5.86094 6.24698 5.82336C7.84456 4.92805 9.44322 4.03463 11.0413 3.14013C11.0754 3.12107 11.1168 3.11034 11.1401 3.06577V3.0655Z" fill="#16DE93"/>
</svg>
