<svg width="15" height="14" viewBox="0 0 15 14" fill="none" xmlns="http://www.w3.org/2000/svg">
<path d="M10.9042 8.54778H10.2827V9.78684H9.04766V10.4043H7.80859V11.0218H9.66516V11.6434H10.2827V12.2609H10.9042V12.8825H11.5217V13.5H12.1433V12.8825H12.7608V12.2609H13.3783V11.6434H13.9998V11.0218H13.3783V10.4043H12.7608V9.78684H12.1433V9.16528H11.5217V7.30872H10.9042V8.54778Z" fill="#8A8A8E"/>
<path d="M11.6719 7.15833V9.01575H12.293V9.63684H12.9111V10.254H13.5283V10.8722H14.1494V11.7931H13.5283V12.4113H12.9111V13.0323H12.293V13.6495H11.3721V13.0323H10.7539V12.4113H10.1328V11.7931H9.51562V11.172H7.6582V10.254H8.89746V9.63684H10.1328V8.39758H10.7539V7.15833H11.6719ZM11.0547 8.69739H10.4326V9.93665H9.19727V10.5548H7.95898V10.8722H9.81543V11.4933H10.4326V12.1105H11.0547V12.7325H11.6719V13.3497H11.9932V12.7325H12.6104V12.1105H13.2285V11.4933H13.8496V11.172H13.2285V10.5548H12.6104V9.93665H11.9932V9.31555H11.3721V7.45911H11.0547V8.69739Z" fill="#8A8A8E"/>
<path d="M12.143 4.83472H11.5215V7.30878H12.143V4.83472Z" fill="#8A8A8E"/>
<path d="M12.293 4.68433V7.45874H11.3711V4.68433H12.293ZM11.6719 7.15894H11.9932V4.98511H11.6719V7.15894Z" fill="#8A8A8E"/>
<path d="M11.5218 3.59558H10.9043V4.83464H11.5218V3.59558Z" fill="#8A8A8E"/>
<path d="M11.6719 3.44519V4.98425H10.7539V3.44519H11.6719ZM11.0547 4.68445H11.3721V3.74597H11.0547V4.68445Z" fill="#8A8A8E"/>
<path d="M10.9048 2.35657H10.2832V3.59563H10.9048V2.35657Z" fill="#8A8A8E"/>
<path d="M11.0547 2.20618V3.74524H10.1328V2.20618H11.0547ZM10.4336 3.44543H10.7549V2.50696H10.4336V3.44543Z" fill="#8A8A8E"/>
<path d="M10.2829 1.73901H9.04785V2.35651H10.2829V1.73901Z" fill="#8A8A8E"/>
<path d="M10.4326 1.58862V2.50659H8.89746V1.58862H10.4326ZM9.19824 2.20679H10.1328V1.8894H9.19824V2.20679Z" fill="#8A8A8E"/>
<path d="M9.04766 1.11755H7.80859V1.73912H9.04766V1.11755Z" fill="#8A8A8E"/>
<path d="M9.19727 0.967163V1.88904H7.6582V0.967163H9.19727ZM7.95898 1.58923H8.89746V1.26794H7.95898V1.58923Z" fill="#8A8A8E"/>
<path d="M7.80918 11.022H5.33105V11.6435H7.80918V11.022Z" fill="#8A8A8E"/>
<path d="M7.95898 10.8716V11.7935H5.18066V10.8716H7.95898ZM5.48145 11.4937H7.65918V11.1724H5.48145V11.4937Z" fill="#8A8A8E"/>
<path d="M7.80918 0.5H5.33105V1.1175H7.80918V0.5Z" fill="#8A8A8E"/>
<path d="M7.95898 0.349609V1.26758H5.18066V0.349609H7.95898ZM5.48145 0.967773H7.65918V0.650391H5.48145V0.967773Z" fill="#8A8A8E"/>
<path d="M5.3307 10.4044H4.0957V11.0219H5.3307V10.4044Z" fill="#8A8A8E"/>
<path d="M5.48047 10.254V11.172H3.94531V10.254H5.48047ZM4.24609 10.8722H5.18066V10.5548H4.24609V10.8722Z" fill="#8A8A8E"/>
<path d="M5.3307 1.11755H4.0957V1.73912H5.3307V1.11755Z" fill="#8A8A8E"/>
<path d="M5.48047 0.967163V1.88904H3.94531V0.967163H5.48047ZM4.24609 1.58923H5.18066V1.26794H4.24609V1.58923Z" fill="#8A8A8E"/>
<path d="M4.09551 9.78687H2.85645V10.4044H4.09551V9.78687Z" fill="#8A8A8E"/>
<path d="M4.24512 9.63647V10.5544H2.70605V9.63647H4.24512ZM3.00684 10.2546H3.94531V9.93726H3.00684V10.2546Z" fill="#8A8A8E"/>
<path d="M4.09551 1.73901H2.85645V2.35651H4.09551V1.73901Z" fill="#8A8A8E"/>
<path d="M4.24512 1.58862V2.50659H2.70605V1.58862H4.24512ZM3.00684 2.20679H3.94531V1.8894H3.00684V2.20679Z" fill="#8A8A8E"/>
<path d="M2.85676 8.54785H2.23926V9.78691H2.85676V8.54785Z" fill="#8A8A8E"/>
<path d="M3.00684 8.39746V9.93652H2.08887V8.39746H3.00684ZM2.38965 9.63672H2.70703V8.69824H2.38965V9.63672Z" fill="#8A8A8E"/>
<path d="M2.85676 2.35657H2.23926V3.59563H2.85676V2.35657Z" fill="#8A8A8E"/>
<path d="M3.00684 2.20618V3.74524H2.08887V2.20618H3.00684ZM2.38965 3.44543H2.70703V2.50696H2.38965V3.44543Z" fill="#8A8A8E"/>
<path d="M2.23924 7.30872H1.61768V8.54778H2.23924V7.30872Z" fill="#8A8A8E"/>
<path d="M2.38916 7.15833V8.69739H1.46729V7.15833H2.38916ZM1.76807 8.39758H2.08936V7.45911H1.76807V8.39758Z" fill="#8A8A8E"/>
<path d="M2.23924 3.59558H1.61768V4.83464H2.23924V3.59558Z" fill="#8A8A8E"/>
<path d="M2.38916 3.44519V4.98425H1.46729V3.44519H2.38916ZM1.76807 4.68445H2.08936V3.74597H1.76807V4.68445Z" fill="#8A8A8E"/>
<path d="M1.6175 4.83472H1V7.30878H1.6175V4.83472Z" fill="#8A8A8E"/>
<path d="M1.76758 4.68433V7.45874H0.849609V4.68433H1.76758ZM1.15039 7.15894H1.46777V4.98511H1.15039V7.15894Z" fill="#8A8A8E"/>
</svg>
