<svg width="13" height="12" viewBox="0 0 13 12" fill="none" xmlns="http://www.w3.org/2000/svg">
<path d="M11.3359 5.00284V5.99609C10.623 5.99752 9.93886 5.99896 9.25471 5.99967L9.26618 6.01115V1.90334C8.96857 1.84669 3.39993 1.8474 3.08726 1.90908V6.00972L3.09801 5.99896H1.04554V5.02149C1.36826 4.95695 1.70317 5.03225 2.01656 4.97918C2.09329 4.6579 2.09186 2.18518 2.01728 1.88111C1.70819 1.81441 1.38404 1.889 1.05343 1.83521C1.00323 1.52182 1.03263 1.2156 1.03622 0.912244C1.32308 0.834793 10.2315 0.801087 11.3158 0.873519C11.3481 1.18189 11.3366 1.49528 11.3208 1.82661C10.9909 1.89402 10.6653 1.81011 10.3605 1.88183C10.2852 2.18303 10.2838 4.6371 10.3584 4.96914C10.6818 5.04085 11.0182 4.95981 11.3473 5.0136L11.3366 5.00356L11.3359 5.00284Z" fill="#8A8A8E"/>
<path d="M7.17554 8.08232C7.182 8.63094 7.18702 9.17955 7.19491 9.72745C7.19706 9.85582 7.17554 9.98849 7.23722 10.1427C7.89556 10.195 8.55964 10.1291 9.24021 10.1814V11.1123C8.97917 11.1732 3.57547 11.189 3.11865 11.128V10.1764C3.77914 10.1384 4.44322 10.18 5.08937 10.1527C5.20196 10.0552 5.1661 9.94044 5.16682 9.83789C5.17256 9.25342 5.17327 8.66895 5.17543 8.08447L5.1661 8.09308C5.83879 8.05579 6.51147 8.06511 7.18415 8.09308L7.17483 8.08375L7.17554 8.08232Z" fill="#8A8A8E"/>
<path d="M0.986105 4.92462C0.66339 4.9741 0.357886 4.94541 0.0566848 4.95904C-0.00498974 4.69656 -0.0214841 2.48058 0.033019 1.93699C0.33924 1.86456 0.651916 1.89898 0.986105 1.91906V4.92462Z" fill="#8A8A8E"/>
<path d="M11.3477 5.01283V1.93269C11.6883 1.87316 11.9917 1.89826 12.3345 1.9083C12.3818 2.24751 12.3517 2.57812 12.3567 2.90585C12.3617 3.2508 12.3624 3.59647 12.3567 3.94213C12.3517 4.27273 12.3789 4.60477 12.3373 4.93896C11.9945 4.99848 11.6575 4.88733 11.3369 5.00279L11.3477 5.01283Z" fill="#8A8A8E"/>
<path d="M4.09082 7.0152C4.43146 7.04388 4.77713 6.98293 5.13785 7.06181C5.19379 7.40963 5.16582 7.75171 5.16654 8.09307L5.17586 8.08446H4.17616C4.0607 7.70796 4.17616 7.34939 4.10014 7.00659L4.09082 7.01591V7.0152Z" fill="#8A8A8E"/>
<path d="M7.18462 8.09153V7.0739C7.54462 6.9735 7.86806 7.02514 8.22089 7.03589C8.25818 7.37654 8.23595 7.69352 8.23954 8.02842C7.88096 8.12165 7.52311 8.03057 7.17529 8.08149L7.18462 8.09081V8.09153Z" fill="#8A8A8E"/>
<path d="M4.10076 7.00577H3.12759C3.07309 6.66011 3.10966 6.32879 3.09962 5.9989L3.08887 6.00966H4.08211C4.16459 6.19038 4.1065 6.35676 4.11367 6.51883C4.12012 6.68378 4.13733 6.85087 4.09215 7.01438L4.10148 7.00506L4.10076 7.00577Z" fill="#8A8A8E"/>
<path d="M9.25498 6.00039V6.98217C8.92868 7.04743 8.61457 7.01946 8.28253 7.00511C8.21297 6.67881 8.23807 6.3647 8.26747 6.03123C8.6074 5.97099 8.93728 6.00757 9.26645 6.01187L9.25498 6.00039Z" fill="#8A8A8E"/>
</svg>
