<svg width="15" height="12" viewBox="0 0 15 12" fill="none" xmlns="http://www.w3.org/2000/svg">
<path d="M1.08508 3.27496C1.08578 2.9453 1.08978 2.61564 1.0846 2.28621C1.08319 2.19508 1.11357 2.17389 1.19881 2.17507C1.48514 2.17954 1.77171 2.17271 2.05805 2.17907C2.15459 2.18119 2.17626 2.14681 2.17508 2.05804C2.17061 1.7717 2.17696 1.48513 2.17131 1.1988C2.16966 1.10885 2.19768 1.08624 2.28481 1.08789C2.57515 1.09307 2.86549 1.08718 3.15582 1.09142C3.23659 1.0926 3.26485 1.07023 3.26367 0.986871C3.25943 0.708307 3.26814 0.429507 3.2599 0.151178C3.25661 0.0360319 3.2811 -0.000466457 3.40566 4.48877e-06C4.69676 0.00542037 5.98762 0.00330111 7.27872 0.00330111C8.42853 0.00330111 9.57835 0.00494942 10.7279 0.000710908C10.8393 0.000239962 10.8756 0.0268484 10.8734 0.142466C10.8676 0.45588 10.8753 0.769765 10.8779 1.08342L10.8817 1.08059C10.8308 1.08318 10.7802 1.08765 10.7293 1.08765C9.72999 1.08812 8.73065 1.08907 7.73153 1.08624C7.63852 1.08601 7.60155 1.10414 7.60414 1.20704C7.61144 1.4889 7.61027 1.77147 7.60414 2.05333C7.60226 2.14681 7.6218 2.18331 7.72447 2.18072C8.01434 2.17366 8.30444 2.17907 8.59431 2.17719C8.65718 2.17672 8.69627 2.1826 8.69509 2.26361C8.69015 2.60057 8.69109 2.93753 8.68991 3.27449C8.36849 3.2719 8.0473 3.26625 7.72588 3.26907C7.6357 3.26978 7.60367 3.24859 7.60579 3.15252C7.61215 2.86241 7.60509 2.57208 7.6098 2.28197C7.61121 2.19862 7.58413 2.17554 7.50313 2.17672C7.20902 2.18072 6.91468 2.18166 6.62081 2.17601C6.53204 2.17436 6.51885 2.20874 6.51979 2.28527C6.52356 2.5716 6.51744 2.85794 6.52379 3.14427C6.52591 3.24011 6.5026 3.27096 6.40229 3.26978C6.0811 3.26554 5.75968 3.27237 5.43826 3.27496C5.43826 2.94577 5.44156 2.61634 5.43591 2.28715C5.43426 2.1972 5.46134 2.1753 5.54799 2.17695C5.8381 2.18213 6.1282 2.17672 6.4183 2.18025C6.4986 2.18119 6.52638 2.15788 6.52497 2.07452C6.52026 1.78065 6.5205 1.48655 6.52497 1.19267C6.52615 1.11002 6.50001 1.08718 6.41854 1.08742C5.39941 1.08977 4.38005 1.08954 3.36092 1.08742C3.28628 1.08742 3.25825 1.10579 3.25943 1.18538C3.26344 1.48325 3.26249 1.78112 3.25896 2.07899C3.25802 2.15623 3.28369 2.17931 3.36045 2.17813C3.65055 2.17413 3.94066 2.18048 4.23052 2.17413C4.33013 2.17201 4.35485 2.20403 4.35391 2.3001C4.35061 2.62506 4.35674 2.95024 4.35933 3.27543C4.03437 3.27308 3.70942 3.26648 3.38447 3.27049C3.28416 3.27167 3.25896 3.23893 3.26084 3.14357C3.2665 2.86171 3.26014 2.57937 3.26438 2.29751C3.26555 2.21062 3.24766 2.17224 3.149 2.17436C2.86313 2.18072 2.57703 2.17907 2.29117 2.17507C2.20263 2.17389 2.16825 2.1965 2.17037 2.2928C2.17696 2.57867 2.16943 2.86477 2.17461 3.15063C2.17626 3.24152 2.1513 3.27143 2.05687 3.27002C1.73192 3.26531 1.40673 3.27002 1.08154 3.27119L1.08484 3.27473L1.08508 3.27496Z" fill="#8A8A8E"/>
<path d="M10.8785 7.60376C10.876 7.92471 10.8696 8.24566 10.8729 8.56637C10.8738 8.66645 10.8503 8.70248 10.7429 8.69965C10.4573 8.69188 10.1712 8.69965 9.88532 8.69541C9.80384 8.69423 9.777 8.71896 9.77818 8.80161C9.78265 9.09148 9.77606 9.38135 9.78218 9.67098C9.7843 9.76658 9.75251 9.78871 9.66209 9.78824C9.33737 9.78589 9.01242 9.79177 8.6877 9.7946L8.69053 9.79719C8.69476 9.42679 8.70301 9.05616 8.68652 8.68576C9.0143 8.71425 9.34279 8.68929 9.6708 8.70012C9.75769 8.70295 9.78524 8.67587 9.78383 8.58804C9.77888 8.30641 9.78736 8.02455 9.77935 7.74316C9.77629 7.63131 9.81467 7.60706 9.91922 7.6087C10.2399 7.61388 10.5607 7.60823 10.8814 7.60682L10.8785 7.60376Z" fill="#8A8A8E"/>
<path d="M10.8781 1.08338C11.1993 1.08527 11.5205 1.09068 11.8417 1.08715C11.9326 1.08621 11.9632 1.10881 11.9608 1.20418C11.9545 1.49005 11.9625 1.77638 11.9564 2.06248C11.9545 2.15714 11.9858 2.18069 12.0758 2.17927C12.3656 2.17433 12.6557 2.17951 12.9458 2.17598C13.0216 2.17504 13.0461 2.19717 13.0452 2.27558C13.0412 2.60854 13.0438 2.94174 13.044 3.27493L13.0471 3.2714C12.7179 3.27022 12.3885 3.26669 12.0593 3.26904C11.9834 3.26951 11.9571 3.24879 11.9585 3.17014C11.9632 2.92714 11.9601 2.68413 11.9601 2.44088C11.9601 2.17716 11.9601 2.18045 11.6988 2.17621C11.4249 2.17197 11.1508 2.19246 10.8774 2.16538C10.8697 1.8037 10.8619 1.44201 10.8814 1.08032L10.8777 1.08315L10.8781 1.08338Z" fill="#8A8A8E"/>
<path d="M4.35965 8.68545C4.01562 8.70946 3.67112 8.68992 3.32686 8.69581C3.25222 8.69698 3.26211 8.644 3.26211 8.59809C3.26187 8.31599 3.2574 8.03389 3.2647 7.75203C3.26752 7.64324 3.24421 7.60251 3.1253 7.60651C2.84744 7.6164 2.56911 7.60651 2.29102 7.61169C2.2013 7.61334 2.16951 7.5912 2.17093 7.49537C2.1754 7.17041 2.16975 6.84546 2.1681 6.52051L2.16504 6.52357C2.498 6.5238 2.83096 6.52663 3.16392 6.52239C3.24256 6.52145 3.26446 6.54688 3.26352 6.622C3.26022 6.90409 3.26705 7.18619 3.25975 7.46805C3.25693 7.57755 3.28165 7.61758 3.39962 7.61357C3.67748 7.60439 3.95581 7.61404 4.2339 7.60863C4.32527 7.60674 4.35588 7.63194 4.35447 7.72636C4.34999 8.04755 4.35447 8.36873 4.35541 8.68968L4.35988 8.68497L4.35965 8.68545Z" fill="#8A8A8E"/>
<path d="M6.5247 10.8769C6.19998 10.8762 5.8755 10.8726 5.55079 10.8764C5.46743 10.8773 5.43423 10.8611 5.43611 10.7686C5.44294 10.4441 5.44058 10.1194 5.44176 9.79488L5.43847 9.79723C5.48109 9.79417 5.52371 9.78876 5.56633 9.78852C5.84748 9.78781 6.12864 9.78569 6.40979 9.78946C6.49079 9.79064 6.52753 9.7758 6.52588 9.68161C6.51929 9.34983 6.52235 9.01782 6.52164 8.68604C6.8838 8.70581 7.24572 8.70629 7.60788 8.68604C7.6067 9.05643 7.60576 9.42707 7.60458 9.79747L7.60811 9.7937C7.27939 9.79158 6.95044 9.79229 6.62195 9.78522C6.53506 9.78334 6.51976 9.81466 6.5207 9.89307C6.52447 10.222 6.52188 10.551 6.52188 10.8799L6.52494 10.8766L6.5247 10.8769Z" fill="#8A8A8E"/>
<path d="M1.08435 5.43726C0.755399 5.43726 0.426444 5.43537 0.0974879 5.43961C0.0193109 5.44079 -0.000233379 5.4163 2.09431e-06 5.34071C0.0025923 4.6828 0.0016504 4.02489 0.00117946 3.36674C0.00117946 3.31423 -0.00517831 3.26667 0.0748825 3.26784C0.411609 3.27255 0.7481 3.27302 1.08483 3.27491L1.08153 3.27138C1.08153 3.99451 1.08153 4.71765 1.08153 5.44079L1.08435 5.43726Z" fill="#8A8A8E"/>
<path d="M13.0439 3.27493C13.3807 3.27305 13.7174 3.2721 14.0541 3.26881C14.1088 3.26834 14.1292 3.28576 14.1292 3.34275C14.1276 4.01667 14.1271 4.69036 14.1295 5.36428C14.1297 5.44528 14.0836 5.43846 14.0313 5.43822C13.7021 5.43751 13.3731 5.43751 13.0439 5.43728L13.047 5.44105C13.047 4.71791 13.047 3.99477 13.047 3.27163L13.0439 3.27517V3.27493Z" fill="#8A8A8E"/>
<path d="M5.44175 9.7951C5.12528 9.79251 4.80857 9.78473 4.49209 9.79039C4.37859 9.79251 4.34633 9.76119 4.34987 9.64745C4.35999 9.32698 4.35717 9.00626 4.35952 8.68555L4.35505 8.69026C4.5227 8.69308 4.6906 8.69991 4.85825 8.69756C5.05299 8.69473 5.24819 8.71451 5.44222 8.68578C5.44105 9.05642 5.43963 9.42705 5.43846 9.79769L5.44175 9.79533V9.7951Z" fill="#8A8A8E"/>
<path d="M2.16778 6.52068C1.83906 6.52138 1.51057 6.5195 1.18185 6.52421C1.10179 6.52539 1.08508 6.49689 1.08578 6.42319C1.08837 6.0947 1.08531 5.76598 1.08437 5.4375L1.08154 5.44103C1.41356 5.44056 1.74558 5.44009 2.07759 5.43962C2.12422 5.43962 2.1732 5.4302 2.17249 5.50532C2.16849 5.84487 2.16707 6.18442 2.16472 6.52397L2.16778 6.52091V6.52068Z" fill="#8A8A8E"/>
<path d="M13.044 5.43701C13.0438 5.76597 13.0415 6.09469 13.0445 6.42364C13.0452 6.49782 13.0276 6.52513 12.9477 6.52372C12.619 6.51877 12.2901 6.52066 11.9611 6.52019L11.9639 6.52372C11.9625 6.19029 11.9635 5.85686 11.958 5.52367C11.9566 5.44149 11.9967 5.43842 12.0586 5.4389C12.388 5.44101 12.7177 5.44031 13.0471 5.44078L13.044 5.43701Z" fill="#8A8A8E"/>
<path d="M11.9614 6.52051C11.9604 6.84923 11.9585 7.17818 11.959 7.5069C11.959 7.56766 11.9578 7.6124 11.8759 7.61122C11.5434 7.60627 11.2107 7.6058 10.8782 7.60368L10.881 7.60674C10.8586 7.26766 10.8772 6.92788 10.8711 6.58856C10.8697 6.51415 10.9217 6.52404 10.9684 6.52404C11.3004 6.52404 11.6324 6.52404 11.9644 6.52404L11.9616 6.52051H11.9614Z" fill="#8A8A8E"/>
<path d="M8.68742 9.79442C8.68953 10.1271 8.68953 10.4599 8.69495 10.7924C8.69636 10.8757 8.65068 10.8755 8.59087 10.8752C8.26192 10.8748 7.9332 10.8762 7.60424 10.8769L7.6073 10.8802V9.79395L7.604 9.79772C7.96616 9.78029 8.32808 9.78123 8.69024 9.79701L8.68742 9.79442Z" fill="#8A8A8E"/>
<path d="M7.60417 10.8769C7.60488 11.2066 7.60417 11.536 7.60747 11.8655C7.60817 11.9333 7.59475 11.962 7.51775 11.9611C7.21564 11.9566 6.91353 11.9566 6.61142 11.9611C6.53418 11.9622 6.521 11.9328 6.52147 11.8655C6.52453 11.536 6.52359 11.2064 6.52406 10.8767L6.521 10.88C6.88315 10.88 7.24508 10.88 7.60723 10.88L7.60417 10.8767V10.8769Z" fill="#8A8A8E"/>
<path d="M4.35484 3.27124C4.717 3.27124 5.07892 3.27124 5.44108 3.27148C5.43943 3.96424 5.43708 4.657 5.43661 5.35C5.43661 5.74135 5.43943 6.13247 5.44108 6.52383C5.11165 6.52359 4.78199 6.52218 4.45256 6.52383C4.38122 6.5243 4.35084 6.5064 4.35108 6.42611C4.35437 5.37448 4.35414 4.32286 4.35461 3.27124H4.35484Z" fill="#8A8A8E"/>
<path d="M6.52471 8.68968C6.16256 8.70004 5.8004 8.70027 5.43848 8.68968C5.43848 7.96654 5.43848 7.2434 5.43871 6.52026C5.75519 6.52121 6.0719 6.52756 6.38814 6.5205C6.49881 6.51814 6.52471 6.55488 6.52424 6.65825C6.52142 7.33524 6.52377 8.01222 6.52448 8.68944L6.52471 8.68968Z" fill="#8A8A8E"/>
<path d="M9.77374 3.27122C9.77609 3.31408 9.78033 3.35694 9.78033 3.39979C9.77939 4.41091 9.77656 5.42203 9.77915 6.43315C9.77939 6.52452 9.73794 6.52358 9.6739 6.52334C9.34518 6.5224 9.01622 6.52334 8.6875 6.52334C8.6908 6.1673 8.69668 5.8115 8.69715 5.45547C8.69786 4.7467 8.69551 4.03792 8.69409 3.32938C8.69409 3.31008 8.68985 3.29077 8.68774 3.27122C9.04966 3.27122 9.41181 3.27099 9.77374 3.27075V3.27122Z" fill="#8A8A8E"/>
<path d="M8.69096 8.69011C8.32881 8.7 7.96665 8.70071 7.60449 8.68987C7.60567 8.01666 7.60991 7.34321 7.6052 6.66999C7.60426 6.55296 7.63134 6.51787 7.7519 6.52093C8.06461 6.52918 8.37755 6.52188 8.69049 6.52093C8.69049 7.24407 8.69073 7.96697 8.69096 8.69011Z" fill="#8A8A8E"/>
<path d="M10.8815 2.16357C10.8546 2.4054 10.8774 2.64818 10.869 2.89048C10.8647 3.01104 10.9194 3.16575 10.8466 3.24251C10.7731 3.31998 10.6173 3.26441 10.4976 3.26724C10.2551 3.27289 10.0126 3.27289 9.77002 3.27524C9.79592 2.96748 9.7752 2.65924 9.78109 2.35125C9.78485 2.15675 9.76037 2.17794 9.9584 2.17723C10.2318 2.17629 10.5052 2.17723 10.7783 2.177C10.8132 2.177 10.849 2.18288 10.8812 2.16357H10.8815Z" fill="#8A8A8E"/>
</svg>
