<svg width="19" height="21" viewBox="0 0 19 21" fill="none" xmlns="http://www.w3.org/2000/svg">
<path d="M18.4203 20.4332H0.0732053C-0.00950082 20.1125 -0.0303261 0.555143 0.0535701 0H18.4203V20.4332ZM2.06886 2.03731V18.3584C2.48418 18.4322 15.9766 18.4298 16.3437 18.3602C16.4217 17.8949 16.3961 2.38063 16.3122 2.03731H2.06886Z" fill="#EFEFEF"/>
<path d="M4.13403 8.13283V4.0957H14.3188V8.10903C14.007 8.18936 4.79033 8.21554 4.13403 8.13283Z" fill="#EFEFEF"/>
<path d="M4.12828 12.2412V10.2402H6.07634C6.15845 10.5479 6.17392 11.7075 6.09954 12.2412H4.12769H4.12828Z" fill="#EFEFEF"/>
<path d="M14.3223 10.2373V12.2443H12.332V10.2373H14.3223Z" fill="#EFEFEF"/>
<path d="M8.22656 10.2319H10.2181V12.1978C9.87533 12.2954 8.70733 12.302 8.22656 12.202V10.2325V10.2319Z" fill="#EFEFEF"/>
<path d="M6.14589 16.3264H4.13477V14.3433H6.13399C6.15779 14.9823 6.13399 15.6261 6.14589 16.3264Z" fill="#EFEFEF"/>
<path d="M10.246 16.326H8.22949V14.3398H10.2049C10.29 14.6665 10.2329 14.9985 10.2442 15.3252C10.2543 15.6423 10.2466 15.9595 10.2466 16.3254L10.246 16.326Z" fill="#EFEFEF"/>
<path d="M14.2718 16.3344H12.3374V14.3816C12.6367 14.2923 13.8279 14.2786 14.295 14.3602C14.3783 14.8183 14.3658 16.0143 14.2718 16.3338V16.3344Z" fill="#EFEFEF"/>
</svg>
