<svg width="262" height="6" viewBox="0 0 262 6" fill="none" xmlns="http://www.w3.org/2000/svg">
<path d="M1.62695 6H0V0H1.62695V6ZM5.69531 6H4.06836V0H5.69531V6ZM9.76367 6H8.13672V0H9.76367V6ZM13.832 6H12.2051V0H13.832V6ZM17.9004 6H16.2734V0H17.9004V6ZM21.9688 6H20.3418V0H21.9688V6ZM26.0371 6H24.4102V0H26.0371V6ZM30.1055 6H28.4785V0H30.1055V6ZM34.1738 6H32.5469V0H34.1738V6ZM38.2422 6H36.6152V0H38.2422V6ZM42.3105 6H40.6836V0H42.3105V6ZM46.3789 6H44.752V0H46.3789V6ZM50.4473 6H48.8203V0H50.4473V6ZM54.5156 6H52.8887V0H54.5156V6ZM58.584 6H56.9561V0H58.584V6ZM62.6523 6H61.0244V0H62.6523V6ZM66.7207 6H65.0928V0H66.7207V6ZM70.7891 6H69.1611V0H70.7891V6ZM74.8574 6H73.2295V0H74.8574V6ZM78.9258 6H77.2979V0H78.9258V6ZM82.9941 6H81.3662V0H82.9941V6ZM87.0625 6H85.4346V0H87.0625V6ZM91.1309 6H89.5029V0H91.1309V6ZM95.1982 6H93.5713V0H95.1982V6ZM99.2666 6H97.6396V0H99.2666V6ZM103.335 6H101.708V0H103.335V6ZM107.403 6H105.776V0H107.403V6ZM111.472 6H109.845V0H111.472V6ZM115.54 6H113.913V0H115.54V6ZM119.608 6H117.981V0H119.608V6ZM123.677 6H122.05V0H123.677V6ZM127.745 6H126.118V0H127.745V6ZM131.813 6H130.187V0H131.813V6ZM135.882 6H134.255V0H135.882V6ZM139.95 6H138.323V0H139.95V6ZM144.019 6H142.392V0H144.019V6ZM148.087 6H146.46V0H148.087V6ZM152.155 6H150.528V0H152.155V6ZM156.224 6H154.597V0H156.224V6ZM160.292 6H158.665V0H160.292V6ZM164.36 6H162.733V0H164.36V6ZM168.429 6H166.801V0H168.429V6ZM172.497 6H170.869V0H172.497V6ZM176.565 6H174.938V0H176.565V6ZM180.634 6H179.006V0H180.634V6ZM184.702 6H183.074V0H184.702V6ZM188.771 6H187.143V0H188.771V6ZM192.839 6H191.211V0H192.839V6ZM196.907 6H195.279V0H196.907V6ZM200.976 6H199.348V0H200.976V6ZM205.043 6H203.416V0H205.043V6ZM209.111 6H207.484V0H209.111V6ZM213.18 6H211.553V0H213.18V6ZM217.248 6H215.621V0H217.248V6ZM221.316 6H219.689V0H221.316V6ZM225.385 6H223.758V0H225.385V6ZM229.453 6H227.826V0H229.453V6ZM233.521 6H231.895V0H233.521V6ZM237.59 6H235.963V0H237.59V6ZM241.658 6H240.031V0H241.658V6ZM245.727 6H244.1V0H245.727V6ZM249.795 6H248.168V0H249.795V6ZM253.863 6H252.236V0H253.863V6ZM257.932 6H256.305V0H257.932V6ZM262 6H260.373V0H262V6Z" fill="url(#paint0_linear_757_149)"/>
<defs>
<linearGradient id="paint0_linear_757_149" x1="-104.391" y1="3" x2="262" y2="3" gradientUnits="userSpaceOnUse">
<stop/>
<stop offset="1" stop-color="#16DE93"/>
</linearGradient>
</defs>
</svg>
