<svg width="196" height="31" viewBox="0 0 196 31" fill="none" xmlns="http://www.w3.org/2000/svg">
<rect width="30.5533" height="30.5533" rx="8" fill="#434346"/>
<path d="M20.4211 17.1035L21.8792 17.1113V21.5184C21.8268 21.5158 21.7745 21.5115 21.7217 21.5115C17.4044 21.5115 13.0871 21.5115 8.76977 21.5115C8.72212 21.5115 8.67448 21.5158 8.62683 21.5184C8.62683 20.0495 8.62683 18.5802 8.62683 17.1113C9.07238 17.1104 9.51751 17.1057 9.96306 17.1104C10.0686 17.1117 10.1026 17.0851 10.1008 16.9759C10.0944 16.5802 10.1017 16.1845 10.0961 15.7888C10.0948 15.6818 10.1167 15.6381 10.2365 15.6402C10.6387 15.6475 11.0413 15.6475 11.4431 15.6402C11.5615 15.6381 11.586 15.6796 11.5843 15.788C11.5787 16.1837 11.5787 16.5794 11.5843 16.9751C11.586 17.0791 11.5611 17.1147 11.4504 17.1125C11.0482 17.1057 10.6455 17.1134 10.2433 17.1074C10.1369 17.1057 10.1056 17.1335 10.106 17.2419C10.1103 18.1288 10.1103 19.0157 10.106 19.9022C10.1056 20.0114 10.1395 20.0358 10.2446 20.0358C13.5876 20.0332 16.9305 20.0332 20.2734 20.0358C20.3824 20.0358 20.4095 20.005 20.409 19.8992C20.4052 19.0217 20.4065 18.1446 20.4073 17.2671C20.4073 17.211 20.3927 17.1524 20.4249 17.0993L20.4206 17.1027L20.4211 17.1035Z" fill="#16DE93"/>
<path d="M13.0539 9.78452C13.0509 9.32201 13.0487 8.85993 13.0449 8.39785C13.0444 8.33404 13.0741 8.31348 13.1324 8.31691C13.1612 8.31862 13.19 8.31691 13.2187 8.31691C14.5794 8.31691 15.9401 8.31905 17.3004 8.31348C17.4446 8.31305 17.4742 8.35802 17.4712 8.4912C17.4626 8.87235 17.4716 9.25435 17.4661 9.63592C17.4643 9.74555 17.4935 9.78409 17.6099 9.78195C18.0073 9.7751 18.4052 9.78195 18.8027 9.77724C18.904 9.77596 18.9444 9.79523 18.9439 9.90914C18.9401 11.2924 18.9405 12.6752 18.9435 14.0585C18.9435 14.1604 18.9104 14.1878 18.8117 14.1865C18.4095 14.1818 18.0069 14.1878 17.6047 14.1822C17.4995 14.181 17.4643 14.2075 17.4661 14.3167C17.4725 14.7171 17.4661 15.118 17.4703 15.5184C17.4712 15.6139 17.4485 15.6503 17.3437 15.6503C15.9543 15.6469 14.5652 15.6464 13.1758 15.6507C13.0612 15.6507 13.0423 15.6096 13.0436 15.5098C13.0483 15.1188 13.041 14.7274 13.0483 14.3364C13.0505 14.2195 13.0208 14.181 12.8989 14.1831C12.5062 14.1904 12.1134 14.1831 11.7207 14.1878C11.6146 14.1891 11.57 14.169 11.5704 14.049C11.5747 12.6705 11.5743 11.2924 11.5704 9.91385C11.5704 9.80422 11.6035 9.77938 11.7091 9.78024C12.1594 9.78452 12.6096 9.78024 13.0599 9.77853C13.0578 9.79737 13.0535 9.81621 13.0535 9.83548C13.0535 11.2423 13.0543 12.6495 13.0505 14.0563C13.0505 14.1724 13.1041 14.1728 13.1895 14.1728C14.5644 14.1711 15.9397 14.1707 17.3145 14.1737C17.4227 14.1737 17.4613 14.151 17.4609 14.0336C17.4566 12.6598 17.4566 11.2864 17.4609 9.91257C17.4609 9.80251 17.4283 9.77981 17.3235 9.77981C15.9006 9.78367 14.4777 9.78238 13.0547 9.78281L13.0539 9.78452Z" fill="#16DE93"/>
<path d="M20.4252 17.1004C19.9518 17.1038 19.4783 17.1064 19.0049 17.1111C18.9469 17.1115 18.9302 17.0845 18.9302 17.0331C18.9306 16.5993 18.931 16.1655 18.9293 15.7321C18.9293 15.6619 18.9615 15.643 19.0255 15.6434C19.4564 15.6447 19.8874 15.6464 20.3179 15.6426C20.4145 15.6417 20.4106 15.6957 20.4106 15.7621C20.4093 16.1578 20.4098 16.5535 20.4106 16.9488C20.4106 17.0006 20.4166 17.0528 20.4201 17.1046L20.4248 17.1008L20.4252 17.1004Z" fill="#16DE93"/>
<rect x="82.4822" width="30.5533" height="30.5533" rx="8" fill="#434346"/>
<path d="M98.7696 16.8777L100.228 16.8854V21.2926C100.175 21.29 100.123 21.2857 100.07 21.2857C95.7529 21.2857 91.4356 21.2857 87.1183 21.2857C87.0706 21.2857 87.023 21.29 86.9753 21.2926C86.9753 19.8237 86.9753 18.3543 86.9753 16.8854C87.4209 16.8846 87.866 16.8799 88.3116 16.8846C88.4172 16.8859 88.4511 16.8593 88.4494 16.7501C88.4429 16.3544 88.4502 15.9587 88.4446 15.563C88.4433 15.4559 88.4652 15.4122 88.585 15.4144C88.9872 15.4217 89.3898 15.4217 89.7916 15.4144C89.9101 15.4122 89.9345 15.4538 89.9328 15.5621C89.9272 15.9578 89.9272 16.3535 89.9328 16.7492C89.9345 16.8533 89.9096 16.8889 89.7989 16.8867C89.3967 16.8799 88.9941 16.8876 88.5919 16.8816C88.4854 16.8799 88.4541 16.9077 88.4545 17.016C88.4588 17.903 88.4588 18.7899 88.4545 19.6763C88.4541 19.7855 88.488 19.81 88.5931 19.81C91.9361 19.8074 95.279 19.8074 98.6219 19.81C98.7309 19.81 98.758 19.7791 98.7576 19.6733C98.7537 18.7959 98.755 17.9188 98.7558 17.0413C98.7558 16.9852 98.7412 16.9265 98.7734 16.8734L98.7692 16.8769L98.7696 16.8777Z" fill="#16DE93"/>
<path d="M91.4025 9.55869C91.3995 9.09618 91.3974 8.6341 91.3935 8.17202C91.3931 8.10821 91.4227 8.08765 91.4811 8.09108C91.5098 8.09279 91.5386 8.09108 91.5674 8.09108C92.928 8.09108 94.2887 8.09322 95.649 8.08765C95.7932 8.08722 95.8228 8.13219 95.8198 8.26537C95.8113 8.64652 95.8203 9.02852 95.8147 9.41009C95.813 9.51972 95.8422 9.55826 95.9585 9.55612C96.356 9.54927 96.7539 9.55612 97.1513 9.55141C97.2526 9.55013 97.293 9.5694 97.2926 9.68331C97.2887 11.0666 97.2891 12.4494 97.2921 13.8326C97.2921 13.9346 97.2591 13.962 97.1604 13.9607C96.7582 13.956 96.3555 13.962 95.9533 13.9564C95.8482 13.9551 95.813 13.9817 95.8147 14.0909C95.8211 14.4913 95.8147 14.8921 95.819 15.2925C95.8198 15.388 95.7971 15.4245 95.6924 15.4245C94.3029 15.421 92.9139 15.4206 91.5244 15.4249C91.4098 15.4249 91.3909 15.3838 91.3922 15.284C91.3969 14.893 91.3896 14.5016 91.3969 14.1106C91.3991 13.9937 91.3695 13.9551 91.2476 13.9573C90.8548 13.9645 90.4621 13.9573 90.0693 13.962C89.9633 13.9633 89.9186 13.9431 89.9191 13.8232C89.9234 12.4447 89.9229 11.0666 89.9191 9.68802C89.9191 9.57839 89.9521 9.55355 90.0577 9.55441C90.508 9.55869 90.9583 9.55441 91.4085 9.5527C91.4064 9.57154 91.4021 9.59038 91.4021 9.60965C91.4021 11.0165 91.403 12.4237 91.3991 13.8305C91.3991 13.9466 91.4527 13.947 91.5382 13.947C92.913 13.9453 94.2883 13.9448 95.6632 13.9478C95.7713 13.9478 95.81 13.9251 95.8095 13.8078C95.8052 12.434 95.8052 11.0606 95.8095 9.68674C95.8095 9.57668 95.7769 9.55398 95.6722 9.55398C94.2492 9.55784 92.8263 9.55655 91.4034 9.55698L91.4025 9.55869Z" fill="#16DE93"/>
<path d="M98.7737 16.8743C98.3003 16.8777 97.8268 16.8803 97.3534 16.885C97.2954 16.8854 97.2787 16.8584 97.2787 16.807C97.2791 16.3732 97.2795 15.9394 97.2778 15.506C97.2778 15.4358 97.31 15.4169 97.374 15.4174C97.8049 15.4187 98.2359 15.4204 98.6664 15.4165C98.763 15.4157 98.7591 15.4696 98.7591 15.536C98.7579 15.9317 98.7583 16.3274 98.7591 16.7227C98.7591 16.7745 98.7651 16.8267 98.7686 16.8786L98.7733 16.8747L98.7737 16.8743Z" fill="#16DE93"/>
<path d="M106.857 16.8777L108.315 16.8854V21.2926C108.263 21.29 108.211 21.2857 108.158 21.2857C103.841 21.2857 99.5232 21.2857 95.2059 21.2857C95.1583 21.2857 95.1106 21.29 95.063 21.2926C95.063 19.8237 95.063 18.3543 95.063 16.8854C95.5085 16.8846 95.9537 16.8799 96.3992 16.8846C96.5048 16.8859 96.5387 16.8593 96.537 16.7501C96.5306 16.3544 96.5379 15.9587 96.5323 15.563C96.531 15.4559 96.5529 15.4122 96.6726 15.4144C97.0748 15.4217 97.4775 15.4217 97.8792 15.4144C97.9977 15.4122 98.0222 15.4538 98.0205 15.5621C98.0149 15.9578 98.0149 16.3535 98.0205 16.7492C98.0222 16.8533 97.9973 16.8889 97.8865 16.8867C97.4843 16.8799 97.0817 16.8876 96.6795 16.8816C96.5731 16.8799 96.5417 16.9077 96.5422 17.016C96.5464 17.903 96.5464 18.7899 96.5422 19.6763C96.5417 19.7855 96.5756 19.81 96.6808 19.81C100.024 19.8074 103.367 19.8074 106.71 19.81C106.819 19.81 106.846 19.7791 106.845 19.6733C106.841 18.7959 106.843 17.9188 106.843 17.0413C106.843 16.9852 106.829 16.9265 106.861 16.8734L106.857 16.8769L106.857 16.8777Z" fill="#16DE93"/>
<path d="M99.4902 9.55869C99.4872 9.09618 99.485 8.6341 99.4812 8.17202C99.4807 8.10821 99.5103 8.08765 99.5687 8.09108C99.5975 8.09279 99.6262 8.09108 99.655 8.09108C101.016 8.09108 102.376 8.09322 103.737 8.08765C103.881 8.08722 103.91 8.13219 103.907 8.26537C103.899 8.64652 103.908 9.02852 103.902 9.41009C103.901 9.51972 103.93 9.55826 104.046 9.55612C104.444 9.54927 104.842 9.55612 105.239 9.55141C105.34 9.55013 105.381 9.5694 105.38 9.68331C105.376 11.0666 105.377 12.4494 105.38 13.8326C105.38 13.9346 105.347 13.962 105.248 13.9607C104.846 13.956 104.443 13.962 104.041 13.9564C103.936 13.9551 103.901 13.9817 103.902 14.0909C103.909 14.4913 103.902 14.8921 103.907 15.2925C103.907 15.388 103.885 15.4245 103.78 15.4245C102.391 15.421 101.002 15.4206 99.6121 15.4249C99.4975 15.4249 99.4786 15.3838 99.4799 15.284C99.4846 14.893 99.4773 14.5016 99.4846 14.1106C99.4867 13.9937 99.4571 13.9551 99.3352 13.9573C98.9425 13.9645 98.5497 13.9573 98.157 13.962C98.0509 13.9633 98.0063 13.9431 98.0067 13.8232C98.011 12.4447 98.0106 11.0666 98.0067 9.68802C98.0067 9.57839 98.0398 9.55355 98.1454 9.55441C98.5956 9.55869 99.0459 9.55441 99.4962 9.5527C99.494 9.57154 99.4897 9.59038 99.4897 9.60965C99.4897 11.0165 99.4906 12.4237 99.4867 13.8305C99.4867 13.9466 99.5404 13.947 99.6258 13.947C101.001 13.9453 102.376 13.9448 103.751 13.9478C103.859 13.9478 103.898 13.9251 103.897 13.8078C103.893 12.434 103.893 11.0606 103.897 9.68674C103.897 9.57668 103.865 9.55398 103.76 9.55398C102.337 9.55784 100.914 9.55655 99.491 9.55698L99.4902 9.55869Z" fill="#16DE93"/>
<path d="M106.862 16.8743C106.388 16.8777 105.915 16.8803 105.441 16.885C105.383 16.8854 105.366 16.8584 105.366 16.807C105.367 16.3732 105.367 15.9394 105.366 15.506C105.366 15.4358 105.398 15.4169 105.462 15.4174C105.893 15.4187 106.324 15.4204 106.754 15.4165C106.851 15.4157 106.847 15.4696 106.847 15.536C106.846 15.9317 106.846 16.3274 106.847 16.7227C106.847 16.7745 106.853 16.8267 106.856 16.8786L106.861 16.8747L106.862 16.8743Z" fill="#16DE93"/>
<rect x="165" width="30.5533" height="30.5533" rx="8" fill="#434346"/>
<path d="M178.137 16.2932L179.206 16.2989V19.5288C179.167 19.5269 179.129 19.5238 179.09 19.5238C175.926 19.5238 172.762 19.5238 169.598 19.5238C169.563 19.5238 169.528 19.5269 169.493 19.5288C169.493 18.4523 169.493 17.3754 169.493 16.2989C169.82 16.2982 170.146 16.2948 170.472 16.2982C170.55 16.2992 170.575 16.2797 170.573 16.1997C170.569 15.9097 170.574 15.6197 170.57 15.3297C170.569 15.2512 170.585 15.2192 170.673 15.2208C170.968 15.2261 171.263 15.2261 171.557 15.2208C171.644 15.2192 171.662 15.2496 171.661 15.329C171.656 15.619 171.656 15.9091 171.661 16.1991C171.662 16.2753 171.644 16.3014 171.562 16.2998C171.268 16.2948 170.973 16.3004 170.678 16.296C170.6 16.2948 170.577 16.3152 170.577 16.3946C170.58 17.0446 170.58 17.6946 170.577 18.3443C170.577 18.4243 170.602 18.4422 170.679 18.4422C173.129 18.4403 175.579 18.4403 178.029 18.4422C178.109 18.4422 178.128 18.4196 178.128 18.3421C178.125 17.699 178.126 17.0562 178.127 16.4131C178.127 16.372 178.116 16.329 178.14 16.2901L178.137 16.2926L178.137 16.2932Z" fill="#16DE93"/>
<path d="M172.738 10.9294C172.736 10.5905 172.734 10.2518 172.731 9.91315C172.731 9.86639 172.753 9.85132 172.795 9.85383C172.816 9.85509 172.837 9.85383 172.859 9.85383C173.856 9.85383 174.853 9.8554 175.85 9.85132C175.956 9.85101 175.977 9.88396 175.975 9.98157C175.969 10.2609 175.975 10.5409 175.971 10.8205C175.97 10.9009 175.991 10.9291 176.077 10.9275C176.368 10.9225 176.66 10.9275 176.951 10.9241C177.025 10.9232 177.055 10.9373 177.054 11.0208C177.052 12.0345 177.052 13.048 177.054 14.0618C177.054 14.1364 177.03 14.1565 176.958 14.1556C176.663 14.1521 176.368 14.1565 176.073 14.1525C175.996 14.1515 175.97 14.171 175.971 14.251C175.976 14.5445 175.971 14.8382 175.974 15.1317C175.975 15.2017 175.958 15.2284 175.882 15.2284C174.863 15.2259 173.845 15.2255 172.827 15.2287C172.743 15.2287 172.729 15.1986 172.73 15.1254C172.734 14.8389 172.728 14.552 172.734 14.2654C172.735 14.1798 172.713 14.1515 172.624 14.1531C172.336 14.1584 172.048 14.1531 171.761 14.1565C171.683 14.1575 171.65 14.1427 171.651 14.0548C171.654 13.0445 171.653 12.0345 171.651 11.0242C171.651 10.9439 171.675 10.9257 171.752 10.9263C172.082 10.9294 172.412 10.9263 172.742 10.925C172.741 10.9388 172.737 10.9527 172.737 10.9668C172.737 11.9978 172.738 13.0292 172.735 14.0602C172.735 14.1452 172.775 14.1456 172.837 14.1456C173.845 14.1443 174.853 14.144 175.86 14.1462C175.94 14.1462 175.968 14.1295 175.968 14.0435C175.964 13.0367 175.964 12.0301 175.968 11.0233C175.968 10.9426 175.944 10.926 175.867 10.926C174.824 10.9288 173.781 10.9279 172.738 10.9282L172.738 10.9294Z" fill="#16DE93"/>
<path d="M178.14 16.291C177.793 16.2936 177.446 16.2954 177.099 16.2989C177.057 16.2992 177.044 16.2794 177.044 16.2418C177.045 15.9238 177.045 15.6059 177.044 15.2883C177.044 15.2368 177.067 15.223 177.114 15.2233C177.43 15.2242 177.746 15.2255 178.061 15.2227C178.132 15.222 178.129 15.2616 178.129 15.3102C178.128 15.6002 178.129 15.8902 178.129 16.1799C178.129 16.2179 178.134 16.2562 178.136 16.2942L178.14 16.2914L178.14 16.291Z" fill="#16DE93"/>
<path d="M184.064 16.2932L185.133 16.2989V19.5288C185.095 19.5269 185.056 19.5238 185.017 19.5238C181.853 19.5238 178.689 19.5238 175.525 19.5238C175.49 19.5238 175.455 19.5269 175.42 19.5288C175.42 18.4523 175.42 17.3754 175.42 16.2989C175.747 16.2982 176.073 16.2948 176.4 16.2982C176.477 16.2992 176.502 16.2797 176.501 16.1997C176.496 15.9097 176.501 15.6197 176.497 15.3297C176.496 15.2512 176.512 15.2192 176.6 15.2208C176.895 15.2261 177.19 15.2261 177.484 15.2208C177.571 15.2192 177.589 15.2496 177.588 15.329C177.584 15.619 177.584 15.9091 177.588 16.1991C177.589 16.2753 177.571 16.3014 177.49 16.2998C177.195 16.2948 176.9 16.3004 176.605 16.296C176.527 16.2948 176.504 16.3152 176.504 16.3946C176.508 17.0446 176.508 17.6946 176.504 18.3443C176.504 18.4243 176.529 18.4422 176.606 18.4422C179.056 18.4403 181.506 18.4403 183.956 18.4422C184.036 18.4422 184.056 18.4196 184.055 18.3421C184.053 17.699 184.054 17.0562 184.054 16.4131C184.054 16.372 184.043 16.329 184.067 16.2901L184.064 16.2926L184.064 16.2932Z" fill="#16DE93"/>
<path d="M178.665 10.9294C178.663 10.5905 178.661 10.2518 178.658 9.91315C178.658 9.86639 178.68 9.85132 178.723 9.85383C178.744 9.85509 178.765 9.85383 178.786 9.85383C179.783 9.85383 180.78 9.8554 181.777 9.85132C181.883 9.85101 181.905 9.88396 181.902 9.98157C181.896 10.2609 181.903 10.5409 181.899 10.8205C181.897 10.9009 181.919 10.9291 182.004 10.9275C182.295 10.9225 182.587 10.9275 182.878 10.9241C182.953 10.9232 182.982 10.9373 182.982 11.0208C182.979 12.0345 182.979 13.048 182.982 14.0618C182.982 14.1364 182.957 14.1565 182.885 14.1556C182.59 14.1521 182.295 14.1565 182 14.1525C181.923 14.1515 181.897 14.171 181.899 14.251C181.903 14.5445 181.899 14.8382 181.902 15.1317C181.902 15.2017 181.886 15.2284 181.809 15.2284C180.791 15.2259 179.773 15.2255 178.754 15.2287C178.67 15.2287 178.657 15.1986 178.658 15.1254C178.661 14.8389 178.656 14.552 178.661 14.2654C178.663 14.1798 178.641 14.1515 178.552 14.1531C178.264 14.1584 177.976 14.1531 177.688 14.1565C177.61 14.1575 177.578 14.1427 177.578 14.0548C177.581 13.0445 177.581 12.0345 177.578 11.0242C177.578 10.9439 177.602 10.9257 177.679 10.9263C178.009 10.9294 178.339 10.9263 178.669 10.925C178.668 10.9388 178.665 10.9527 178.665 10.9668C178.665 11.9978 178.665 13.0292 178.663 14.0602C178.663 14.1452 178.702 14.1456 178.764 14.1456C179.772 14.1443 180.78 14.144 181.788 14.1462C181.867 14.1462 181.895 14.1295 181.895 14.0435C181.892 13.0367 181.892 12.0301 181.895 11.0233C181.895 10.9426 181.871 10.926 181.794 10.926C180.751 10.9288 179.709 10.9279 178.666 10.9282L178.665 10.9294Z" fill="#16DE93"/>
<path d="M184.068 16.291C183.721 16.2936 183.374 16.2954 183.027 16.2989C182.984 16.2992 182.972 16.2794 182.972 16.2418C182.972 15.9238 182.972 15.6059 182.971 15.2883C182.971 15.2368 182.995 15.223 183.042 15.2233C183.358 15.2242 183.673 15.2255 183.989 15.2227C184.06 15.222 184.057 15.2616 184.057 15.3102C184.056 15.6002 184.056 15.8902 184.057 16.1799C184.057 16.2179 184.061 16.2562 184.064 16.2942L184.067 16.2914L184.068 16.291Z" fill="#16DE93"/>
<path d="M189.992 16.2932L191.06 16.2989V19.5288C191.022 19.5269 190.983 19.5238 190.945 19.5238C187.781 19.5238 184.617 19.5238 181.452 19.5238C181.417 19.5238 181.383 19.5269 181.348 19.5288C181.348 18.4523 181.348 17.3754 181.348 16.2989C181.674 16.2982 182 16.2948 182.327 16.2982C182.404 16.2992 182.429 16.2797 182.428 16.1997C182.423 15.9097 182.429 15.6197 182.424 15.3297C182.424 15.2512 182.44 15.2192 182.527 15.2208C182.822 15.2261 183.117 15.2261 183.412 15.2208C183.498 15.2192 183.516 15.2496 183.515 15.329C183.511 15.619 183.511 15.9091 183.515 16.1991C183.516 16.2753 183.498 16.3014 183.417 16.2998C183.122 16.2948 182.827 16.3004 182.532 16.296C182.454 16.2948 182.431 16.3152 182.432 16.3946C182.435 17.0446 182.435 17.6946 182.432 18.3443C182.431 18.4243 182.456 18.4422 182.533 18.4422C184.983 18.4403 187.433 18.4403 189.883 18.4422C189.963 18.4422 189.983 18.4196 189.983 18.3421C189.98 17.699 189.981 17.0562 189.981 16.4131C189.981 16.372 189.971 16.329 189.994 16.2901L189.991 16.2926L189.992 16.2932Z" fill="#16DE93"/>
<path d="M184.592 10.9294C184.59 10.5905 184.589 10.2518 184.586 9.91315C184.585 9.86639 184.607 9.85132 184.65 9.85383C184.671 9.85509 184.692 9.85383 184.713 9.85383C185.71 9.85383 186.708 9.8554 187.705 9.85132C187.81 9.85101 187.832 9.88396 187.83 9.98157C187.823 10.2609 187.83 10.5409 187.826 10.8205C187.825 10.9009 187.846 10.9291 187.931 10.9275C188.223 10.9225 188.514 10.9275 188.806 10.9241C188.88 10.9232 188.909 10.9373 188.909 11.0208C188.906 12.0345 188.907 13.048 188.909 14.0618C188.909 14.1364 188.885 14.1565 188.812 14.1556C188.517 14.1521 188.222 14.1565 187.928 14.1525C187.85 14.1515 187.825 14.171 187.826 14.251C187.831 14.5445 187.826 14.8382 187.829 15.1317C187.83 15.2017 187.813 15.2284 187.736 15.2284C186.718 15.2259 185.7 15.2255 184.682 15.2287C184.598 15.2287 184.584 15.1986 184.585 15.1254C184.588 14.8389 184.583 14.552 184.588 14.2654C184.59 14.1798 184.568 14.1515 184.479 14.1531C184.191 14.1584 183.903 14.1531 183.615 14.1565C183.538 14.1575 183.505 14.1427 183.505 14.0548C183.508 13.0445 183.508 12.0345 183.505 11.0242C183.505 10.9439 183.529 10.9257 183.607 10.9263C183.937 10.9294 184.267 10.9263 184.597 10.925C184.595 10.9388 184.592 10.9527 184.592 10.9668C184.592 11.9978 184.593 13.0292 184.59 14.0602C184.59 14.1452 184.629 14.1456 184.692 14.1456C185.699 14.1443 186.707 14.144 187.715 14.1462C187.794 14.1462 187.822 14.1295 187.822 14.0435C187.819 13.0367 187.819 12.0301 187.822 11.0233C187.822 10.9426 187.798 10.926 187.722 10.926C186.679 10.9288 185.636 10.9279 184.593 10.9282L184.592 10.9294Z" fill="#16DE93"/>
<path d="M189.995 16.291C189.648 16.2936 189.301 16.2954 188.954 16.2989C188.911 16.2992 188.899 16.2794 188.899 16.2418C188.899 15.9238 188.9 15.6059 188.898 15.2883C188.898 15.2368 188.922 15.223 188.969 15.2233C189.285 15.2242 189.601 15.2255 189.916 15.2227C189.987 15.222 189.984 15.2616 189.984 15.3102C189.983 15.6002 189.983 15.8902 189.984 16.1799C189.984 16.2179 189.988 16.2562 189.991 16.2942L189.994 16.2914L189.995 16.291Z" fill="#16DE93"/>
<path d="M30.5 14H82" stroke="white" stroke-dasharray="2 2"/>
<path d="M113 14H164.5" stroke="white" stroke-dasharray="2 2"/>
</svg>
