<svg width="18" height="17" viewBox="0 0 18 17" fill="none" xmlns="http://www.w3.org/2000/svg">
<path d="M17.87 4.46625V11.9409C17.4221 11.9377 16.9747 11.939 16.5268 11.929C16.3843 11.9258 16.3683 11.9939 16.3696 12.1095C16.3742 12.4587 16.361 12.8083 16.3756 13.157C16.3833 13.348 16.3445 13.4266 16.1311 13.4139C15.7828 13.3937 15.4328 13.4152 15.0836 13.4052C14.9305 13.4006 14.8889 13.455 14.8926 13.6012C14.9017 13.9504 14.8848 14.3 14.8994 14.6487C14.9077 14.8425 14.8629 14.9138 14.6527 14.9056C14.2359 14.8891 13.8177 14.9047 13.4004 14.9074C13.4004 14.4824 13.3908 14.0569 13.4036 13.6323C13.4091 13.4522 13.3557 13.4024 13.1756 13.4038C12.2342 13.4125 11.2927 13.4075 10.3513 13.4075C8.4684 13.4075 6.58506 13.4047 4.70218 13.412C4.51024 13.4129 4.45722 13.3586 4.46636 13.1712C4.4819 12.8453 4.45951 12.5181 4.47459 12.1922C4.48373 11.9934 4.43894 11.9121 4.21912 11.9253C3.87865 11.9459 3.53589 11.9226 3.1945 11.934C3.02815 11.9395 2.96646 11.8952 2.97194 11.7197C2.98428 11.3253 2.9756 10.9304 2.9756 10.5355C2.9756 8.59957 2.97285 6.66408 2.97971 4.72813C2.98062 4.53709 2.92761 4.48088 2.73841 4.4891C2.40479 4.50418 2.0698 4.50464 1.73664 4.4891C1.54561 4.47996 1.49717 4.53892 1.49808 4.72858C1.5054 6.65676 1.50174 8.58494 1.50265 10.5131C1.50357 11.9783 1.50722 13.4431 1.50951 14.9083C1.08403 14.9056 0.658558 14.8914 0.233995 14.9051C0.0361103 14.9115 -0.00502058 14.8443 0.000463531 14.6611C0.0137168 14.221 0.00457662 13.7804 0.00457662 13.3398C0.00457662 10.4615 0.00594765 7.58269 0.000920541 4.70436C0.000920541 4.53252 0.0356533 4.46305 0.224398 4.47128C0.580866 4.48682 0.938704 4.46899 1.29517 4.47905C1.4501 4.48362 1.50814 4.44203 1.50265 4.27796C1.49123 3.92148 1.50905 3.56363 1.49489 3.20715C1.48803 3.03028 1.54881 2.98961 1.71425 2.99509C2.07849 3.00652 2.44364 2.99418 2.80787 3.00104C2.93812 3.00332 2.97971 2.95807 2.97742 2.83011C2.97103 2.48094 2.98794 2.13086 2.97057 1.78215C2.96006 1.57101 3.00713 1.48875 3.23929 1.50063C3.64831 1.52165 4.05962 1.50611 4.46956 1.50611L4.46408 1.50017C4.46636 1.58335 4.47048 1.66698 4.47093 1.75016C4.47093 5.04484 4.47322 8.33998 4.46682 11.6347C4.46682 11.8426 4.5011 11.9185 4.73326 11.918C8.53009 11.9098 12.3265 11.9107 16.1233 11.9171C16.3258 11.9171 16.3728 11.8636 16.3724 11.6648C16.3651 9.36463 16.3646 7.06397 16.3728 4.76377C16.3738 4.54577 16.3226 4.48682 16.1005 4.48819C14.2857 4.49779 12.4709 4.49093 10.6561 4.49733C10.4701 4.49779 10.4029 4.45163 10.4116 4.25831C10.4267 3.92514 10.4015 3.58968 10.4207 3.25651C10.4335 3.03805 10.3526 2.99052 10.152 2.99966C9.81109 3.0152 9.46879 2.99784 9.12695 3.00698C8.98436 3.01063 8.92769 2.97727 8.9318 2.82097C8.94277 2.38085 8.93683 1.94028 8.93775 1.50017L8.93226 1.50611C9.37282 1.50611 9.81338 1.51114 10.2539 1.50337C10.3947 1.50109 10.4377 1.54587 10.4345 1.68481C10.4258 2.0262 10.4317 2.36851 10.4317 2.70991C10.4317 2.90186 10.5306 2.99784 10.7283 2.99784C12.5212 2.99784 14.314 3.00241 16.1069 2.99189C16.3344 2.99052 16.387 3.05679 16.376 3.27114C16.3578 3.61939 16.3751 3.96992 16.3692 4.31909C16.3674 4.43746 16.4071 4.47859 16.5259 4.47676C16.9738 4.46899 17.4217 4.46899 17.8695 4.46579L17.87 4.46625Z" fill="white"/>
<path d="M8.93492 0C8.934 0.502268 8.93309 1.00454 8.93217 1.50681L8.93766 1.50086C7.44643 1.50086 5.95521 1.50086 4.46399 1.50086L4.46947 1.50681C4.46856 1.00454 4.4681 0.502725 4.46719 0.000457023H8.93446L8.93492 0Z" fill="white"/>
<path d="M1.50167 14.8996C5.46989 14.8996 9.4381 14.8996 13.4059 14.8996C13.404 15.3018 13.3885 15.7049 13.4059 16.1066C13.4155 16.3306 13.362 16.3987 13.1234 16.3977C10.1158 16.3886 7.10827 16.3918 4.10069 16.3918C3.31097 16.3918 2.5208 16.385 1.73109 16.3964C1.53549 16.3991 1.48842 16.337 1.49482 16.1519C1.50853 15.7346 1.50076 15.3169 1.50167 14.8992V14.8996Z" fill="white"/>
</svg>
