<svg width="12" height="14" viewBox="0 0 12 14" fill="none" xmlns="http://www.w3.org/2000/svg">
<path d="M0 12.4885V1.45276C0.414056 1.45125 0.828113 1.44975 1.24217 1.44824C1.23991 1.49831 1.23539 1.54799 1.23539 1.59806C1.23539 5.22895 1.23539 8.86023 1.23615 12.4911L1.24029 12.487C0.826984 12.4877 0.413304 12.4881 0 12.4889V12.4885Z" fill="#131314"/>
<path d="M9.79136 13.7272H1.23809C1.23884 13.3135 1.23959 12.9002 1.24035 12.4865L1.23621 12.4907C1.66043 12.4884 2.08502 12.4839 2.50924 12.4839C4.93749 12.4839 7.36612 12.4854 9.79438 12.4865C9.79325 12.9002 9.79212 13.3139 9.79099 13.7272H9.79136Z" fill="#131314"/>
<path d="M9.78782 12.4919C9.7897 11.6103 9.79309 10.7284 9.79384 9.84679C9.79497 8.33963 9.79158 6.83246 9.79761 5.32567C9.79836 5.17134 9.76034 5.12768 9.603 5.12881C8.50312 5.13596 7.40323 5.12994 6.30335 5.13596C6.15692 5.13671 6.11514 5.09869 6.11627 4.95001C6.12267 3.85577 6.11514 2.76116 6.12417 1.66692C6.12568 1.48775 6.06846 1.45462 5.90397 1.455C4.34787 1.45989 2.79177 1.4565 1.23567 1.45575C1.23417 1.09364 1.23643 0.731152 1.22852 0.369041C1.22551 0.247459 1.27595 0.224121 1.3836 0.224498C3.7313 0.226756 6.07863 0.227132 8.42633 0.224121C8.54979 0.224121 8.58818 0.264398 8.58517 0.38598C8.57765 0.673184 8.59496 0.961518 8.5784 1.24797C8.56786 1.42865 8.63411 1.46554 8.79785 1.45839C9.08468 1.44596 9.37226 1.45876 9.65946 1.45312C9.76335 1.45086 9.8025 1.48059 9.80062 1.58938C9.79384 1.95789 9.79572 2.3264 9.79422 2.69491C9.43813 2.69303 9.08204 2.6855 8.72595 2.6919C8.60211 2.69416 8.56296 2.65539 8.5656 2.53343C8.572 2.22703 8.56221 1.92062 8.57012 1.61422C8.5735 1.48925 8.53059 1.45312 8.40939 1.45575C8.10336 1.4629 7.79696 1.4614 7.49094 1.45613C7.38893 1.45425 7.34865 1.48097 7.3494 1.59126C7.35354 2.31661 7.35354 3.04196 7.3494 3.76731C7.34865 3.8776 7.38817 3.90245 7.49018 3.90207C8.21516 3.89868 8.93976 3.89906 9.66473 3.90207C9.75884 3.90207 9.79761 3.8776 9.79572 3.77635C9.78895 3.41386 9.79008 3.05137 9.7882 2.68889C10.1379 2.68738 10.488 2.69416 10.8369 2.68061C10.9976 2.67421 11.0304 2.72841 11.03 2.88048C11.0251 4.93646 11.0266 6.99282 11.0266 9.04879C11.0266 10.1363 11.0243 11.2237 11.0296 12.3112C11.0304 12.4478 10.9999 12.4945 10.8553 12.4907C10.4996 12.4813 10.1435 12.4907 9.78744 12.4926L9.78782 12.4919Z" fill="#131314"/>
</svg>
