<svg width="15" height="15" viewBox="0 0 15 15" fill="none" xmlns="http://www.w3.org/2000/svg">
<path d="M12.953 9.6538L14.5543 9.66227V14.5023C14.4968 14.4995 14.4393 14.4948 14.3813 14.4948C9.63993 14.4948 4.89851 14.4948 0.157101 14.4948C0.104775 14.4948 0.0524483 14.4995 0.00012207 14.5023C0.00012207 12.8891 0.00012207 11.2755 0.00012207 9.66227C0.489443 9.66133 0.978292 9.65615 1.46761 9.66133C1.58358 9.66274 1.62082 9.63358 1.61894 9.51365C1.61186 9.07907 1.61988 8.64449 1.61375 8.20992C1.61233 8.09234 1.63638 8.04437 1.7679 8.04672C2.20961 8.05471 2.65179 8.05471 3.09302 8.04672C3.22313 8.04437 3.25 8.08999 3.24812 8.20898C3.24199 8.64355 3.24199 9.07813 3.24812 9.51271C3.25 9.62699 3.22266 9.66603 3.10104 9.66368C2.65933 9.65615 2.21715 9.66462 1.77544 9.65804C1.65853 9.65615 1.62412 9.68673 1.62459 9.80572C1.62931 10.7798 1.62931 11.7538 1.62459 12.7273C1.62412 12.8473 1.66136 12.8741 1.77686 12.8741C5.44817 12.8713 9.11949 12.8713 12.7908 12.8741C12.9105 12.8741 12.9402 12.8402 12.9398 12.7241C12.9355 11.7604 12.9369 10.7972 12.9379 9.83347C12.9379 9.77185 12.9219 9.70742 12.9572 9.6491L12.9525 9.65286L12.953 9.6538Z" fill="white"/>
<path d="M4.8624 1.61556C4.8591 1.10761 4.85674 0.600133 4.8525 0.0926565C4.85203 0.0225787 4.88456 3.31919e-06 4.94867 0.00376589C4.98025 0.00564717 5.01184 0.00376589 5.04342 0.00376589C6.53778 0.00376589 8.03214 0.00611749 9.52603 3.32282e-06C9.68442 -0.000466998 9.71695 0.0489167 9.71365 0.195186C9.70422 0.613772 9.71412 1.0333 9.70799 1.45235C9.70611 1.57276 9.73816 1.61509 9.86592 1.61273C10.3024 1.60521 10.7394 1.61273 11.176 1.60756C11.2872 1.60615 11.3315 1.62731 11.331 1.75242C11.3268 3.27155 11.3273 4.79022 11.3306 6.30936C11.3306 6.42129 11.2943 6.45139 11.1859 6.44998C10.7441 6.44481 10.302 6.45139 9.86026 6.44528C9.74476 6.44387 9.70611 6.47303 9.70799 6.59296C9.71506 7.03271 9.70799 7.47293 9.71271 7.91268C9.71365 8.01756 9.68867 8.05754 9.57364 8.05754C8.0477 8.05378 6.52222 8.05331 4.99628 8.05801C4.87041 8.05801 4.84967 8.01286 4.85109 7.90327C4.85627 7.47387 4.84826 7.044 4.85627 6.6146C4.85863 6.4862 4.8261 6.44387 4.69222 6.44622C4.26089 6.45422 3.82955 6.44622 3.39821 6.45139C3.28177 6.45281 3.23275 6.4307 3.23322 6.29901C3.23793 4.78505 3.23746 3.27155 3.23322 1.75759C3.23322 1.63719 3.26952 1.60991 3.38548 1.61085C3.87999 1.61556 4.3745 1.61085 4.869 1.60897C4.86664 1.62967 4.86193 1.65036 4.86193 1.67152C4.86193 3.21653 4.86287 4.762 4.85863 6.30701C4.85863 6.43446 4.91755 6.43493 5.01136 6.43493C6.52128 6.43305 8.03167 6.43258 9.54159 6.43587C9.66038 6.43587 9.70281 6.41095 9.70234 6.28208C9.69762 4.77329 9.69762 3.26497 9.70234 1.75618C9.70234 1.63531 9.66651 1.61038 9.55149 1.61038C7.98877 1.61461 6.42606 1.6132 4.86334 1.61367L4.8624 1.61556Z" fill="white"/>
<path d="M12.9579 9.65005C12.4379 9.65382 11.9179 9.65664 11.398 9.66181C11.3343 9.66228 11.3159 9.63265 11.3159 9.57621C11.3164 9.09978 11.3169 8.62334 11.315 8.14738C11.315 8.07025 11.3504 8.04955 11.4206 8.05002C11.8939 8.05143 12.3672 8.05332 12.84 8.04908C12.9461 8.04814 12.9418 8.1074 12.9418 8.1803C12.9404 8.61488 12.9409 9.04946 12.9418 9.48356C12.9418 9.54047 12.9484 9.59785 12.9522 9.65476L12.9574 9.65052L12.9579 9.65005Z" fill="white"/>
</svg>
