<svg width="96" height="96" viewBox="0 0 96 96" fill="none" xmlns="http://www.w3.org/2000/svg">
<path d="M48.2975 95.7575C74.5572 95.7575 95.8449 74.4698 95.8449 48.2101C95.8449 21.9503 74.5572 0.662598 48.2975 0.662598C22.0377 0.662598 0.75 21.9503 0.75 48.2101C0.75 74.4698 22.0377 95.7575 48.2975 95.7575Z" fill="#627EEA"/>
<path d="M50.1289 13.4326V38.6535L72.0739 48.1788L50.1289 13.4326Z" fill="white" fill-opacity="0.602"/>
<path d="M50.152 13.4326L28.207 48.1788L50.152 38.6535V13.4326Z" fill="white"/>
<path d="M50.1289 65.9457V82.9367L72.0739 53.6768L50.1289 65.9457Z" fill="white" fill-opacity="0.602"/>
<path d="M50.152 82.9367V65.9429L28.207 53.6768L50.152 82.9367Z" fill="white"/>
<path d="M50.1289 60.9572L72.0739 48.5528L50.1289 39.0122V60.9572Z" fill="white" fill-opacity="0.2"/>
<path d="M28.207 48.5528L50.152 60.9572V39.0122L28.207 48.5528Z" fill="white" fill-opacity="0.602"/>
</svg>
