<svg width="9" height="12" viewBox="0 0 9 12" fill="none" xmlns="http://www.w3.org/2000/svg">
<path d="M0.4375 1.8746C0.921033 1.87092 1.4049 1.86656 1.88843 1.86321C2.12869 1.86153 2.12869 1.86287 2.12903 1.62999C2.12903 1.19571 2.13405 0.761103 2.12635 0.326829C2.124 0.180395 2.17594 0.132812 2.31936 0.132812C3.91069 0.136163 5.50169 0.136163 7.09269 0.132812C7.24314 0.132812 7.29709 0.1814 7.29374 0.335876C7.28503 0.764454 7.29073 1.19337 7.29073 1.62228C7.29073 1.78268 7.36836 1.86299 7.52361 1.86321C7.9465 1.86321 8.36938 1.8679 8.79192 1.86086C8.93668 1.85852 8.998 1.89303 8.997 2.05454C8.9903 3.07924 8.99063 4.10394 8.997 5.12864C8.998 5.28882 8.93735 5.32769 8.79159 5.32568C8.36335 5.31931 7.93477 5.33037 7.50652 5.31998C7.342 5.31596 7.28134 5.35818 7.28671 5.5331C7.2991 5.95028 7.29106 6.36847 7.29073 6.78599C7.29073 6.94817 7.20651 7.02949 7.03807 7.02994C6.63194 7.02994 6.22582 7.02994 5.81969 7.02994C5.6651 7.02994 5.58758 7.10511 5.58714 7.25545C5.58714 7.68436 5.58278 8.11328 5.58948 8.54185C5.59149 8.68326 5.55095 8.74056 5.40083 8.73788C4.93908 8.73017 4.47733 8.73118 4.01557 8.73721C3.87919 8.73889 3.82893 8.69365 3.83061 8.55492C3.83664 8.09284 3.83731 7.63041 3.83027 7.16833C3.82792 7.01854 3.88623 6.97599 4.0273 6.978C4.45554 6.98403 4.88412 6.98034 5.31237 6.98001C5.53654 6.98001 5.53721 6.97934 5.53754 6.76187C5.53822 6.33295 5.54224 5.90404 5.53553 5.47546C5.53319 5.32668 5.57843 5.26771 5.73525 5.27072C6.18024 5.2791 6.62524 5.27005 7.07024 5.27575C7.19925 5.27742 7.24683 5.23554 7.2465 5.10351C7.24281 4.08987 7.24248 3.07623 7.24683 2.06259C7.2475 1.92151 7.19556 1.88331 7.06086 1.88365C5.49767 1.88734 3.93448 1.88801 2.37129 1.88264C2.21414 1.88197 2.17259 1.93425 2.17326 2.08403C2.17828 3.07522 2.17594 4.06675 2.1756 5.05794C2.1756 5.32266 2.17527 5.32367 1.90619 5.32266C1.41663 5.32099 0.927399 5.31831 0.437835 5.31596V1.8746H0.4375Z" fill="#16DE93"/>
<path d="M3.84499 11.9995C3.84231 11.4607 3.8403 10.9222 3.83594 10.3834C3.83527 10.2805 3.88587 10.2497 3.98037 10.25C4.46859 10.252 4.95681 10.252 5.44537 10.25C5.53987 10.2497 5.5908 10.2805 5.5898 10.3834C5.58544 10.9222 5.58343 11.4607 5.58075 11.9995H3.84499Z" fill="#16DE93"/>
</svg>
