<svg width="34" height="34" viewBox="0 0 34 34" fill="none" xmlns="http://www.w3.org/2000/svg">
<rect width="34" height="34" rx="8" fill="#434346"/>
<path d="M19.9429 26.7878H14.8429C14.8192 26.7835 14.7957 26.776 14.772 26.7755C14.3625 26.7683 13.9533 26.7514 13.5442 26.7334C12.9909 26.7088 12.4431 26.6471 11.9052 26.5107C10.6572 26.1937 9.65549 25.5197 8.94573 24.439C8.3816 23.5798 8.14985 22.6122 8.07566 21.6004C8.03728 21.0761 8.02093 20.5505 8.01285 20.0248C8.0123 19.9919 8.00441 19.9592 8 19.9263C8 18.2385 8 16.5507 8 14.8629C8.01781 14.8038 8.01396 14.7426 8.01543 14.682C8.03379 13.9735 8.04242 13.2645 8.14654 12.5612C8.24571 11.8918 8.4321 11.2485 8.7632 10.6569C9.42319 9.4768 10.4161 8.71213 11.7113 8.332C12.4029 8.12908 13.1132 8.06903 13.8283 8.04112C14.5829 8.01174 15.3378 7.99833 16.0929 8.00274C17.9207 8.01339 19.7493 7.96142 21.5754 8.07656C22.1283 8.11145 22.6712 8.20511 23.2011 8.37112C24.3458 8.72995 25.2467 9.41106 25.8865 10.4238C26.4176 11.2643 26.6377 12.2044 26.7101 13.1844C26.7549 13.7912 26.7771 14.3996 26.7775 15.0076C26.7786 17.0801 26.824 19.1528 26.7318 21.2246C26.7068 21.7842 26.6466 22.3382 26.5088 22.882C26.1959 24.1168 25.5317 25.1117 24.4681 25.8215C23.5991 26.4012 22.6176 26.6379 21.5895 26.7123C21.0651 26.7501 20.5397 26.7661 20.0139 26.7753C19.9902 26.7756 19.9666 26.7834 19.9431 26.7876L19.9429 26.7878ZM9.68432 17.3954C9.69002 18.6763 9.66853 19.9574 9.73997 21.2373C9.76439 21.6742 9.81177 22.107 9.92526 22.5309C10.1689 23.4415 10.6859 24.1421 11.5269 24.5832C12.0567 24.861 12.6335 24.9776 13.2249 25.0259C13.7886 25.0719 14.3544 25.0935 14.9195 25.0939C17.0135 25.0955 19.1079 25.1437 21.2012 25.0483C21.6722 25.0269 22.1375 24.9725 22.5928 24.8443C23.4311 24.6085 24.0854 24.128 24.5221 23.3717C24.8425 22.8166 24.9711 22.2014 25.0236 21.5697C25.0715 20.9938 25.0926 20.4157 25.0926 19.8384C25.0928 17.7475 25.1424 15.656 25.0456 13.5659C25.0212 13.0396 24.9564 12.5202 24.7869 12.0182C24.4965 11.1578 23.9478 10.5257 23.1229 10.1406C22.6299 9.91055 22.1037 9.8079 21.5657 9.76364C20.9958 9.71681 20.424 9.69808 19.8527 9.69478C18.4341 9.68688 17.0155 9.68486 15.5967 9.69C14.6587 9.69331 13.7194 9.69037 12.7872 9.81781C12.2655 9.88907 11.7664 10.0413 11.3181 10.3228C10.5169 10.826 10.0657 11.5686 9.86998 12.4815C9.73978 13.0888 9.72876 13.7065 9.70728 14.3228C9.67147 15.3466 9.68928 16.3711 9.68451 17.3953L9.68432 17.3954Z" fill="#16DE93"/>
<path d="M22.2168 17.3897C22.2192 20.0486 20.0572 22.215 17.3996 22.2164C14.7347 22.2181 12.5698 20.0556 12.5703 17.3926C12.5709 14.7334 14.7332 12.5709 17.3921 12.5703C20.0519 12.5699 22.2142 14.7299 22.2168 17.3895V17.3897ZM20.5316 17.4C20.5327 15.6675 19.1317 14.2587 17.4046 14.2554C15.6683 14.2521 14.2567 15.6558 14.2556 17.3869C14.2545 19.1231 15.6584 20.531 17.3915 20.5316C19.122 20.5321 20.5304 19.1273 20.5314 17.4H20.5316Z" fill="#16DE93"/>
<path d="M23.5258 12.3928C23.5243 13.0139 23.0193 13.5189 22.4006 13.5178C21.7834 13.5167 21.2745 13.0082 21.2734 12.391C21.2723 11.7688 21.7816 11.2632 22.4072 11.2656C23.0314 11.268 23.5272 11.7677 23.5258 12.3928Z" fill="#16DE93"/>
</svg>
