<svg width="196" height="69" viewBox="0 0 196 69" fill="none" xmlns="http://www.w3.org/2000/svg">
<path d="M0 51.0133L0 68.0195H17.0062V51.0133H0Z" fill="white"/>
<path d="M34 51.0133V68.0195H51.0062V51.0133H34Z" fill="white"/>
<path d="M34 17.0055V34.0117H51.0062V17.0055H34Z" fill="white"/>
<path d="M0 17.0055L0 34.0117H17.0062V17.0055H0Z" fill="white"/>
<path d="M34 17.0062V0L16.9938 0V17.0062H34Z" fill="white"/>
<path d="M34 51.0179V34.0117H16.9938V51.0179H34Z" fill="white"/>
<path d="M184.499 53.8455C181.434 53.8455 179.296 53.1643 178.085 51.802C176.874 50.4019 176.268 48.4909 176.268 46.069V30.9702H172.352V25.5777H176.268V17.5742H182.399V25.5777H188.245V30.9702H182.399V44.9337C182.399 46.0312 182.569 46.8826 182.909 47.4881C183.288 48.0935 184.082 48.3963 185.293 48.3963C185.861 48.3963 186.372 48.3773 186.826 48.3395C187.28 48.2638 187.753 48.1692 188.245 48.0557V53.3346C187.677 53.5238 187.053 53.6563 186.372 53.7319C185.691 53.8076 185.066 53.8455 184.499 53.8455Z" fill="white"/>
<path d="M162.051 53.5096V25.5825H168.238V53.5096H162.051ZM161.938 20.4739V14.457H168.408V20.4739H161.938Z" fill="white"/>
<path d="M126.141 53.5033V13.7695H142.375C144.834 13.7695 147.029 14.1101 148.959 14.7913C150.889 15.4346 152.422 16.532 153.557 18.0835C154.692 19.5971 155.26 21.6028 155.26 24.1003C155.26 26.1438 154.73 27.9412 153.67 29.4927C152.611 31.0064 151.173 32.0849 149.356 32.7282C151.665 33.3337 153.443 34.3932 154.692 35.9069C155.941 37.3827 156.565 39.3883 156.565 41.9237C156.565 44.5727 155.998 46.7486 154.862 48.4514C153.727 50.1543 152.1 51.422 149.981 52.2545C147.862 53.087 145.364 53.5033 142.488 53.5033H126.141ZM132.555 47.827H142.545C144.059 47.827 145.383 47.6568 146.518 47.3162C147.654 46.9378 148.543 46.3323 149.186 45.4998C149.83 44.6294 150.151 43.4374 150.151 41.9237C150.151 40.3722 149.83 39.1613 149.186 38.2909C148.543 37.4206 147.654 36.8151 146.518 36.4745C145.383 36.0961 144.059 35.9069 142.545 35.9069H132.555V47.827ZM132.555 30.2307H142.659C144.513 30.2307 146.008 29.7955 147.143 28.9251C148.278 28.0548 148.846 26.6546 148.846 24.7247C148.846 22.7948 148.278 21.4325 147.143 20.6378C146.008 19.8431 144.513 19.4458 142.659 19.4458H132.555V30.2307Z" fill="white"/>
<path d="M101.154 54.131C97.4077 54.131 94.0965 53.2795 91.2206 51.5766C88.3824 49.8359 86.1687 47.433 84.5793 44.3678C82.99 41.2648 82.1953 37.6698 82.1953 33.5829C82.1953 29.5717 82.99 26.0335 84.5793 22.9683C86.2065 19.9032 88.4392 17.5002 91.2773 15.7595C94.1533 14.0188 97.4833 13.1484 101.268 13.1484C105.052 13.1484 108.363 14.0188 111.201 15.7595C114.039 17.4624 116.234 19.8464 117.785 22.9116C119.375 25.9768 120.169 29.5339 120.169 33.5829C120.169 37.632 119.375 41.208 117.785 44.311C116.196 47.3762 113.982 49.7792 111.144 51.5199C108.306 53.2606 104.976 54.131 101.154 54.131ZM101.211 48.2844C103.784 48.2844 105.998 47.6979 107.852 46.5248C109.744 45.3139 111.201 43.611 112.223 41.4162C113.244 39.2213 113.755 36.6292 113.755 33.6397C113.755 30.6124 113.244 28.0202 112.223 25.8632C111.201 23.6684 109.744 21.9845 107.852 20.8114C105.998 19.6004 103.784 18.995 101.211 18.995C98.6375 18.995 96.4049 19.6004 94.5128 20.8114C92.6585 21.9845 91.2206 23.6684 90.1988 25.8632C89.1771 28.0202 88.6662 30.6124 88.6662 33.6397C88.6662 36.6292 89.1771 39.2213 90.1988 41.4162C91.2206 43.611 92.6585 45.3139 94.5128 46.5248C96.4049 47.6979 98.6375 48.2844 101.211 48.2844Z" fill="white"/>
<path d="M69.8203 53.5033V13.7695H76.2345V53.5033H69.8203Z" fill="white"/>
<path d="M191.743 20.6644C191.074 20.6644 190.476 20.5069 189.95 20.192C189.423 19.877 189.003 19.4547 188.69 18.9251C188.392 18.3954 188.242 17.8013 188.242 17.1427C188.242 16.4842 188.392 15.8901 188.69 15.3604C189.003 14.8165 189.423 14.3941 189.95 14.0935C190.49 13.7786 191.095 13.6211 191.764 13.6211C192.433 13.6211 193.03 13.7786 193.557 14.0935C194.083 14.3941 194.503 14.8165 194.816 15.3604C195.129 15.8901 195.286 16.4842 195.286 17.1427C195.286 17.8013 195.129 18.3954 194.816 18.9251C194.503 19.4547 194.083 19.877 193.557 20.192C193.03 20.5069 192.425 20.6644 191.743 20.6644ZM191.743 19.9343C192.539 19.9343 193.194 19.6766 193.706 19.1613C194.233 18.6316 194.496 17.9587 194.496 17.1427C194.496 16.5988 194.375 16.1192 194.133 15.704C193.905 15.2746 193.585 14.9381 193.173 14.6948C192.76 14.4514 192.29 14.3297 191.764 14.3297C190.967 14.3297 190.305 14.5946 189.779 15.1242C189.267 15.6539 189.011 16.3268 189.011 17.1427C189.011 17.9587 189.267 18.6316 189.779 19.1613C190.305 19.6766 190.96 19.9343 191.743 19.9343ZM190.462 18.8821V15.2316H191.913C192.34 15.2316 192.667 15.3461 192.895 15.5752C193.137 15.8042 193.258 16.0977 193.258 16.4556C193.258 16.699 193.201 16.9137 193.087 17.0998C192.973 17.2859 192.788 17.4362 192.532 17.5507L193.514 18.8821H192.554L191.7 17.7011H191.252V18.8821H190.462ZM191.252 17.0139H191.892C192.063 17.0139 192.198 16.9638 192.297 16.8636C192.397 16.7634 192.447 16.6274 192.447 16.4556C192.447 16.2981 192.397 16.1764 192.297 16.0905C192.198 15.9903 192.063 15.9402 191.892 15.9402H191.252V17.0139Z" fill="white"/>
</svg>
