<svg width="19" height="14" viewBox="0 0 19 14" fill="none" xmlns="http://www.w3.org/2000/svg">
<path d="M17.4322 14H1.85355C1.85159 13.4764 1.84913 12.9528 1.84717 12.4292C1.96112 12.4312 2.07557 12.4356 2.18952 12.4356C7.27172 12.4356 12.3534 12.4361 17.4356 12.4366L17.4297 12.4312C17.4307 12.9543 17.4312 13.4774 17.4322 14Z" fill="white"/>
<path d="M19.0005 1.56791V12.4337C18.4774 12.4327 17.9538 12.4317 17.4307 12.4308L17.4366 12.4362C17.4307 12.0211 17.4056 11.6051 17.4258 11.191C17.4381 10.9327 17.3501 10.8845 17.1104 10.8855C15.2253 10.8949 13.3402 10.888 11.455 10.8949C11.2551 10.8958 11.1829 10.8467 11.1932 10.6385C11.2104 10.2971 11.1859 9.95327 11.2021 9.61141C11.2119 9.40364 11.1638 9.3226 10.9368 9.33537C10.5709 9.356 10.2025 9.33439 9.83562 9.34421C9.68631 9.34814 9.64063 9.30443 9.64112 9.15216C9.64652 7.71695 9.64652 6.28222 9.64112 4.847C9.64063 4.69425 9.68778 4.652 9.83611 4.65544C10.203 4.66478 10.5714 4.64316 10.9373 4.66428C11.1647 4.67705 11.2119 4.59503 11.2021 4.38775C11.1859 4.05424 11.2134 3.71828 11.1923 3.38526C11.1775 3.15244 11.2625 3.10382 11.4796 3.10431C13.3726 3.11217 15.2661 3.10578 17.1591 3.11266C17.3575 3.11315 17.4287 3.06649 17.4228 2.85676C17.4105 2.4255 17.4268 1.99327 17.4312 1.56152C17.9543 1.563 18.4774 1.56447 19 1.56545L19.0005 1.56791ZM14.298 9.32457C15.2612 9.32457 16.2244 9.32015 17.1876 9.3285C17.3717 9.32997 17.4228 9.27348 17.4218 9.09175C17.415 7.6973 17.415 6.30236 17.4218 4.90791C17.4228 4.72273 17.3649 4.67362 17.1846 4.67411C15.2661 4.67951 13.348 4.68049 11.4295 4.67313C11.2399 4.67263 11.2016 4.73403 11.2021 4.91036C11.209 6.30481 11.209 7.69975 11.2021 9.0942C11.2011 9.27496 11.2468 9.33046 11.4324 9.3285C12.3873 9.31916 13.3426 9.32408 14.2975 9.32408L14.298 9.32457Z" fill="white"/>
<path d="M17.4371 1.57176C17.3556 1.5698 17.274 1.56587 17.1925 1.56587C12.1599 1.56587 7.12681 1.56587 2.09422 1.56587C2.01268 1.56587 1.93114 1.5698 1.84961 1.57176C1.85256 1.12332 1.86238 0.675368 1.85599 0.226923C1.85354 0.0668 1.8835 0 2.06622 0C7.11797 0.00491176 12.1692 0.00491176 17.221 0C17.4037 0 17.4337 0.0668 17.4312 0.226923C17.4248 0.674876 17.4341 1.12332 17.4376 1.57176H17.4371Z" fill="white"/>
<path d="M1.85721 1.56423C1.86114 1.63742 1.86802 1.71011 1.86802 1.7833C1.86851 5.26181 1.86851 8.74032 1.86802 12.2188C1.86802 12.292 1.86065 12.3647 1.85721 12.4379C1.42547 12.4379 0.992745 12.4241 0.561492 12.4443C0.33506 12.4546 0.296748 12.3745 0.297239 12.1682C0.303133 8.93532 0.30166 5.7019 0.30166 2.46898C0.30166 2.25728 0.314921 2.0446 0.29773 1.83389C0.28103 1.62661 0.33506 1.54704 0.561492 1.55785C0.992745 1.57798 1.42498 1.56374 1.85721 1.56423Z" fill="white"/>
</svg>
