<svg width="46" height="16" viewBox="0 0 46 16" fill="none" xmlns="http://www.w3.org/2000/svg">
<path d="M46.0002 2.48682H43.5137V4.35168H46.0002V2.48682Z" fill="#56565B"/>
<path d="M43.7257 9.32495H41.4364V11.3925H39.1621V13.4736H41.4364V15.5412H43.7257V13.4736H45.9999V11.3925H43.7257V9.32495Z" fill="#56565B"/>
<path d="M37.297 4.35181H34.8105V6.83829H37.297V4.35181Z" fill="#56565B"/>
<path d="M31.0812 0H28.5947V2.48649H31.0812V0Z" fill="#56565B"/>
<path d="M19.6796 6.83813V8.90567H17.4053V10.9732H19.6796V13.0543H21.9688V10.9732H24.2431V8.90567H21.9688V6.83813H19.6796Z" fill="#56565B"/>
<path d="M14.9191 0H13.0542V2.48649H14.9191V0Z" fill="#56565B"/>
<path d="M11.1891 9.32495H8.70264V11.1898H11.1891V9.32495Z" fill="#56565B"/>
<path d="M2.27429 2.48682V4.76111H0V7.05036H2.27429V9.32465H4.56354V7.05036H6.83783V4.76111H4.56354V2.48682H2.27429Z" fill="#56565B"/>
</svg>
