<svg width="35" height="35" viewBox="0 0 35 35" fill="none" xmlns="http://www.w3.org/2000/svg">
<g filter="url(#filter0_i_1067_84)">
<rect width="35" height="35" rx="8" fill="white" fill-opacity="0.01"/>
</g>
<rect x="0.5" y="0.5" width="34" height="34" rx="7.5" stroke="white" stroke-opacity="0.1"/>
<path d="M24.9998 23.6977C24.1486 23.6996 23.2976 23.7019 22.4463 23.7029C21.7081 23.7038 20.9699 23.7029 20.2321 23.7029C20.096 23.7029 20.0278 23.7734 20.0276 23.9145C20.0276 24.351 20.0247 24.7875 20.0295 25.2236C20.0308 25.3277 20.0004 25.362 19.8938 25.3617C18.3312 25.3588 16.7689 25.3585 15.2063 25.3617C15.0926 25.3617 15.0602 25.3273 15.0615 25.2152C15.0673 24.779 15.0573 24.3422 15.0673 23.906C15.0709 23.7492 15.0381 23.697 14.8667 23.698C13.3365 23.7058 11.8064 23.7006 10.2765 23.7058C10.1317 23.7064 10.0889 23.6721 10.0899 23.5217C10.097 22.5304 10.0957 21.5392 10.0912 20.5476C10.0905 20.4309 10.1148 20.3904 10.2402 20.3927C10.7409 20.4021 11.2422 20.3995 11.7432 20.4011L11.7399 20.3966C11.7432 20.8917 11.7516 21.3869 11.7464 21.882C11.7451 22.0165 11.7824 22.0515 11.9162 22.0512C15.67 22.0476 19.4239 22.0476 23.178 22.0512C23.3115 22.0512 23.3491 22.0168 23.3478 21.882C23.3423 21.3869 23.3504 20.8917 23.3533 20.3966L23.3498 20.4008C23.8997 20.4001 24.4499 20.3991 24.9998 20.3985V23.6967V23.6977Z" fill="white"/>
<path d="M15.0617 10.3247C15.0309 9.79808 15.0559 9.27084 15.0487 8.74393C15.0481 8.69144 15.0685 8.66292 15.1246 8.66486C15.157 8.66584 15.1897 8.66422 15.2221 8.66422C16.7714 8.66422 18.3204 8.66648 19.8697 8.66065C20.0168 8.66 20.0502 8.70181 20.0466 8.84083C20.0346 9.33533 20.0356 9.83016 20.0314 10.325L20.0379 10.3192C18.3771 10.3192 16.7163 10.3192 15.0556 10.3192L15.062 10.3247H15.0617Z" fill="white"/>
<path d="M11.7433 20.4021C11.7456 19.9014 11.7521 12.5957 11.7466 12.095C11.7453 11.9651 11.7858 11.931 11.9108 11.9343C12.4164 11.9482 12.9225 11.92 13.4281 11.9498L13.4216 11.9434C13.4183 12.4275 13.4063 19.7167 13.4167 20.2005C13.4203 20.371 13.3662 20.4037 13.209 20.4005C12.7194 20.3904 12.2297 20.3972 11.7397 20.3976L11.743 20.4021H11.7433Z" fill="white"/>
<path d="M23.3532 20.4021C23.3509 19.9014 23.3445 12.5957 23.35 12.095C23.3513 11.9651 23.3108 11.931 23.1857 11.9343C22.6801 11.9482 22.174 11.92 21.6685 11.9498L21.6749 11.9434C21.6782 12.4275 21.6902 19.7167 21.6798 20.2005C21.6762 20.371 21.7304 20.4037 21.8875 20.4005C22.3772 20.3904 22.8668 20.3972 23.3568 20.3976L23.3535 20.4021H23.3532Z" fill="white"/>
<path d="M15.0404 10.33C14.5238 10.3265 14.0073 10.3242 13.4907 10.3184C13.3767 10.3171 13.3951 10.3929 13.3948 10.4606C13.3932 10.9668 13.3922 11.473 13.3913 11.9791L13.3877 11.9749C13.8981 11.9749 14.4088 11.9717 14.9192 11.9762C15.0255 11.9772 15.0598 11.9441 15.0566 11.8388C15.0501 11.6295 15.0588 11.4195 15.0537 11.2102C15.0465 10.9156 15.077 10.6204 15.0371 10.3265L15.04 10.33H15.0404Z" fill="white"/>
<path d="M20.0436 10.33C20.5602 10.3265 21.0767 10.3242 21.5933 10.3184C21.7073 10.3171 21.6889 10.3929 21.6892 10.4606C21.6908 10.9668 21.6918 11.473 21.6927 11.9791L21.6963 11.9749C21.1859 11.9749 20.6752 11.9717 20.1648 11.9762C20.0585 11.9772 20.0242 11.9441 20.0274 11.8388C20.0339 11.6295 20.0252 11.4195 20.0304 11.2102C20.0375 10.9156 20.007 10.6204 20.0469 10.3265L20.044 10.33H20.0436Z" fill="white"/>
<defs>
<filter id="filter0_i_1067_84" x="0" y="0" width="35" height="35" filterUnits="userSpaceOnUse" color-interpolation-filters="sRGB">
<feFlood flood-opacity="0" result="BackgroundImageFix"/>
<feBlend mode="normal" in="SourceGraphic" in2="BackgroundImageFix" result="shape"/>
<feColorMatrix in="SourceAlpha" type="matrix" values="0 0 0 0 0 0 0 0 0 0 0 0 0 0 0 0 0 0 127 0" result="hardAlpha"/>
<feOffset/>
<feGaussianBlur stdDeviation="3.5"/>
<feComposite in2="hardAlpha" operator="arithmetic" k2="-1" k3="1"/>
<feColorMatrix type="matrix" values="0 0 0 0 1 0 0 0 0 1 0 0 0 0 1 0 0 0 0.45 0"/>
<feBlend mode="normal" in2="shape" result="effect1_innerShadow_1067_84"/>
</filter>
</defs>
</svg>
