<svg width="13" height="13" viewBox="0 0 13 13" fill="none" xmlns="http://www.w3.org/2000/svg">
<path d="M10.0969 13.0008H2.90589C2.8791 12.9481 2.88643 12.8912 2.88643 12.8354C2.88615 12.4467 2.88333 12.0582 2.88812 11.6695C2.88925 11.5723 2.86077 11.5408 2.76178 11.5422C2.36331 11.547 1.96484 11.5414 1.56638 11.5461C1.46711 11.5473 1.44004 11.5152 1.44088 11.4183C1.44483 10.9783 1.44145 10.538 1.44088 10.098L1.4375 10.1011C1.88363 10.1011 2.32976 10.1036 2.7756 10.098C2.87628 10.0969 2.90166 10.129 2.90053 10.2256C2.89573 10.6197 2.90194 11.0138 2.89602 11.4076C2.89432 11.5115 2.9214 11.5414 3.02827 11.5414C5.34323 11.5383 7.65847 11.5383 9.97343 11.5414C10.0775 11.5414 10.1096 11.5163 10.1077 11.4095C10.1012 11.0202 10.1085 10.631 10.1029 10.2417C10.1015 10.1363 10.1232 10.0958 10.2405 10.0977C10.6818 10.1053 11.1232 10.1011 11.5645 10.1011L11.5617 10.0983C11.5611 10.5386 11.5577 10.9786 11.5617 11.4188C11.5625 11.5157 11.5354 11.5478 11.4362 11.5467C11.0377 11.5419 10.6392 11.5476 10.2408 11.5428C10.1412 11.5416 10.1139 11.5738 10.115 11.6704C10.1198 12.0591 10.1172 12.4478 10.1167 12.8365C10.1167 12.892 10.1251 12.9492 10.0961 13.0013L10.0969 13.0008Z" fill="#16DE93"/>
<path d="M0 2.88694C0.435976 2.88722 0.871951 2.88299 1.30793 2.89088C1.42411 2.89285 1.44583 2.8537 1.44413 2.74835C1.43821 2.37371 1.44893 1.99907 1.43821 1.62471C1.43426 1.4833 1.48136 1.45457 1.61249 1.45767C1.98276 1.4664 2.35303 1.46105 2.72358 1.4602C2.77462 1.4602 2.82566 1.45316 2.87671 1.44922C2.88319 1.47147 2.8956 1.49372 2.8956 1.51598C2.89701 1.95259 2.89504 2.3892 2.89814 2.82553C2.8987 2.92299 2.83835 2.91257 2.77659 2.91257C2.39138 2.91229 2.0056 2.92074 1.62067 2.90834C1.47149 2.90356 1.44611 2.95201 1.44639 3.08862C1.45062 5.3652 1.44949 7.64177 1.44893 9.91863C1.44893 9.97891 1.45964 10.0409 1.43624 10.0998L1.43962 10.0967C0.959654 10.0972 0.479968 10.0978 0 10.0981L0 2.88694Z" fill="#16DE93"/>
<path d="M10.1247 1.44922C10.5271 1.47542 10.9301 1.45485 11.3328 1.4602C11.5601 1.4633 11.5601 1.46077 11.5601 1.69428C11.5601 2.04554 11.5637 2.39681 11.5578 2.74807C11.5561 2.85229 11.5761 2.89342 11.6932 2.89116C12.1291 2.88328 12.5651 2.8875 13.0011 2.88722V10.0983C12.5214 10.0978 12.0414 10.0972 11.5617 10.0969L11.5646 10.0998C11.5609 10.0392 11.5544 9.97863 11.5544 9.91807C11.5539 7.63698 11.553 5.35562 11.5567 3.07454C11.5567 2.95003 11.5304 2.90609 11.3965 2.90975C11.0209 2.91961 10.6447 2.90834 10.2688 2.91595C10.1447 2.91849 10.0976 2.89144 10.1018 2.75595C10.1123 2.423 10.1035 2.08949 10.1063 1.75625C10.1072 1.654 10.0874 1.54978 10.1247 1.4495V1.44922Z" fill="#16DE93"/>
<path d="M10.1258 1.45265C9.08864 1.4518 8.05143 1.44983 7.01423 1.45011C5.63439 1.45011 4.25456 1.4518 2.875 1.45265C2.87838 1.02167 2.88628 0.590974 2.88233 0.159997C2.8812 0.0399992 2.90884 0 3.03687 0C5.34619 0.00394358 7.6555 0.00394358 9.9651 0C10.0928 0 10.1208 0.0391541 10.1196 0.159715C10.1154 0.590693 10.123 1.02167 10.1258 1.45265Z" fill="#16DE93"/>
<path d="M7.22213 7.22615C7.2227 6.79461 7.22777 6.36307 7.22072 5.93181C7.21875 5.81097 7.24639 5.77012 7.37413 5.77322C7.75427 5.78196 8.13469 5.77041 8.51483 5.7797C8.64399 5.7828 8.66965 5.74055 8.6674 5.62111C8.65978 5.23661 8.6674 4.85211 8.6626 4.46762C8.66119 4.36818 8.68065 4.32649 8.7926 4.32818C9.19164 4.33494 9.59067 4.33438 9.98971 4.32818C10.098 4.32649 10.1239 4.36255 10.1225 4.46508C10.1172 4.86366 10.1172 5.26225 10.1225 5.66083C10.1239 5.76111 10.0907 5.78759 9.99393 5.78646C9.5997 5.78167 9.20517 5.789 8.81093 5.78167C8.69588 5.77942 8.67078 5.81886 8.67219 5.92505C8.67755 6.31885 8.67219 6.71292 8.67586 7.10672C8.6767 7.19686 8.65104 7.22672 8.55685 7.22559C8.111 7.22024 7.66488 7.22277 7.21875 7.22221L7.22213 7.22559V7.22615Z" fill="#16DE93"/>
<path d="M5.77028 8.65283C5.77281 9.11198 5.77507 9.57141 5.77902 10.0306C5.77958 10.0852 5.75759 10.1049 5.70457 10.1046C5.27254 10.1038 4.8408 10.1032 4.40877 10.1046C4.31571 10.1046 4.33517 10.0387 4.33517 9.98661C4.33404 9.59732 4.33009 9.20803 4.33714 8.81903C4.3394 8.70213 4.30612 8.66748 4.18824 8.66945C3.7988 8.6765 3.40879 8.66889 3.01934 8.67424C2.91528 8.67565 2.88144 8.64579 2.88285 8.5396C2.88849 8.14101 2.88708 7.74243 2.8837 7.34385C2.88285 7.2554 2.90513 7.22188 3.00158 7.22328C3.40512 7.22892 3.80923 7.23005 4.21278 7.22272C4.32642 7.22075 4.34165 7.26328 4.34052 7.36103C4.33573 7.75032 4.34165 8.1396 4.33629 8.52861C4.33488 8.62861 4.3535 8.66664 4.46489 8.66438C4.90114 8.65593 5.33797 8.65819 5.77451 8.65678L5.76999 8.65283H5.77028Z" fill="#16DE93"/>
<path d="M7.21701 7.22192C7.21955 7.67177 7.22096 8.1219 7.22519 8.57175C7.22575 8.6357 7.20883 8.66386 7.13889 8.66302C6.68374 8.65795 6.22887 8.65654 5.77344 8.65372C5.77344 8.65372 5.77795 8.65767 5.77767 8.65739C5.77908 8.22162 5.78415 7.78614 5.77936 7.35065C5.77823 7.24446 5.80812 7.21713 5.91246 7.21882C6.34844 7.22615 6.78442 7.22417 7.22067 7.22558L7.21729 7.2222L7.21701 7.22192Z" fill="#16DE93"/>
</svg>
