<svg width="641" height="660" viewBox="0 0 641 660" fill="none" xmlns="http://www.w3.org/2000/svg">
<rect width="641" height="660" fill="#111113"/>
<path d="M171.356 62.9141H167.058V67.2121H171.356V62.9141Z" fill="white"/>
<path d="M175.654 67.2119H171.356V71.5099H175.654V67.2119Z" fill="white"/>
<path d="M184.257 67.2119H179.958V71.5099H184.257V67.2119Z" fill="white"/>
<path d="M192.86 67.2119H188.562V71.5099H192.86V67.2119Z" fill="white"/>
<path d="M184.257 84.417H179.958V88.715H184.257V84.417Z" fill="white"/>
<path d="M192.86 84.417H188.562V88.715H192.86V84.417Z" fill="white"/>
<path d="M201.462 84.417H197.164V88.715H201.462V84.417Z" fill="white"/>
<path d="M175.661 93.0193V88.7149H171.356V84.4169V80.1189H175.661V75.8144H171.356V71.5164H167.058V67.2119H162.754V71.5164V75.8144V80.1189V84.4169H167.058V88.7149V93.0193H171.356V97.3173H175.661V93.0193Z" fill="white"/>
<path d="M201.462 93.0193H197.164V97.3173H201.462V93.0193Z" fill="white"/>
<path d="M171.356 97.3174H167.058V101.615H171.356V97.3174Z" fill="white"/>
<path d="M175.654 101.622H171.356V105.92H175.654V101.622Z" fill="white"/>
<path d="M192.86 101.622H188.562V105.92H192.86V101.622Z" fill="white"/>
<path d="M201.462 101.622H197.164V105.92H201.462V101.622Z" fill="white"/>
<path d="M210.065 101.622H205.767V105.92H210.065V101.622Z" fill="white"/>
<path d="M227.263 101.622H222.965V105.92H227.263V101.622Z" fill="white"/>
<path d="M162.754 105.92H158.456V110.218H162.754V105.92Z" fill="white"/>
<path d="M192.86 110.218H188.562V114.516H192.86V110.218Z" fill="white"/>
<path d="M201.462 110.218H197.164V114.516H201.462V110.218Z" fill="white"/>
<path d="M205.76 114.522H201.462V118.82H205.76V114.522Z" fill="white"/>
<path d="M218.66 118.82H214.362V123.118H218.66V118.82Z" fill="white"/>
<path d="M244.468 118.82H240.17V123.118H244.468V118.82Z" fill="white"/>
<path d="M253.07 118.82H248.772V123.118H253.07V118.82Z" fill="white"/>
<path d="M167.052 127.423H162.754V131.721H167.052V127.423Z" fill="white"/>
<path d="M235.865 127.423H231.567V131.721H235.865V127.423Z" fill="white"/>
<path d="M253.07 127.423H248.772V131.721H253.07V127.423Z" fill="white"/>
<path d="M162.754 131.727H158.456V136.025H162.754V131.727Z" fill="white"/>
<path d="M179.959 131.727V127.423H175.661V123.125V118.82V114.522H179.959V118.82V123.125V127.423H184.257H188.561V123.125H192.859V118.82H188.561V114.522H184.257V110.218H188.561V105.92H184.257V101.622H188.561V97.3173H184.257V93.0193H179.959V97.3173H175.661V101.622H179.959V105.92H175.661V110.218H171.356V105.92H167.058V110.218V114.522H171.356V118.82H167.058H162.754V123.125H167.058H171.356V127.423V131.727H175.661V136.025H179.959V131.727Z" fill="white"/>
<path d="M188.562 136.025H192.86H197.164V131.727H192.86V127.423H188.562V131.727V136.025Z" fill="white"/>
<path d="M205.76 131.727H201.462V136.025H205.76V131.727Z" fill="white"/>
<path d="M179.958 136.025V140.323H184.257H188.561V136.025H184.257H179.958Z" fill="white"/>
<path d="M218.66 136.025H214.362V140.323H218.66V136.025Z" fill="white"/>
<path d="M244.468 136.025H240.17V140.323H244.468V136.025Z" fill="white"/>
<path d="M162.754 140.323H158.456V144.621H162.754V140.323Z" fill="white"/>
<path d="M197.157 140.323H192.859V144.621H197.157V140.323Z" fill="white"/>
<path d="M201.462 144.628H197.164V148.926H201.462V144.628Z" fill="white"/>
<path d="M218.66 144.628H214.362V148.926H218.66V144.628Z" fill="white"/>
<path d="M227.263 144.628H222.965V148.926H227.263V144.628Z" fill="white"/>
<path d="M253.07 144.628H248.772V148.926H253.07V144.628Z" fill="white"/>
<path d="M270.269 144.628H265.971V148.926H270.269V144.628Z" fill="white"/>
<path d="M296.076 144.628H291.778V148.926H296.076V144.628Z" fill="white"/>
<path d="M205.76 148.926H201.462V153.224H205.76V148.926Z" fill="white"/>
<path d="M201.462 153.23H197.164V157.528H201.462V153.23Z" fill="white"/>
<path d="M218.66 153.23H214.362V157.528H218.66V153.23Z" fill="white"/>
<path d="M261.666 153.23H257.368V157.528H261.666V153.23Z" fill="white"/>
<path d="M278.872 153.23H274.574V157.528H278.872V153.23Z" fill="white"/>
<path d="M304.679 153.23H300.381V157.528H304.679V153.23Z" fill="white"/>
<path d="M197.157 157.528H192.859V161.826H197.157V157.528Z" fill="white"/>
<path d="M205.76 157.528H201.462V161.826H205.76V157.528Z" fill="white"/>
<path d="M214.362 157.528H210.064V161.826H214.362V157.528Z" fill="white"/>
<path d="M201.462 161.826H197.164V166.124H201.462V161.826Z" fill="white"/>
<path d="M218.66 161.826H214.362V166.124H218.66V161.826Z" fill="white"/>
<path d="M304.679 161.826H300.381V166.124H304.679V161.826Z" fill="white"/>
<path d="M197.157 166.131H192.859V170.429H197.157V166.131Z" fill="white"/>
<path d="M218.66 170.429H214.362V174.727H218.66V170.429Z" fill="white"/>
<path d="M227.263 170.429H222.965V174.727H227.263V170.429Z" fill="white"/>
<path d="M253.07 170.429H248.772V174.727H253.07V170.429Z" fill="white"/>
<path d="M296.076 170.429H291.778V174.727H296.076V170.429Z" fill="white"/>
<path d="M205.76 174.733H201.462V179.031H205.76V174.733Z" fill="white"/>
<path d="M222.965 174.733H218.667V179.031H222.965V174.733Z" fill="white"/>
<path d="M201.462 179.031H197.164V183.329H201.462V179.031Z" fill="white"/>
<path d="M210.065 179.031H205.767V183.329H210.065V179.031Z" fill="white"/>
<path d="M244.468 179.031H240.17V183.329H244.468V179.031Z" fill="white"/>
<path d="M253.07 179.031H248.772V183.329H253.07V179.031Z" fill="white"/>
<path d="M270.269 179.031H265.971V183.329H270.269V179.031Z" fill="white"/>
<path d="M321.877 179.031H317.579V183.329H321.877V179.031Z" fill="white"/>
<path d="M222.965 183.329H218.667V187.627H222.965V183.329Z" fill="white"/>
<path d="M201.462 187.634H197.164V191.932H201.462V187.634Z" fill="white"/>
<path d="M218.66 187.634H214.362V191.932H218.66V187.634Z" fill="white"/>
<path d="M244.468 187.634H240.17V191.932H244.468V187.634Z" fill="white"/>
<path d="M261.666 187.634H257.368V191.932H261.666V187.634Z" fill="white"/>
<path d="M278.872 187.634H274.574V191.932H278.872V187.634Z" fill="white"/>
<path d="M296.076 187.634H291.778V191.932H296.076V187.634Z" fill="white"/>
<path d="M313.275 187.634H308.977V191.932H313.275V187.634Z" fill="white"/>
<path d="M347.684 187.634H343.386V191.932H347.684V187.634Z" fill="white"/>
<path d="M192.859 191.932V179.031H179.959V183.329H167.059V179.031H175.661V170.429H171.363V161.826H167.065V153.224H171.363V161.826H175.661V166.124H179.959V161.826H188.561V157.528H192.859V153.23H197.157V148.932H192.859V144.634H175.661V136.032H171.363V148.932H158.456V153.23H162.754V170.435H167.052V174.733H158.456V179.031H162.754V183.329H158.456V187.627H171.357V196.23H167.059V191.932H162.754V200.534H158.456V204.832H171.357V200.534H175.655V204.832H192.859V196.23H197.157V191.932H192.859ZM179.959 148.926H184.257V153.224H179.959V157.522H175.661V148.919H179.959V148.926ZM184.257 196.236H179.959V191.938H175.661V187.64H179.959V191.938H188.561V196.236H184.263H184.257Z" fill="white"/>
<path d="M222.965 191.932H218.667V196.23H222.965V191.932Z" fill="white"/>
<path d="M321.877 196.236H317.579V200.534H321.877V196.236Z" fill="white"/>
<path d="M240.163 200.534H235.865V204.832H240.163V200.534Z" fill="white"/>
<path d="M360.585 200.534H356.287V204.832H360.585V200.534Z" fill="white"/>
<path d="M171.356 209.137H167.058H162.754V213.435H167.058H171.356V217.739H175.661V213.435V209.137V204.832H171.356V209.137Z" fill="white"/>
<path d="M218.66 204.832H214.362V209.13H218.66V204.832Z" fill="white"/>
<path d="M244.468 204.832H240.17V209.13H244.468V204.832Z" fill="white"/>
<path d="M261.666 204.832H257.368V209.13H261.666V204.832Z" fill="white"/>
<path d="M278.872 204.832H274.574V209.13H278.872V204.832Z" fill="white"/>
<path d="M296.076 204.832H291.778V209.13H296.076V204.832Z" fill="white"/>
<path d="M313.275 204.832H308.977V209.13H313.275V204.832Z" fill="white"/>
<path d="M364.883 204.832H360.585V209.13H364.883V204.832Z" fill="white"/>
<path d="M210.065 213.435V209.137V204.832H214.363V200.534H210.065V196.236V191.932H205.767H201.462V196.236H205.767V200.534H201.462V196.236H197.164V200.534V204.832V209.137H201.462V204.832H205.767V209.137H201.462V213.435H205.767H210.065Z" fill="white"/>
<path d="M222.965 209.136H218.667V213.434H222.965V209.136Z" fill="white"/>
<path d="M227.263 213.435H222.965V217.733H227.263V213.435Z" fill="white"/>
<path d="M244.468 213.435H240.17V217.733H244.468V213.435Z" fill="white"/>
<path d="M261.666 213.435H257.368V217.733H261.666V213.435Z" fill="white"/>
<path d="M270.269 213.435H265.971V217.733H270.269V213.435Z" fill="white"/>
<path d="M287.474 213.435H283.176V217.733H287.474V213.435Z" fill="white"/>
<path d="M321.877 213.435H317.579V217.733H321.877V213.435Z" fill="white"/>
<path d="M373.486 213.435H369.188V217.733H373.486V213.435Z" fill="white"/>
<path d="M382.088 213.435H377.79V217.733H382.088V213.435Z" fill="white"/>
<path d="M162.754 217.739V222.037H167.058H171.356V217.739H167.058H162.754Z" fill="white"/>
<path d="M175.654 222.037H171.356V226.335H175.654V222.037Z" fill="white"/>
<path d="M201.461 222.037V217.739V213.434H197.163H192.859V217.739H188.561V213.434V209.136H184.257H179.958V213.434V217.739V222.037H184.257H188.561V226.335H192.859V222.037H197.163V226.335H192.859V230.639H197.163H201.461V226.335V222.037Z" fill="white"/>
<path d="M210.065 222.037H205.767V226.335H210.065V222.037Z" fill="white"/>
<path d="M235.865 222.037H231.567V226.335H235.865V222.037Z" fill="white"/>
<path d="M253.07 222.037H248.772V226.335H253.07V222.037Z" fill="white"/>
<path d="M261.666 222.037H257.368V226.335H261.666V222.037Z" fill="white"/>
<path d="M270.269 222.037H265.971V226.335H270.269V222.037Z" fill="white"/>
<path d="M278.872 222.037H274.574V226.335H278.872V222.037Z" fill="white"/>
<path d="M222.965 226.335H218.667V230.633H222.965V226.335Z" fill="white"/>
<path d="M231.568 226.335H227.27V230.633H231.568V226.335Z" fill="white"/>
<path d="M240.163 226.335H235.865V230.633H240.163V226.335Z" fill="white"/>
<path d="M248.766 226.335H244.468V230.633H248.766V226.335Z" fill="white"/>
<path d="M171.356 230.64H167.058H162.754V234.938H167.058H171.356H175.661H179.959V230.64V226.335H175.661V230.64H171.356Z" fill="white"/>
<path d="M235.865 230.64H231.567V234.938H235.865V230.64Z" fill="white"/>
<path d="M244.468 230.64H240.17V234.938H244.468V230.64Z" fill="white"/>
<path d="M278.872 230.64H274.574V234.938H278.872V230.64Z" fill="white"/>
<path d="M339.082 230.64H334.784V234.938H339.082V230.64Z" fill="white"/>
<path d="M356.28 230.64H351.982V234.938H356.28V230.64Z" fill="white"/>
<path d="M373.486 230.64H369.188V234.938H373.486V230.64Z" fill="white"/>
<path d="M407.889 230.64H403.591V234.938H407.889V230.64Z" fill="white"/>
<path d="M162.754 234.938H158.456V239.236H162.754V234.938Z" fill="white"/>
<path d="M240.163 234.938H235.865V239.236H240.163V234.938Z" fill="white"/>
<path d="M412.194 234.938H407.896V239.236H412.194V234.938Z" fill="white"/>
<path d="M167.058 243.54H171.356V239.242H167.058H162.754V243.54H167.058Z" fill="white"/>
<path d="M235.865 239.242H231.567V243.54H235.865V239.242Z" fill="white"/>
<path d="M278.872 239.242H274.574V243.54H278.872V239.242Z" fill="white"/>
<path d="M287.474 239.242H283.176V243.54H287.474V239.242Z" fill="white"/>
<path d="M304.679 239.242H300.381V243.54H304.679V239.242Z" fill="white"/>
<path d="M382.088 239.242H377.79V243.54H382.088V239.242Z" fill="white"/>
<path d="M416.491 239.242H412.193V243.54H416.491V239.242Z" fill="white"/>
<path d="M227.269 243.54H222.965H218.667V239.242V234.938H214.362V239.242V243.54V247.844H218.667H222.965V252.142H227.269V247.844V243.54Z" fill="white"/>
<path d="M248.766 243.54H244.468V247.838H248.766V243.54Z" fill="white"/>
<path d="M235.865 247.844H231.567V252.142H235.865V247.844Z" fill="white"/>
<path d="M253.07 247.844H248.772V252.142H253.07V247.844Z" fill="white"/>
<path d="M287.474 247.844H283.176V252.142H287.474V247.844Z" fill="white"/>
<path d="M339.082 247.844H334.784V252.142H339.082V247.844Z" fill="white"/>
<path d="M373.486 247.844H369.188V252.142H373.486V247.844Z" fill="white"/>
<path d="M390.691 247.844H386.393V252.142H390.691V247.844Z" fill="white"/>
<path d="M192.86 252.142H188.562V256.44H192.86V252.142Z" fill="white"/>
<path d="M214.362 252.142H210.064V256.44H214.362V252.142Z" fill="white"/>
<path d="M231.568 252.142H227.27V256.44H231.568V252.142Z" fill="white"/>
<path d="M274.573 252.142H270.275V256.44H274.573V252.142Z" fill="white"/>
<path d="M235.865 256.44H231.567V260.738H235.865V256.44Z" fill="white"/>
<path d="M244.468 256.44H240.17V260.738H244.468V256.44Z" fill="white"/>
<path d="M253.07 256.44H248.772V260.738H253.07V256.44Z" fill="white"/>
<path d="M261.666 256.44H257.368V260.738H261.666V256.44Z" fill="white"/>
<path d="M270.269 256.44H265.971V260.738H270.269V256.44Z" fill="white"/>
<path d="M287.474 256.44H283.176V260.738H287.474V256.44Z" fill="white"/>
<path d="M296.076 256.44H291.778V260.738H296.076V256.44Z" fill="white"/>
<path d="M313.275 256.44H308.977V260.738H313.275V256.44Z" fill="white"/>
<path d="M364.883 256.44H360.585V260.738H364.883V256.44Z" fill="white"/>
<path d="M373.486 256.44H369.188V260.738H373.486V256.44Z" fill="white"/>
<path d="M162.754 260.745H158.456V265.043H162.754V260.745Z" fill="white"/>
<path d="M175.661 260.745V256.441V252.143H179.959H184.257V247.845H179.959V243.54H184.257H188.561V247.845H192.859H197.164V252.143V256.441H201.462H205.766V252.143H210.064V247.845V243.54H205.766V247.845H201.462V243.54H205.766V239.242V234.938H210.064V230.64H205.766H201.462V234.938H197.164V239.242V243.54H192.859V239.242V234.938H188.561V239.242H184.257H179.959H175.661V243.54V247.845H171.356H167.058H162.754V252.143H167.058H171.356V256.441V260.745V265.043H175.661H179.959V260.745H175.661Z" fill="white"/>
<path d="M210.065 260.745V256.44H205.767V260.745V265.043H210.065H214.363V269.347H218.667V265.043H222.965H227.27V260.745H222.965H218.667V256.44H214.363V260.745H210.065Z" fill="white"/>
<path d="M248.766 260.745H244.468V265.043H248.766V260.745Z" fill="white"/>
<path d="M188.561 269.347V265.043V260.745V256.44H184.257H179.958V260.745H184.257V265.043H179.958V269.347H184.257H188.561Z" fill="white"/>
<path d="M197.164 269.348H201.462V265.043V260.745H197.164H192.859V265.043H197.164V269.348Z" fill="white"/>
<path d="M270.269 265.043H265.971V269.341H270.269V265.043Z" fill="white"/>
<path d="M278.872 265.043H274.574V269.341H278.872V265.043Z" fill="white"/>
<path d="M304.679 265.043H300.381V269.341H304.679V265.043Z" fill="white"/>
<path d="M321.877 265.043H317.579V269.341H321.877V265.043Z" fill="white"/>
<path d="M356.28 265.043H351.982V269.341H356.28V265.043Z" fill="white"/>
<path d="M390.691 265.043H386.393V269.341H390.691V265.043Z" fill="white"/>
<path d="M407.889 265.043H403.591V269.341H407.889V265.043Z" fill="white"/>
<path d="M425.094 265.043H420.796V269.341H425.094V265.043Z" fill="white"/>
<path d="M450.895 265.043H446.597V269.341H450.895V265.043Z" fill="white"/>
<path d="M162.754 269.347H158.456V273.645H162.754V269.347Z" fill="white"/>
<path d="M222.965 269.347H218.667V273.645H222.965V269.347Z" fill="white"/>
<path d="M231.568 269.347H227.27V273.645H231.568V269.347Z" fill="white"/>
<path d="M257.368 269.347H253.07V273.645H257.368V269.347Z" fill="white"/>
<path d="M274.573 269.347H270.275V273.645H274.573V269.347Z" fill="white"/>
<path d="M455.199 269.347H450.901V273.645H455.199V269.347Z" fill="white"/>
<path d="M175.661 277.943V273.645H179.959V269.347H175.661H171.356V273.645H167.058V277.943H162.754V282.248V286.546H167.058V282.248H171.356V277.943H175.661Z" fill="white"/>
<path d="M201.462 273.646H197.164V277.944H201.462V273.646Z" fill="white"/>
<path d="M218.667 273.646H214.362V277.944H210.064V282.248H214.362H218.667H222.965V277.944H218.667V273.646Z" fill="white"/>
<path d="M227.263 273.646H222.965V277.944H227.263V273.646Z" fill="white"/>
<path d="M235.865 273.646H231.567V277.944H235.865V273.646Z" fill="white"/>
<path d="M253.07 273.646H248.772V277.944H253.07V273.646Z" fill="white"/>
<path d="M270.269 273.646H265.971V277.944H270.269V273.646Z" fill="white"/>
<path d="M278.872 273.646H274.574V277.944H278.872V273.646Z" fill="white"/>
<path d="M287.474 273.646H283.176V277.944H287.474V273.646Z" fill="white"/>
<path d="M296.076 273.646H291.778V277.944H296.076V273.646Z" fill="white"/>
<path d="M321.877 273.646H317.579V277.944H321.877V273.646Z" fill="white"/>
<path d="M339.082 273.646H334.784V277.944H339.082V273.646Z" fill="white"/>
<path d="M356.28 273.646H351.982V277.944H356.28V273.646Z" fill="white"/>
<path d="M364.883 273.646H360.585V277.944H364.883V273.646Z" fill="white"/>
<path d="M382.088 273.646H377.79V277.944H382.088V273.646Z" fill="white"/>
<path d="M433.696 273.646H429.398V277.944H433.696V273.646Z" fill="white"/>
<path d="M450.895 273.646H446.597V277.944H450.895V273.646Z" fill="white"/>
<path d="M184.257 277.944V273.646H179.959V277.944H175.661V282.248H179.959H184.257H188.561V277.944H184.257Z" fill="white"/>
<path d="M240.163 277.943H235.865V282.241H240.163V277.943Z" fill="white"/>
<path d="M265.971 277.943H261.673V282.241H265.971V277.943Z" fill="white"/>
<path d="M175.654 282.248H171.356V286.546H175.654V282.248Z" fill="white"/>
<path d="M235.865 282.248H231.567V286.546H235.865V282.248Z" fill="white"/>
<path d="M244.468 282.248H240.17V286.546H244.468V282.248Z" fill="white"/>
<path d="M270.269 282.248H265.971V286.546H270.269V282.248Z" fill="white"/>
<path d="M278.872 282.248H274.574V286.546H278.872V282.248Z" fill="white"/>
<path d="M287.474 282.248H283.176V286.546H287.474V282.248Z" fill="white"/>
<path d="M296.076 282.248H291.778V286.546H296.076V282.248Z" fill="white"/>
<path d="M304.679 282.248H300.381V286.546H304.679V282.248Z" fill="white"/>
<path d="M321.877 282.248H317.579V286.546H321.877V282.248Z" fill="white"/>
<path d="M356.28 282.248H351.982V286.546H356.28V282.248Z" fill="white"/>
<path d="M390.691 282.248H386.393V286.546H390.691V282.248Z" fill="white"/>
<path d="M407.889 282.248H403.591V286.546H407.889V282.248Z" fill="white"/>
<path d="M425.094 282.248H420.796V286.546H425.094V282.248Z" fill="white"/>
<path d="M442.299 282.248H438V286.546H442.299V282.248Z" fill="white"/>
<path d="M459.497 282.248H455.199V286.546H459.497V282.248Z" fill="white"/>
<path d="M162.754 286.546H158.456V290.844H162.754V286.546Z" fill="white"/>
<path d="M240.163 286.546H235.865V290.844H240.163V286.546Z" fill="white"/>
<path d="M257.368 286.546H253.07V290.844H257.368V286.546Z" fill="white"/>
<path d="M274.573 286.546H270.275V290.844H274.573V286.546Z" fill="white"/>
<path d="M188.561 295.148H192.859H197.163H201.461V299.446H197.163V303.751V308.049H201.461V303.751H205.766V299.446V295.148H210.064V290.85H214.362V286.546H210.064H205.766H201.461H197.163H192.859V282.248H188.561V286.546H184.257H179.958V290.85V295.148H184.257H188.561Z" fill="white"/>
<path d="M244.468 290.85H240.17V295.148H244.468V290.85Z" fill="white"/>
<path d="M253.07 290.85H248.772V295.148H253.07V290.85Z" fill="white"/>
<path d="M270.269 290.85H265.971V295.148H270.269V290.85Z" fill="white"/>
<path d="M278.872 290.85H274.574V295.148H278.872V290.85Z" fill="white"/>
<path d="M287.474 290.85H283.176V295.148H287.474V290.85Z" fill="white"/>
<path d="M296.076 290.85H291.778V295.148H296.076V290.85Z" fill="white"/>
<path d="M304.679 290.85H300.381V295.148H304.679V290.85Z" fill="white"/>
<path d="M313.275 290.85H308.977V295.148H313.275V290.85Z" fill="white"/>
<path d="M321.877 290.85H317.579V295.148H321.877V290.85Z" fill="white"/>
<path d="M330.48 290.85H326.182V295.148H330.48V290.85Z" fill="white"/>
<path d="M339.082 290.85H334.784V295.148H339.082V290.85Z" fill="white"/>
<path d="M347.684 290.85H343.386V295.148H347.684V290.85Z" fill="white"/>
<path d="M356.28 290.85H351.982V295.148H356.28V290.85Z" fill="white"/>
<path d="M373.486 290.85H369.188V295.148H373.486V290.85Z" fill="white"/>
<path d="M425.094 290.85H420.796V295.148H425.094V290.85Z" fill="white"/>
<path d="M433.696 290.85H429.398V295.148H433.696V290.85Z" fill="white"/>
<path d="M459.497 290.85H455.199V295.148H459.497V290.85Z" fill="white"/>
<path d="M167.052 295.148H162.754V299.446H167.052V295.148Z" fill="white"/>
<path d="M218.667 295.148H214.362H210.064V299.446H214.362H218.667H222.965V295.148H218.667Z" fill="white"/>
<path d="M231.568 295.148H227.27V299.446H231.568V295.148Z" fill="white"/>
<path d="M240.163 295.148H235.865V299.446H240.163V295.148Z" fill="white"/>
<path d="M248.766 295.148H244.468V299.446H248.766V295.148Z" fill="white"/>
<path d="M227.263 299.446H222.965V303.744H227.263V299.446Z" fill="white"/>
<path d="M235.865 299.446H231.567V303.744H235.865V299.446Z" fill="white"/>
<path d="M244.468 299.446H240.17V303.744H244.468V299.446Z" fill="white"/>
<path d="M270.269 299.446H265.971V303.744H270.269V299.446Z" fill="white"/>
<path d="M278.872 299.446H274.574V303.744H278.872V299.446Z" fill="white"/>
<path d="M304.679 299.446H300.381V303.744H304.679V299.446Z" fill="white"/>
<path d="M313.275 299.446H308.977V303.744H313.275V299.446Z" fill="white"/>
<path d="M321.877 299.446H317.579V303.744H321.877V299.446Z" fill="white"/>
<path d="M347.684 299.446H343.386V303.744H347.684V299.446Z" fill="white"/>
<path d="M356.28 299.446H351.982V303.744H356.28V299.446Z" fill="white"/>
<path d="M390.691 299.446H386.393V303.744H390.691V299.446Z" fill="white"/>
<path d="M416.491 299.446H412.193V303.744H416.491V299.446Z" fill="white"/>
<path d="M425.094 299.446H420.796V303.744H425.094V299.446Z" fill="white"/>
<path d="M433.696 299.446H429.398V303.744H433.696V299.446Z" fill="white"/>
<path d="M450.895 299.446H446.597V303.744H450.895V299.446Z" fill="white"/>
<path d="M459.497 299.446H455.199V303.744H459.497V299.446Z" fill="white"/>
<path d="M468.1 299.446H463.802V303.744H468.1V299.446Z" fill="white"/>
<path d="M162.754 303.751H158.456V308.049H162.754H167.059V303.751H162.754Z" fill="white"/>
<path d="M192.86 303.751H188.562V308.049H192.86V303.751Z" fill="white"/>
<path d="M214.362 303.751H210.064V308.049H214.362V303.751Z" fill="white"/>
<path d="M222.965 303.751H218.667V308.049H222.965V303.751Z" fill="white"/>
<path d="M248.766 303.751H244.468V308.049H248.766V303.751Z" fill="white"/>
<path d="M463.802 303.751H459.504V308.049H463.802V303.751Z" fill="white"/>
<path d="M472.398 303.751H468.1V308.049H472.398V303.751Z" fill="white"/>
<path d="M244.468 308.049H240.17V312.347H244.468V308.049Z" fill="white"/>
<path d="M261.666 308.049H257.368V312.347H261.666V308.049Z" fill="white"/>
<path d="M270.269 308.049H265.971V312.347H270.269V308.049Z" fill="white"/>
<path d="M278.872 308.049H274.574V312.347H278.872V308.049Z" fill="white"/>
<path d="M287.474 308.049H283.176V312.347H287.474V308.049Z" fill="white"/>
<path d="M296.076 308.049H291.778V312.347H296.076V308.049Z" fill="white"/>
<path d="M304.679 308.049H300.381V312.347H304.679V308.049Z" fill="white"/>
<path d="M330.48 308.049H326.182V312.347H330.48V308.049Z" fill="white"/>
<path d="M347.684 308.049H343.386V312.347H347.684V308.049Z" fill="white"/>
<path d="M364.883 308.049H360.585V312.347H364.883V308.049Z" fill="white"/>
<path d="M382.088 308.049H377.79V312.347H382.088V308.049Z" fill="white"/>
<path d="M416.491 308.049H412.193V312.347H416.491V308.049Z" fill="white"/>
<path d="M425.094 308.049H420.796V312.347H425.094V308.049Z" fill="white"/>
<path d="M442.299 308.049H438V312.347H442.299V308.049Z" fill="white"/>
<path d="M468.1 308.049H463.802V312.347H468.1V308.049Z" fill="white"/>
<path d="M162.754 312.353H158.456V316.651H162.754V312.353Z" fill="white"/>
<path d="M175.661 312.353V308.049H179.959V303.751H175.661V299.446H179.959V295.148H175.661H171.356V299.446H167.058V303.751H171.356V308.049H167.058V312.353V316.651H171.356V320.949H175.661V316.651H179.959V312.353H175.661Z" fill="white"/>
<path d="M222.965 316.652H227.269V312.354V308.049H222.965V312.354V316.652Z" fill="white"/>
<path d="M240.163 312.353H235.865V316.651H240.163V312.353Z" fill="white"/>
<path d="M248.766 312.353H244.468V316.651H248.766V312.353Z" fill="white"/>
<path d="M265.971 312.353H261.673V316.651H265.971V312.353Z" fill="white"/>
<path d="M438.001 316.651V312.353H433.696H429.398V316.651H433.696H438.001Z" fill="white"/>
<path d="M446.597 316.652V320.95H450.901V316.652V312.354V308.049H446.597V312.354H442.299V316.652H446.597Z" fill="white"/>
<path d="M201.462 316.651H197.164V320.949H201.462V316.651Z" fill="white"/>
<path d="M205.766 320.95H210.064V316.652H214.362H218.667V312.354H214.362H210.064V308.049H205.766V312.354H201.462V316.652H205.766V320.95Z" fill="white"/>
<path d="M235.865 316.651H231.567V320.949V325.254H235.865H240.17V320.949H235.865V316.651Z" fill="white"/>
<path d="M244.468 316.651H240.17V320.949H244.468V316.651Z" fill="white"/>
<path d="M261.666 316.651H257.368V320.949H261.666V316.651Z" fill="white"/>
<path d="M287.474 316.651H283.176V320.949H287.474V316.651Z" fill="white"/>
<path d="M304.679 316.651H300.381V320.949H304.679V316.651Z" fill="white"/>
<path d="M313.275 316.651H308.977V320.949H313.275V316.651Z" fill="white"/>
<path d="M330.48 316.651H326.182V320.949H330.48V316.651Z" fill="white"/>
<path d="M347.684 316.651H343.386V320.949H347.684V316.651Z" fill="white"/>
<path d="M364.883 316.651H360.585V320.949H364.883V316.651Z" fill="white"/>
<path d="M390.691 316.651H386.393V320.949H390.691V316.651Z" fill="white"/>
<path d="M399.287 316.651H394.989V320.949H399.287V316.651Z" fill="white"/>
<path d="M459.497 316.651H455.199V320.949H459.497V316.651Z" fill="white"/>
<path d="M192.859 325.254V320.949V316.651H197.163V312.353H192.859H188.561V316.651H184.257H179.958V320.949V325.254V329.552H184.257H188.561V325.254H192.859Z" fill="white"/>
<path d="M205.76 320.949H201.462V325.247H205.76V320.949Z" fill="white"/>
<path d="M214.362 320.949H210.064V325.247H214.362V320.949Z" fill="white"/>
<path d="M257.368 320.949H253.07V325.247H257.368V320.949Z" fill="white"/>
<path d="M274.573 320.949H270.275V325.247H274.573V320.949Z" fill="white"/>
<path d="M412.194 320.949H407.896V325.247H412.194V320.949Z" fill="white"/>
<path d="M437.994 320.949H433.696V325.247H437.994V320.949Z" fill="white"/>
<path d="M167.052 325.254H162.754V329.552H167.052V325.254Z" fill="white"/>
<path d="M253.07 325.254H248.772V329.552H253.07V325.254Z" fill="white"/>
<path d="M261.666 325.254H257.368V329.552H261.666V325.254Z" fill="white"/>
<path d="M278.872 325.254H274.574V329.552H278.872V325.254Z" fill="white"/>
<path d="M287.474 325.254H283.176V329.552H287.474V325.254Z" fill="white"/>
<path d="M296.076 325.254H291.778V329.552H296.076V325.254Z" fill="white"/>
<path d="M313.275 325.254H308.977V329.552H313.275V325.254Z" fill="white"/>
<path d="M321.877 325.254H317.579V329.552H321.877V325.254Z" fill="white"/>
<path d="M339.082 325.254H334.784V329.552H339.082V325.254Z" fill="white"/>
<path d="M347.684 325.254H343.386V329.552H347.684V325.254Z" fill="white"/>
<path d="M356.28 325.254H351.982V329.552H356.28V325.254Z" fill="white"/>
<path d="M373.486 325.254H369.188V329.552H373.486V325.254Z" fill="white"/>
<path d="M382.088 325.254H377.79V329.552H382.088V325.254Z" fill="white"/>
<path d="M433.696 329.552V325.254H429.398V320.949H425.094H420.796V325.254H425.094V329.552H429.398H433.696Z" fill="white"/>
<path d="M162.754 329.552H158.456V333.85H162.754V329.552Z" fill="white"/>
<path d="M171.356 329.552H167.058V333.85H171.356V329.552Z" fill="white"/>
<path d="M231.568 329.552H227.27V333.85H231.568V329.552Z" fill="white"/>
<path d="M248.772 333.856V329.552H244.468H240.17V333.856V338.154H244.468V333.856H248.772Z" fill="white"/>
<path d="M257.368 329.552H253.07V333.85H257.368V329.552Z" fill="white"/>
<path d="M283.17 329.552H278.872V333.85H283.17V329.552Z" fill="white"/>
<path d="M403.591 329.552H399.293V333.85H403.591V329.552Z" fill="white"/>
<path d="M425.094 329.552H420.796V333.85H425.094V329.552Z" fill="white"/>
<path d="M270.269 333.856H265.971V338.154H270.269V333.856Z" fill="white"/>
<path d="M278.872 333.856H274.574V338.154H278.872V333.856Z" fill="white"/>
<path d="M313.275 333.856H308.977V338.154H313.275V333.856Z" fill="white"/>
<path d="M321.877 333.856H317.579V338.154H321.877V333.856Z" fill="white"/>
<path d="M339.082 333.856H334.784V338.154H339.082V333.856Z" fill="white"/>
<path d="M347.684 333.856H343.386V338.154H347.684V333.856Z" fill="white"/>
<path d="M356.28 333.856H351.982V338.154H356.28V333.856Z" fill="white"/>
<path d="M399.287 333.856H394.989V338.154H399.287V333.856Z" fill="white"/>
<path d="M416.498 338.154V333.856V329.552V325.254H412.194V329.552H407.896V333.856V338.154H412.194H416.498Z" fill="white"/>
<path d="M214.362 342.459V346.757H218.667V342.459H222.965V346.757V351.055V355.359H218.667V359.657H214.362V363.962H218.667V368.26H222.965V372.558H218.667V376.862H222.965H227.269V372.558V368.26H231.567V363.962H227.269V359.657H231.567V355.359H227.269V351.055V346.757V342.459V338.154H222.965H218.667V333.856H214.362V329.552H210.064V333.856V338.154H214.362V342.459Z" fill="white"/>
<path d="M235.865 338.154H231.567V342.452H235.865V338.154Z" fill="white"/>
<path d="M248.766 338.154H244.468V342.452H248.766V338.154Z" fill="white"/>
<path d="M265.971 338.154H261.673V342.452H265.971V338.154Z" fill="white"/>
<path d="M308.977 338.154H304.679V342.452H308.977V338.154Z" fill="white"/>
<path d="M407.895 342.459V338.154H403.591H399.293V342.459H403.591H407.895Z" fill="white"/>
<path d="M253.07 342.459H248.772V346.757H253.07V342.459Z" fill="white"/>
<path d="M261.666 342.459H257.368V346.757H261.666V342.459Z" fill="white"/>
<path d="M270.269 342.459H265.971V346.757H270.269V342.459Z" fill="white"/>
<path d="M278.872 342.459H274.574V346.757H278.872V342.459Z" fill="white"/>
<path d="M287.474 342.459H283.176V346.757H287.474V342.459Z" fill="white"/>
<path d="M296.076 342.459H291.778V346.757H296.076V342.459Z" fill="white"/>
<path d="M330.48 342.459H326.182V346.757H330.48V342.459Z" fill="white"/>
<path d="M339.082 342.459H334.784V346.757H339.082V342.459Z" fill="white"/>
<path d="M347.684 342.459H343.386V346.757H347.684V342.459Z" fill="white"/>
<path d="M356.28 342.459H351.982V346.757H356.28V342.459Z" fill="white"/>
<path d="M373.486 342.459H369.188V346.757H373.486V342.459Z" fill="white"/>
<path d="M382.088 342.459H377.79V346.757H382.088V342.459Z" fill="white"/>
<path d="M390.691 342.459H386.393V346.757H390.691V342.459Z" fill="white"/>
<path d="M399.287 342.459H394.989V346.757H399.287V342.459Z" fill="white"/>
<path d="M167.052 346.757H162.754V351.055H167.052V346.757Z" fill="white"/>
<path d="M248.772 351.055V346.757H244.468V342.459H240.17V346.757H235.865H231.567V351.055H235.865H240.17V355.359H244.468V351.055H248.772Z" fill="white"/>
<path d="M257.368 346.757H253.07V351.055H257.368V346.757Z" fill="white"/>
<path d="M265.971 346.757H261.673V351.055H265.971V346.757Z" fill="white"/>
<path d="M317.579 346.757H313.281V351.055H317.579V346.757Z" fill="white"/>
<path d="M248.772 355.359H244.468V359.657H248.772V363.962H253.07V359.657H257.368V355.359H253.07V351.055H248.772V355.359Z" fill="white"/>
<path d="M278.872 351.055H274.574V355.353H278.872V351.055Z" fill="white"/>
<path d="M313.275 351.055H308.977V355.353H313.275V351.055Z" fill="white"/>
<path d="M339.082 351.055H334.784V355.353H339.082V351.055Z" fill="white"/>
<path d="M356.28 351.055H351.982V355.353H356.28V351.055Z" fill="white"/>
<path d="M364.883 351.055H360.585V355.353H364.883V351.055Z" fill="white"/>
<path d="M373.486 351.055H369.188V355.353H373.486V351.055Z" fill="white"/>
<path d="M240.163 355.359H235.865V359.657H240.163V355.359Z" fill="white"/>
<path d="M283.176 359.657H287.474H291.778V355.359H287.474H283.176V359.657Z" fill="white"/>
<path d="M304.679 359.657H308.977V355.359H304.679H300.381V359.657V363.962H304.679V359.657Z" fill="white"/>
<path d="M313.275 359.657H308.977V363.955H313.275V359.657Z" fill="white"/>
<path d="M347.684 359.657H343.386V363.955H347.684V359.657Z" fill="white"/>
<path d="M356.28 359.657H351.982V363.955H356.28V359.657Z" fill="white"/>
<path d="M364.883 359.657H360.585V363.955H364.883V359.657Z" fill="white"/>
<path d="M382.088 359.657H377.79V363.955H382.088V359.657Z" fill="white"/>
<path d="M399.287 359.657H394.989V363.955H399.287V359.657Z" fill="white"/>
<path d="M167.058 368.26H162.754V372.558H167.058H171.356V368.26V363.962H167.058V368.26Z" fill="white"/>
<path d="M244.468 368.26V363.962H240.17H235.865V368.26H240.17H244.468Z" fill="white"/>
<path d="M278.871 363.962V359.657H274.573V363.962H270.275V359.657V355.359V351.055H265.971V355.359H261.673V359.657H265.971V363.962V368.26H270.275H274.573H278.871H283.176V363.962H278.871Z" fill="white"/>
<path d="M317.579 363.962H313.281V368.26H317.579V363.962Z" fill="white"/>
<path d="M218.66 368.26H214.362V372.558H218.66V368.26Z" fill="white"/>
<path d="M235.865 368.26H231.567V372.558H235.865V368.26Z" fill="white"/>
<path d="M253.07 368.26H248.772V372.558H253.07V368.26Z" fill="white"/>
<path d="M291.779 372.558H296.077V368.26V363.962H291.779H287.474V368.26H291.779V372.558Z" fill="white"/>
<path d="M313.275 368.26H308.977V372.558H313.275V368.26Z" fill="white"/>
<path d="M330.48 368.26H326.182V372.558H330.48V368.26Z" fill="white"/>
<path d="M356.28 368.26H351.982V372.558H356.28V368.26Z" fill="white"/>
<path d="M364.883 368.26H360.585V372.558H364.883V368.26Z" fill="white"/>
<path d="M373.486 368.26H369.188V372.558H373.486V368.26Z" fill="white"/>
<path d="M390.691 368.26H386.393V372.558H390.691V368.26Z" fill="white"/>
<path d="M257.368 376.862H261.673H265.971V372.558H261.673V368.26H257.368V372.558H253.07V376.862H257.368Z" fill="white"/>
<path d="M360.585 372.558H356.287V376.856H360.585V372.558Z" fill="white"/>
<path d="M205.767 381.16V385.465V389.763H210.065V385.465V381.16V376.862H205.767V381.16Z" fill="white"/>
<path d="M231.567 376.862V381.16H227.269V385.465H222.965V389.763H227.269V394.061H231.567H235.865H240.17V398.365H235.865V402.663H240.17H244.468H248.772V398.365H253.07H257.368V394.061H253.07H248.772H244.468V389.763H248.772H253.07H257.368V385.465V381.16H253.07V385.465H248.772V381.16H244.468V385.465H240.17V389.763H235.865V385.465H240.17V381.16V376.862H244.468H248.772V372.558H244.468H240.17H235.865V376.862H231.567Z" fill="white"/>
<path d="M321.884 376.862H326.182V372.558H321.884H317.579V376.862V381.16H321.884V376.862Z" fill="white"/>
<path d="M330.48 376.862H326.182V381.16H330.48V376.862Z" fill="white"/>
<path d="M356.28 376.862H351.982V381.16H356.28V376.862Z" fill="white"/>
<path d="M364.883 376.862H360.585V381.16H364.883V376.862Z" fill="white"/>
<path d="M390.691 376.862H386.393V381.16H390.691V376.862Z" fill="white"/>
<path d="M399.287 376.862H394.989V381.16H399.287V376.862Z" fill="white"/>
<path d="M162.754 381.16H158.456V385.458H162.754V381.16Z" fill="white"/>
<path d="M218.667 381.16V376.862H214.362V381.16V385.465V389.763H218.667V385.465V381.16Z" fill="white"/>
<path d="M330.48 385.465H326.182V389.763H330.48V385.465Z" fill="white"/>
<path d="M339.082 385.465H334.784V389.763H339.082V385.465Z" fill="white"/>
<path d="M347.684 385.465H343.386V389.763H347.684V385.465Z" fill="white"/>
<path d="M356.28 385.465H351.982V389.763H356.28V385.465Z" fill="white"/>
<path d="M390.691 385.465H386.393V389.763H390.691V385.465Z" fill="white"/>
<path d="M407.889 385.465H403.591V389.763H407.889V385.465Z" fill="white"/>
<path d="M416.491 385.465H412.193V389.763H416.491V385.465Z" fill="white"/>
<path d="M222.965 389.762H218.667V394.06H222.965V389.762Z" fill="white"/>
<path d="M261.673 394.061V398.365H257.368V402.663H261.673H265.971V398.365V394.061V389.763H270.275V385.465H265.971V381.16H261.673V385.465V389.763H257.368V394.061H261.673Z" fill="white"/>
<path d="M274.573 394.06H278.871H283.175V389.762H278.871H274.573H270.275V394.06H274.573Z" fill="white"/>
<path d="M321.877 389.762H317.579V394.06H321.877V389.762Z" fill="white"/>
<path d="M343.38 389.762H339.082V394.06H343.38V389.762Z" fill="white"/>
<path d="M210.065 394.061H205.767V398.359H210.065V394.061Z" fill="white"/>
<path d="M214.362 398.365V402.663V406.968V411.265H218.667H222.965V415.564H227.269V411.265V406.968H231.567V402.663V398.365H227.269H222.965V402.663V406.968H218.667V402.663V398.365V394.061H214.362V398.365Z" fill="white"/>
<path d="M330.48 394.061H326.182V398.359H330.48V394.061Z" fill="white"/>
<path d="M347.684 394.061H343.386V398.359H347.684V394.061Z" fill="white"/>
<path d="M356.28 394.061H351.982V398.359H356.28V394.061Z" fill="white"/>
<path d="M399.287 394.061H394.989V398.359H399.287V394.061Z" fill="white"/>
<path d="M407.889 394.061H403.591V398.359H407.889V394.061Z" fill="white"/>
<path d="M205.76 398.365H201.462V402.663H205.76V398.365Z" fill="white"/>
<path d="M296.077 402.663H300.381V406.968H304.679V402.663V398.365V394.061V389.763V385.465H308.977V389.763V394.061H313.281V389.763V385.465H317.579V381.16H313.281V376.862H308.977H304.679V372.558H300.381V376.862V381.16V385.465V389.763V394.061H296.077V389.763H291.779V385.465H296.077V381.16V376.862H291.779H287.474V372.558V368.26H283.176V372.558H278.872V376.862H283.176V381.16V385.465H287.474V389.763V394.061H291.779V398.365H296.077V402.663Z" fill="white"/>
<path d="M321.884 398.365H317.579H313.281H308.977V402.663V406.968H313.281H317.579H321.884V402.663H326.182V398.365H321.884Z" fill="white"/>
<path d="M334.777 398.365H330.479V402.663H334.777V398.365Z" fill="white"/>
<path d="M351.982 398.365H347.684V402.663H351.982V398.365Z" fill="white"/>
<path d="M201.462 402.663H197.164V398.365H201.462V389.763H197.164V385.465H201.462V372.564H210.064V368.266H214.362V363.968H210.064V359.67H214.362V355.372H210.064V351.074H214.362V346.776H210.064V338.174H205.766V346.776H201.468V338.174H197.17V333.876H201.468V329.578H188.568V333.876H192.866V338.174H188.568V333.876H171.357V338.174H158.456V342.472H171.357V351.074H167.059V355.372H158.456V359.67H171.357V363.968H175.655V359.67H188.555V363.968H192.853V372.571H197.151V381.173H192.853V372.571H175.661V376.869H179.959V381.167H175.661V385.465H188.561V389.763H167.059V385.465H162.754V394.067H167.052V398.365H162.754V402.663H171.357V398.365H175.655V394.067H188.555V398.365H175.661V402.663H179.959V406.961H188.561V402.663H192.859V406.961H188.561V411.259H179.959V415.557H192.859V411.259H201.462V402.657V402.663ZM197.164 359.657V355.359H192.866V351.061H188.568V355.359H179.965V346.757H175.667V342.459H179.965V346.757H192.866V342.459H197.164V355.359H201.462V359.657H205.76V363.955H197.157V359.657H197.164Z" fill="white"/>
<path d="M253.07 402.663H248.772V406.961H253.07V402.663Z" fill="white"/>
<path d="M390.691 402.663H386.393V406.961H390.691V402.663Z" fill="white"/>
<path d="M407.889 402.663H403.591V406.961H407.889V402.663Z" fill="white"/>
<path d="M425.094 402.663H420.796V406.961H425.094V402.663Z" fill="white"/>
<path d="M179.959 406.968H175.661V411.266H179.959V406.968Z" fill="white"/>
<path d="M205.767 411.266H210.065V406.968V402.663H205.767V406.968V411.266Z" fill="white"/>
<path d="M330.48 406.968V402.663H326.182V406.968V411.266H330.48H334.784V406.968H330.48Z" fill="white"/>
<path d="M343.38 406.968H339.082V411.266H343.38V406.968Z" fill="white"/>
<path d="M360.585 406.968H356.287V411.266H360.585V406.968Z" fill="white"/>
<path d="M205.76 411.266H201.462V415.564H205.76V411.266Z" fill="white"/>
<path d="M248.772 411.266H244.468V406.968H240.17V411.266V415.564H235.866V411.266H231.568V415.564H227.27V419.868H231.568H235.866H240.17H244.468H248.772V415.564V411.266Z" fill="white"/>
<path d="M347.684 411.266H343.386V415.564H347.684V411.266Z" fill="white"/>
<path d="M356.28 411.266H351.982V415.564H356.28V411.266Z" fill="white"/>
<path d="M364.883 411.266H360.585V415.564H364.883V411.266Z" fill="white"/>
<path d="M390.691 411.266H386.393V415.564H390.691V411.266Z" fill="white"/>
<path d="M399.287 411.266H394.989V415.564H399.287V411.266Z" fill="white"/>
<path d="M201.462 415.563H197.164V419.861H201.462V415.563Z" fill="white"/>
<path d="M261.673 415.564V411.266V406.968H257.368H253.07V411.266V415.564V419.868H257.368V424.166H261.673H265.971V419.868H261.673V415.564Z" fill="white"/>
<path d="M351.982 415.563H347.684V419.861H351.982V415.563Z" fill="white"/>
<path d="M197.157 419.868H192.859V424.166H197.157V419.868Z" fill="white"/>
<path d="M201.462 419.868V424.166H205.766H210.064V419.868V415.563H205.766V419.868H201.462Z" fill="white"/>
<path d="M218.667 419.868V415.563H214.362V419.868V424.166H218.667V419.868Z" fill="white"/>
<path d="M222.965 424.166H218.667V428.471H222.965V432.769H227.269V428.471V424.166V419.868H222.965V424.166Z" fill="white"/>
<path d="M253.07 419.868H248.772V424.166H253.07V419.868Z" fill="white"/>
<path d="M330.48 419.868H334.784H339.082V415.564V411.266H334.784V415.564H330.48H326.182V419.868V424.166H330.48V419.868Z" fill="white"/>
<path d="M347.684 419.868H343.386V424.166H347.684V419.868Z" fill="white"/>
<path d="M364.883 419.868H360.585V424.166H364.883V419.868Z" fill="white"/>
<path d="M382.088 419.868H377.79V424.166H382.088V419.868Z" fill="white"/>
<path d="M407.889 419.868H403.591V424.166H407.889V419.868Z" fill="white"/>
<path d="M167.052 424.166H162.754V428.464H167.052V424.166Z" fill="white"/>
<path d="M214.362 424.166H210.064V428.464H214.362V424.166Z" fill="white"/>
<path d="M334.777 424.166H330.479V428.464H334.777V424.166Z" fill="white"/>
<path d="M343.38 424.166H339.082V428.464H343.38V424.166Z" fill="white"/>
<path d="M205.766 432.768V437.067H201.462V441.371H205.766H210.064V437.067V432.768V428.47H205.766V432.768Z" fill="white"/>
<path d="M218.667 428.47H214.362V432.768V437.067H218.667H222.965V432.768H218.667V428.47Z" fill="white"/>
<path d="M356.28 428.47H351.982V432.768H356.28V428.47Z" fill="white"/>
<path d="M373.486 428.47H369.188V432.768H373.486V428.47Z" fill="white"/>
<path d="M382.088 428.47H377.79V432.768H382.088V428.47Z" fill="white"/>
<path d="M390.691 428.47H386.393V432.768H390.691V428.47Z" fill="white"/>
<path d="M399.287 428.47H394.989V432.768H399.287V428.47Z" fill="white"/>
<path d="M416.491 428.47H412.193V432.768H416.491V428.47Z" fill="white"/>
<path d="M192.86 432.768H197.164H201.462V428.47V424.166H197.164V428.47H192.86V424.166H188.562V428.47V432.768V437.067V441.371H192.86V437.067V432.768Z" fill="white"/>
<path d="M317.579 437.067V441.371V445.669H321.884V441.371V437.067V432.769H317.579V437.067Z" fill="white"/>
<path d="M330.48 432.769V428.471H326.182V424.166H321.884V419.868H317.579V424.166H313.281V428.471H308.977H304.679V424.166H308.977V419.868H304.679V415.564H308.977V411.266H304.679H300.381V415.564H296.076V411.266V406.968V402.663H291.778V398.365H287.474H283.176H278.871V402.663H283.176V406.968V411.266H278.871V406.968V402.663H274.573H270.275V406.968H265.971V411.266H270.275V415.564H265.971V419.868H270.275H274.573V424.166H278.871V428.471H283.176V432.769H278.871V437.067H274.573H270.275V432.769H265.971V437.067V441.371H270.275H274.573H278.871H283.176H287.474V437.067V432.769V428.471V424.166V419.868H283.176H278.871V415.564H283.176H287.474V411.266H291.778V415.564H287.474V419.868H291.778H296.076V424.166H291.778V428.471V432.769H296.076V428.471H300.381V432.769H304.679H308.977V437.067V441.371H313.281V437.067V432.769H317.579V428.471H321.884V432.769H326.182V437.067H330.48H334.784V432.769H330.48Z" fill="white"/>
<path d="M347.685 437.067V432.769H343.387H339.082V437.067H343.387H347.685Z" fill="white"/>
<path d="M437.994 432.769H433.696V437.067H437.994V432.769Z" fill="white"/>
<path d="M171.356 437.067H175.661V441.371H179.959V437.067V432.769V428.471V424.166H175.661V419.868V415.564H171.356V411.266V406.968H167.058V411.266H162.754V415.564H167.058V419.868H171.356V424.166V428.471H175.661V432.769H171.356H167.058H162.754V437.067V441.371H167.058V445.669H171.356V441.371V437.067Z" fill="white"/>
<path d="M304.679 437.066H300.381H296.076H291.778V441.371V445.669V449.973V454.271H296.076H300.381V449.973H296.076V445.669V441.371H300.381V445.669V449.973H304.679V445.669H308.977V441.371H304.679V437.066Z" fill="white"/>
<path d="M339.082 437.066H334.784V441.364H339.082V437.066Z" fill="white"/>
<path d="M364.883 437.066H360.585V441.364H364.883V437.066Z" fill="white"/>
<path d="M382.088 437.066H377.79V441.364H382.088V437.066Z" fill="white"/>
<path d="M390.691 437.066H386.393V441.364H390.691V437.066Z" fill="white"/>
<path d="M407.889 437.066H403.591V441.364H407.889V437.066Z" fill="white"/>
<path d="M442.299 437.066H438V441.364H442.299V437.066Z" fill="white"/>
<path d="M192.859 441.371V445.669H197.164H201.462V441.371H197.164H192.859Z" fill="white"/>
<path d="M330.48 441.371H326.182V445.669H330.48V441.371Z" fill="white"/>
<path d="M343.38 441.371H339.082V445.669H343.38V441.371Z" fill="white"/>
<path d="M356.287 441.371H351.982H347.684V445.669H351.982V449.974H356.287V445.669V441.371Z" fill="white"/>
<path d="M377.784 441.371H373.486V445.669H377.784V441.371Z" fill="white"/>
<path d="M184.257 445.669H179.959H175.661H171.356V449.974V454.272H175.661V449.974H179.959H184.257H188.561H192.859V445.669H188.561H184.257Z" fill="white"/>
<path d="M278.872 445.669H274.574V449.967H278.872V445.669Z" fill="white"/>
<path d="M334.784 449.974H330.48H326.182V454.272V458.576H330.48V454.272H334.784H339.082V449.974V445.669H334.784V449.974Z" fill="white"/>
<path d="M347.684 445.669H343.386V449.967H347.684V445.669Z" fill="white"/>
<path d="M364.883 445.669H360.585V449.967H364.883V445.669Z" fill="white"/>
<path d="M373.486 445.669H369.188V449.967H373.486V445.669Z" fill="white"/>
<path d="M390.691 445.669H386.393V449.967H390.691V445.669Z" fill="white"/>
<path d="M407.889 445.669H403.591V449.967H407.889V445.669Z" fill="white"/>
<path d="M425.094 445.669H420.796V449.967H425.094V445.669Z" fill="white"/>
<path d="M433.696 445.669H429.398V449.967H433.696V445.669Z" fill="white"/>
<path d="M287.474 449.974H283.176V454.272V458.576H287.474H291.778V454.272H287.474V449.974Z" fill="white"/>
<path d="M308.977 454.272V458.576H304.679V462.874H300.381V467.172H304.679V471.477H300.381V467.172H296.076V471.477H291.778V475.775V480.079H296.076H300.381H304.679H308.977V475.775V471.477V467.172V462.874H313.281H317.579H321.884V458.576V454.272H317.579V449.974H313.281H308.977H304.679V454.272H308.977Z" fill="white"/>
<path d="M351.982 449.974H347.684V454.272H351.982V449.974Z" fill="white"/>
<path d="M360.585 449.974H356.287V454.272H360.585V449.974Z" fill="white"/>
<path d="M364.883 454.271H360.585V458.569H364.883V454.271Z" fill="white"/>
<path d="M373.486 454.271H369.188V458.569H373.486V454.271Z" fill="white"/>
<path d="M382.088 454.271H377.79V458.569H382.088V454.271Z" fill="white"/>
<path d="M390.691 454.271H386.393V458.569H390.691V454.271Z" fill="white"/>
<path d="M399.287 454.271H394.989V458.569H399.287V454.271Z" fill="white"/>
<path d="M425.094 454.271H420.796V458.569H425.094V454.271Z" fill="white"/>
<path d="M300.374 458.576H296.076V462.874H300.374V458.576Z" fill="white"/>
<path d="M339.082 458.576H334.784V462.874H339.082V458.576Z" fill="white"/>
<path d="M369.187 458.576H364.889V462.874H369.187V458.576Z" fill="white"/>
<path d="M364.883 462.874H360.585V467.172H364.883V462.874Z" fill="white"/>
<path d="M382.088 462.874H377.79V467.172H382.088V462.874Z" fill="white"/>
<path d="M390.691 462.874H386.393V467.172H390.691V462.874Z" fill="white"/>
<path d="M399.287 462.874H394.989V467.172H399.287V462.874Z" fill="white"/>
<path d="M407.889 462.874H403.591V467.172H407.889V462.874Z" fill="white"/>
<path d="M442.299 462.874H438V467.172H442.299V462.874Z" fill="white"/>
<path d="M317.579 467.172H313.281V471.47H317.579V467.172Z" fill="white"/>
<path d="M330.479 471.476V475.774V480.079H334.784V484.377V488.675H339.082V484.377V480.079H343.386V484.377V488.675H347.684V484.377V480.079V475.774V471.476H343.386V467.172H339.082V471.476H334.784V467.172H330.479V462.874H326.181V467.172H321.883V471.476H326.181H330.479Z" fill="white"/>
<path d="M369.187 467.172H364.889V471.47H369.187V467.172Z" fill="white"/>
<path d="M386.386 467.172H382.088V471.47H386.386V467.172Z" fill="white"/>
<path d="M455.199 467.172H450.901V471.47H455.199V467.172Z" fill="white"/>
<path d="M351.982 475.774V480.079V484.377H356.287V480.079H360.585V475.774H356.287V471.476H360.585V467.172H356.287V462.874V458.576H351.982V462.874V467.172H347.684V471.476H351.982V475.774Z" fill="white"/>
<path d="M364.883 471.477H360.585V475.775H364.883V471.477Z" fill="white"/>
<path d="M382.088 471.477H377.79V475.775H382.088V471.477Z" fill="white"/>
<path d="M390.691 471.477H386.393V475.775H390.691V471.477Z" fill="white"/>
<path d="M399.287 471.477H394.989V475.775H399.287V471.477Z" fill="white"/>
<path d="M416.491 471.477H412.193V475.775H416.491V471.477Z" fill="white"/>
<path d="M425.094 471.477H420.796V475.775H425.094V471.477Z" fill="white"/>
<path d="M459.497 471.477H455.199V475.775H459.497V471.477Z" fill="white"/>
<path d="M369.187 475.774H364.889V480.072H369.187V475.774Z" fill="white"/>
<path d="M394.988 475.774H390.69V480.072H394.988V475.774Z" fill="white"/>
<path d="M373.486 480.079H369.188V484.377H373.486V480.079Z" fill="white"/>
<path d="M382.088 480.079H377.79V484.377H382.088V480.079Z" fill="white"/>
<path d="M390.691 480.079H386.393V484.377H390.691V480.079Z" fill="white"/>
<path d="M407.889 480.079H403.591V484.377H407.889V480.079Z" fill="white"/>
<path d="M425.094 480.079H420.796V484.377H425.094V480.079Z" fill="white"/>
<path d="M433.696 480.079H429.398V484.377H433.696V480.079Z" fill="white"/>
<path d="M300.374 484.377H296.076V488.675H300.374V484.377Z" fill="white"/>
<path d="M308.977 484.377H304.679V488.675H308.977V484.377Z" fill="white"/>
<path d="M377.784 484.377H373.486V488.675H377.784V484.377Z" fill="white"/>
<path d="M386.386 484.377H382.088V488.675H386.386V484.377Z" fill="white"/>
<path d="M356.28 488.675H351.982V492.973H356.28V488.675Z" fill="white"/>
<path d="M364.889 488.675H369.187V484.377H364.889V480.079H360.585V484.377H356.287V488.675H360.585V492.979H356.287V497.277V501.582H360.585V505.88H356.287V501.582H351.982V505.88H347.684V510.178H351.982H356.287V514.482V518.78H360.585V523.085V527.383H364.889V523.085H369.187V527.383V531.681H373.485V527.383V523.085V518.78V514.482H369.187V518.78H364.889V514.482H360.585V510.178H364.889V505.88H369.187V510.178H373.485V505.88V501.582H369.187H364.889V497.277H369.187V492.979H364.889V488.675Z" fill="white"/>
<path d="M373.486 488.675H369.188V492.973H373.486V488.675Z" fill="white"/>
<path d="M390.691 488.675H386.393V492.973H390.691V488.675Z" fill="white"/>
<path d="M399.287 488.675H394.989V492.973H399.287V488.675Z" fill="white"/>
<path d="M407.889 488.675H403.591V492.973H407.889V488.675Z" fill="white"/>
<path d="M416.491 488.675H412.193V492.973H416.491V488.675Z" fill="white"/>
<path d="M425.094 488.675H420.796V492.973H425.094V488.675Z" fill="white"/>
<path d="M442.299 488.675H438V492.973H442.299V488.675Z" fill="white"/>
<path d="M468.1 488.675H463.802V492.973H468.1V488.675Z" fill="white"/>
<path d="M347.684 492.979H343.386V497.278H347.684V492.979Z" fill="white"/>
<path d="M377.784 492.979H373.486V497.278H377.784V492.979Z" fill="white"/>
<path d="M334.777 497.278H330.479V501.576H334.777V497.278Z" fill="white"/>
<path d="M351.982 497.278H347.684V501.576H351.982V497.278Z" fill="white"/>
<path d="M416.491 497.278H412.193V501.576H416.491V497.278Z" fill="white"/>
<path d="M425.094 497.278H420.796V501.576H425.094V497.278Z" fill="white"/>
<path d="M433.696 497.278H429.398V501.576H433.696V497.278Z" fill="white"/>
<path d="M442.299 497.278H438V501.576H442.299V497.278Z" fill="white"/>
<path d="M321.884 505.88V501.582H326.182V497.278V492.979H330.48H334.784V488.675H330.48H326.182H321.884V484.377H326.182V480.079H321.884V475.775V471.477H317.579V475.775H313.281V480.079V484.377H317.579V488.675H313.281H308.977V492.979V497.278H304.679V492.979H300.381V497.278V501.582H304.679V505.88H308.977V501.582H313.281V497.278V492.979H317.579H321.884V497.278H317.579V501.582H313.281V505.88H308.977V510.178V514.482H313.281V510.178H317.579V505.88H321.884Z" fill="white"/>
<path d="M347.684 501.582H343.386V505.88H347.684V501.582Z" fill="white"/>
<path d="M377.79 501.582V505.88H382.088H386.393V501.582H382.088H377.79Z" fill="white"/>
<path d="M399.287 505.88H394.989V510.178H399.287V505.88Z" fill="white"/>
<path d="M433.696 505.88H429.398V510.178H433.696V505.88Z" fill="white"/>
<path d="M450.895 505.88H446.597V510.178H450.895V505.88Z" fill="white"/>
<path d="M339.082 510.178H343.386V505.88H339.082H334.784H330.479V510.178H334.784V514.483V518.781H339.082V514.483V510.178Z" fill="white"/>
<path d="M343.386 514.482V518.78H347.684V514.482V510.178H343.386V514.482Z" fill="white"/>
<path d="M377.784 510.178H373.486V514.476H377.784V510.178Z" fill="white"/>
<path d="M382.088 514.482H377.79V518.78H382.088V514.482Z" fill="white"/>
<path d="M425.094 514.482H420.796V518.78H425.094V514.482Z" fill="white"/>
<path d="M442.299 514.482H438V518.78H442.299V514.482Z" fill="white"/>
<path d="M450.895 514.482H446.597V518.78H450.895V514.482Z" fill="white"/>
<path d="M459.497 514.482H455.199V518.78H459.497V514.482Z" fill="white"/>
<path d="M476.702 514.482H472.404V518.78H476.702V514.482Z" fill="white"/>
<path d="M343.38 518.78H339.082V523.078H343.38V518.78Z" fill="white"/>
<path d="M403.591 518.78H399.293V523.078H403.591V518.78Z" fill="white"/>
<path d="M412.194 518.78H407.896V523.078H412.194V518.78Z" fill="white"/>
<path d="M390.691 523.085H386.393V527.383H390.691V523.085Z" fill="white"/>
<path d="M399.287 523.085H394.989V527.383H399.287V523.085Z" fill="white"/>
<path d="M442.299 523.085H438V527.383H442.299V523.085Z" fill="white"/>
<path d="M450.895 523.085H446.597V527.383H450.895V523.085Z" fill="white"/>
<path d="M468.1 523.085H463.802V527.383H468.1V523.085Z" fill="white"/>
<path d="M476.702 523.085H472.404V527.383H476.702V523.085Z" fill="white"/>
<path d="M330.48 527.383H334.784V523.085V518.781H330.48H326.182V523.085H321.884V518.781H326.182V514.483V510.178V505.88H321.884V510.178H317.579V514.483V518.781V523.085V527.383V531.681V535.986H321.884V531.681V527.383H326.182V531.681V535.986H330.48V531.681V527.383Z" fill="white"/>
<path d="M394.988 527.383H390.69V531.681H394.988V527.383Z" fill="white"/>
<path d="M403.591 527.383H399.293V531.681H403.591V527.383Z" fill="white"/>
<path d="M481 527.383H476.702V531.681H481V527.383Z" fill="white"/>
<path d="M360.585 531.681V527.383H356.287V531.681H351.982V527.383H356.287V523.085V518.78H351.982V523.085H347.684H343.386V527.383H347.684V531.681V535.985H351.982V540.283H356.287H360.585V535.985H364.889H369.187V531.681H364.889H360.585Z" fill="white"/>
<path d="M390.691 531.681H386.393V535.979H390.691V531.681Z" fill="white"/>
<path d="M468.1 531.681H463.802V535.979H468.1V531.681Z" fill="white"/>
<path d="M476.702 531.681H472.404V535.979H476.702V531.681Z" fill="white"/>
<path d="M382.088 540.283V535.985V531.681V527.383H377.79V531.681V535.985H373.486V540.283H377.79H382.088Z" fill="white"/>
<path d="M416.498 535.985V531.681H412.193V535.985V540.283H416.498H420.796V535.985H416.498Z" fill="white"/>
<path d="M429.392 535.985H425.094V540.283H429.392V535.985Z" fill="white"/>
<path d="M450.901 535.985H446.597V540.283H450.901H455.199H459.504V535.985H455.199H450.901Z" fill="white"/>
<path d="M326.182 540.283V544.588H330.48H334.784V548.886H339.082V544.588V540.283H334.784V535.985H330.48V540.283H326.182Z" fill="white"/>
<path d="M351.982 540.283H347.684V544.581H351.982V540.283Z" fill="white"/>
<path d="M373.486 540.283H369.188V544.581H373.486V540.283Z" fill="white"/>
<path d="M390.691 540.283H386.393V544.581H390.691V540.283Z" fill="white"/>
<path d="M394.988 544.588H399.293V540.283V535.985V531.681H394.988V535.985H390.69V540.283H394.988V544.588Z" fill="white"/>
<path d="M425.094 540.283H420.796V544.581H425.094V540.283Z" fill="white"/>
<path d="M442.299 540.283V535.985H438V540.283V544.588H442.299V540.283Z" fill="white"/>
<path d="M468.1 540.283H463.802V544.581H468.1V540.283Z" fill="white"/>
<path d="M360.585 544.588H356.287V548.886H360.585V544.588Z" fill="white"/>
<path d="M377.784 544.588H373.486V548.886H377.784V544.588Z" fill="white"/>
<path d="M394.988 544.588H390.69V548.886V553.19H394.988V548.886V544.588Z" fill="white"/>
<path d="M403.591 548.886H407.895V544.588V540.283H403.591V544.588H399.293V548.886H403.591Z" fill="white"/>
<path d="M437.994 544.588H433.696V548.886H437.994V544.588Z" fill="white"/>
<path d="M446.597 544.588H442.299V548.886H446.597V544.588Z" fill="white"/>
<path d="M343.38 548.886H339.082V553.184H343.38V548.886Z" fill="white"/>
<path d="M364.883 548.886H360.585V553.184H364.883V548.886Z" fill="white"/>
<path d="M373.486 548.886H369.188V553.184H373.486V548.886Z" fill="white"/>
<path d="M412.193 553.19H407.895H403.591V557.488V561.786H399.293V557.488V553.19H394.988V557.488V561.786H390.69H386.392V557.488V553.19H382.088H377.79H373.485V557.488H369.187V561.786V566.091V570.389V574.693H373.485V578.991H369.187H364.889V574.693H360.585H356.287V570.389H360.585V566.091V561.786H356.287H351.982V566.091V570.389V574.693V578.991H356.287V583.289H360.585H364.889H369.187H373.485V587.594H377.79H382.088V583.289H377.79V578.991V574.693V570.389H373.485V566.091V561.786H377.79V566.091V570.389H382.088H386.392H390.69V574.693H394.988V578.991H399.293V574.693H403.591V570.389H407.895V574.693H412.193V570.389H416.498V566.091V561.786H412.193V557.488H416.498V553.19V548.886H412.193V553.19Z" fill="white"/>
<path d="M420.796 548.886V553.19V557.488H425.094V553.19H429.398V548.886V544.588H425.094V548.886H420.796Z" fill="white"/>
<path d="M442.299 548.886H438V553.184H442.299V548.886Z" fill="white"/>
<path d="M334.777 553.19H330.479V557.488H334.777V553.19Z" fill="white"/>
<path d="M356.287 557.488V553.19H351.982H347.684V557.488H343.386V561.786H347.684H351.982V557.488H356.287Z" fill="white"/>
<path d="M437.994 553.19H433.696V557.488H437.994V553.19Z" fill="white"/>
<path d="M334.784 561.786V566.091V570.389H339.082H343.386V566.091V561.786H339.082H334.784Z" fill="white"/>
<path d="M407.889 574.693H403.591V578.991H407.889V574.693Z" fill="white"/>
<path d="M351.982 578.991H347.684V583.289H351.982V578.991Z" fill="white"/>
<path d="M390.69 583.289V578.991H386.392H382.088V583.289H386.392H390.69Z" fill="white"/>
<path d="M347.684 583.289H343.386V587.587H347.684V583.289Z" fill="white"/>
<path d="M351.982 587.594V591.892V596.196H356.287V591.892V587.594V583.289H351.982V587.594Z" fill="white"/>
<path d="M369.188 591.892V596.196H373.486V591.892V587.594H369.188V591.892Z" fill="white"/>
<path d="M364.883 591.892H360.585V596.19H364.883V591.892Z" fill="white"/>
</svg>
