<svg width="34" height="34" viewBox="0 0 34 34" fill="none" xmlns="http://www.w3.org/2000/svg">
<rect width="34" height="34" rx="8" fill="#434346"/>
<path d="M8.001 16.3755C8.14473 16.0853 8.4059 15.932 8.6927 15.8221C9.83055 15.3852 10.9707 14.9548 12.1106 14.5235C16.0149 13.0456 19.9196 11.5679 23.8245 10.0913C23.917 10.0564 24.0132 10.0245 24.1107 10.0107C24.634 9.93734 24.9814 10.2456 25 10.7948C25.0123 11.161 24.9012 11.5084 24.8253 11.8598C24.0222 15.5941 23.215 19.3275 22.4085 23.0608C22.367 23.2533 22.3151 23.4432 22.2142 23.6162C22.0249 23.9419 21.7391 24.0624 21.3718 23.9693C21.1878 23.9225 21.0205 23.8439 20.8661 23.7324C19.6444 22.846 18.4204 21.9629 17.2007 21.0739C17.0952 20.9972 17.0367 20.9982 16.9408 21.09C16.3253 21.6803 15.7015 22.262 15.083 22.8496C14.922 23.0026 14.7393 23.1029 14.5167 23.1326C14.4239 23.1447 14.3916 23.122 14.399 23.0207C14.4768 21.9738 14.5497 20.9262 14.6239 19.8789C14.6255 19.8572 14.6332 19.8348 14.6302 19.8138C14.573 19.3703 14.8045 19.0929 15.1273 18.8096C17.3783 16.8345 19.6125 14.841 21.8506 12.8514C21.9358 12.7758 22.0875 12.6975 22.001 12.5635C21.9211 12.4398 21.7684 12.4951 21.6496 12.5369C21.5571 12.5695 21.469 12.6188 21.3851 12.6705C18.4553 14.4814 15.5265 16.2933 12.598 18.1058C12.5205 18.1539 12.4549 18.1812 12.3548 18.1499C11.1115 17.7627 9.86649 17.3813 8.62183 16.9987C8.3693 16.9211 8.1404 16.8092 8 16.572V16.3749L8.001 16.3755Z" fill="#16DE93"/>
</svg>
