<svg width="77" height="39" viewBox="0 0 77 39" fill="none" xmlns="http://www.w3.org/2000/svg">
<foreignObject x="-10" y="-10" width="97" height="59"><div xmlns="http://www.w3.org/1999/xhtml" style="backdrop-filter:blur(5px);clip-path:url(#bgblur_0_1046_215_clip_path);height:100%;width:100%"></div></foreignObject><g data-figma-bg-blur-radius="10">
<path d="M0 4C0 1.79086 1.79086 0 4 0H73C75.2091 0 77 1.79086 77 4V28C77 30.2091 75.2091 32 73 32H46.1947C44.4518 32 42.7949 32.7579 41.6552 34.0766L37.4 39L33.1448 34.0766C32.0051 32.7579 30.3482 32 28.6053 32H4C1.79086 32 0 30.2091 0 28V4Z" fill="#666666" fill-opacity="0.2"/>
<path d="M4 0.25H73C75.0711 0.25 76.75 1.92893 76.75 4V28C76.75 30.0711 75.0711 31.75 73 31.75H46.1943C44.3789 31.7501 42.6529 32.5396 41.4658 33.9131L37.3994 38.6182L33.334 33.9131C32.1468 32.5395 30.421 31.7501 28.6055 31.75H4C1.92893 31.75 0.25 30.0711 0.25 28V4C0.25 1.92893 1.92893 0.25 4 0.25Z" stroke="white" stroke-opacity="0.04" stroke-width="0.5"/>
</g>
<defs>
<clipPath id="bgblur_0_1046_215_clip_path" transform="translate(10 10)"><path d="M0 4C0 1.79086 1.79086 0 4 0H73C75.2091 0 77 1.79086 77 4V28C77 30.2091 75.2091 32 73 32H46.1947C44.4518 32 42.7949 32.7579 41.6552 34.0766L37.4 39L33.1448 34.0766C32.0051 32.7579 30.3482 32 28.6053 32H4C1.79086 32 0 30.2091 0 28V4Z"/>
</clipPath></defs>
</svg>
