<svg width="34" height="21" viewBox="0 0 34 21" fill="none" xmlns="http://www.w3.org/2000/svg">
<path d="M20.3319 7.15228C18.1991 7.1377 16.0677 7.1271 13.935 7.10589C13.4857 7.10191 13.5997 7.42003 13.5997 7.65729C13.593 9.50504 13.5731 11.3541 13.6103 13.2005C13.6222 13.7665 13.4419 13.8885 12.9077 13.8779C11.1488 13.8434 9.38856 13.8619 7.6283 13.8686C7.39103 13.8686 7.14449 13.8116 6.91518 13.9295L6.92048 13.9375C6.7654 13.7731 6.80251 13.5664 6.80251 13.3728C6.79986 11.4774 6.81709 9.58324 6.78926 7.68778C6.78263 7.18542 6.94566 7.05419 7.42947 7.06082C9.25733 7.08601 11.0878 7.05552 12.9157 7.0807C13.4008 7.08733 13.5625 6.96141 13.5546 6.45507C13.5254 4.60468 13.5586 2.75296 13.5334 0.902562C13.5268 0.406826 13.6805 0.262347 14.1736 0.268974C16.0465 0.295484 17.9195 0.280904 19.7924 0.278254C20.0893 0.278254 20.3531 0.249092 20.3478 0.699761C20.3226 2.85767 20.3213 5.01558 20.3133 7.17216L20.3319 7.15228Z" fill="#16DE93"/>
<path d="M6.91124 13.9309C6.74291 14.8243 6.85823 15.7256 6.84099 16.623C6.81846 17.7682 6.82111 18.9148 6.84365 20.06C6.8516 20.4709 6.76014 20.6393 6.30284 20.6326C4.38617 20.6074 2.46818 20.6088 0.551511 20.6326C0.103493 20.6379 -0.00387125 20.4868 0.000105218 20.0666C0.0186621 18.1712 0.00938321 16.2757 0.00805763 14.3816C0.00805762 14.1112 -0.0264057 13.8514 0.3898 13.8554C2.5265 13.8699 4.66453 13.8686 6.80123 13.8766C6.83967 13.8766 6.87811 13.9163 6.91655 13.9389L6.91124 13.9309Z" fill="#16DE93"/>
<path d="M27.0482 13.9244C27.6579 13.7839 28.2756 13.8701 28.888 13.8634C30.3845 13.8489 31.881 13.8608 33.3788 13.8568C33.681 13.8568 33.9368 13.8369 33.9328 14.2823C33.9156 16.2626 33.9209 18.2442 33.9302 20.2258C33.9315 20.5572 33.7857 20.6301 33.4901 20.6288C31.5085 20.6208 29.5282 20.6142 27.5466 20.6328C27.1224 20.6367 27.0986 20.4339 27.1012 20.1079C27.1105 18.2813 27.1078 16.4535 27.1039 14.6269C27.1039 14.387 27.0787 14.1458 27.0641 13.9059L27.0469 13.9257L27.0482 13.9244Z" fill="#16DE93"/>
<path d="M27.0633 13.902C25.0379 13.8901 23.0125 13.8609 20.9872 13.8768C20.4861 13.8808 20.3072 13.7734 20.3165 13.2326C20.3509 11.2059 20.3311 9.17925 20.3311 7.15256C20.3311 7.15256 20.3125 7.17244 20.3125 7.17377C20.4384 7.0611 20.5962 7.07303 20.7486 7.07303C22.701 7.07171 24.6535 7.07038 26.606 7.07303C26.8406 7.07303 27.1017 7.02399 27.0977 7.41236C27.0752 9.5822 27.0646 11.752 27.0487 13.9219L27.0646 13.902L27.0633 13.902Z" fill="#16DE93"/>
</svg>
