<svg width="34" height="34" viewBox="0 0 34 34" fill="none" xmlns="http://www.w3.org/2000/svg">
<rect width="34" height="34" rx="8" fill="#434346"/>
<path d="M19.1401 15.3953C19.1504 15.3853 19.1583 15.3727 19.1675 15.3614C20.0307 14.3008 20.8938 13.24 21.757 12.1794C22.8382 10.8508 23.9196 9.52208 25.0004 8.19303C25.0174 8.17197 25.0452 8.15567 25.0431 8.12041C25.017 8.10167 24.988 8.11065 24.9611 8.11054C24.0573 8.10999 23.1537 8.11087 22.2499 8.10832C22.182 8.1081 22.1394 8.13072 22.0968 8.18328C21.5313 8.88145 20.9638 9.57796 20.3969 10.2748C19.5293 11.3413 18.6618 12.4079 17.7938 13.4741C17.7716 13.5014 17.755 13.5365 17.7126 13.5494C17.6873 13.5157 17.661 13.4814 17.6354 13.4465C16.3346 11.6623 15.0333 9.87832 13.7342 8.0928C13.6868 8.02772 13.64 7.99989 13.5589 8C11.7444 8.00277 9.92986 8.00211 8.11533 8.00211C8.08116 8.00211 8.04709 8.00211 8 8.00211C8.03118 8.07517 8.07326 8.11997 8.10882 8.16864C10.0963 10.895 12.0842 13.6212 14.072 16.3475C14.2739 16.6242 14.4759 16.9008 14.6773 17.1777C14.7255 17.2439 14.7251 17.2452 14.6745 17.3079C14.6107 17.3872 14.5454 17.4653 14.4811 17.5444C13.3703 18.91 12.2598 20.2758 11.149 21.6414C10.2584 22.7362 9.36784 23.8308 8.47766 24.9258C8.46292 24.9439 8.43697 24.958 8.44829 24.9956C8.4673 24.9965 8.4877 24.9983 8.5082 24.9983C9.42262 24.9984 10.3369 24.9978 11.2514 25C11.3123 25.0001 11.3477 24.9756 11.3845 24.9301C11.9412 24.2436 12.4995 23.5585 13.0572 22.873C14.0075 21.705 14.9577 20.537 15.908 19.369C15.9693 19.2936 16.0317 19.2191 16.0968 19.1402C16.1432 19.1779 16.1679 19.2231 16.1972 19.2634C17.5546 21.1235 18.912 22.9836 20.2668 24.8458C20.318 24.9162 20.3703 24.9397 20.4523 24.9396C21.7936 24.9372 23.1349 24.9379 24.4762 24.9379C24.9459 24.9379 25.4156 24.9381 25.8852 24.9374C25.9215 24.9374 25.9608 24.9471 26 24.9213C25.9777 24.8883 25.9604 24.8611 25.9414 24.835C23.8074 21.9086 21.6734 18.9822 19.5394 16.0558C19.4063 15.8733 19.2744 15.6898 19.1391 15.509C19.1072 15.4663 19.101 15.4331 19.1402 15.3951L19.1401 15.3953ZM22.7993 23.2067C22.8222 23.2382 22.8498 23.2671 22.8631 23.3067C22.8376 23.3338 22.8077 23.3248 22.7814 23.3248C22.255 23.3255 21.7285 23.3239 21.2019 23.327C21.1321 23.3275 21.093 23.2991 21.0533 23.2445C19.8354 21.5715 18.6162 19.8996 17.397 18.2277C15.345 15.4136 13.2926 12.5997 11.241 9.7853C11.2058 9.73695 11.1614 9.69349 11.1403 9.6314C11.181 9.61278 11.2165 9.62009 11.2507 9.62009C11.7595 9.61954 12.2681 9.62153 12.7768 9.61788C12.8593 9.61732 12.9113 9.64182 12.9623 9.7119C14.4992 11.824 16.0385 13.9343 17.5775 16.0448C19.3181 18.432 21.0588 20.8193 22.7994 23.2067H22.7993Z" fill="#16DE93"/>
</svg>
