<svg width="35" height="35" viewBox="0 0 35 35" fill="none" xmlns="http://www.w3.org/2000/svg">
<g filter="url(#filter0_i_1067_85)">
<rect width="35" height="35" rx="8" fill="white" fill-opacity="0.01"/>
</g>
<rect x="0.5" y="0.5" width="34" height="34" rx="7.5" stroke="white" stroke-opacity="0.1"/>
<path d="M10.0705 21.1011V12.8121C10.5721 12.8124 11.0741 12.8075 11.5754 12.8166C11.7104 12.8192 11.7335 12.7708 11.7318 12.6511C11.7257 12.2088 11.7328 11.7662 11.7273 11.324C11.726 11.211 11.7617 11.1757 11.874 11.1766C12.3325 11.1818 12.7913 11.1825 13.2498 11.1766C13.3682 11.175 13.3935 11.2208 13.3923 11.3279C13.3877 11.7812 13.3864 12.2341 13.3929 12.6875C13.3945 12.8072 13.3621 12.8435 13.2391 12.8416C12.7861 12.8341 12.3328 12.8409 11.8795 12.8367C11.776 12.8357 11.726 12.852 11.7267 12.9746C11.7312 13.989 11.7306 15.0033 11.7273 16.0173C11.727 16.1225 11.7572 16.1562 11.8646 16.1549C12.3124 16.1494 12.7605 16.1452 13.2079 16.1565C13.3676 16.1608 13.4026 16.1121 13.4013 15.9586C13.3942 14.9712 13.3974 13.9841 13.3984 12.9967C13.3984 12.9221 13.3676 12.8322 13.5061 12.8341C14.0237 12.8413 14.5416 12.8403 15.0595 12.8422C15.0578 13.9046 15.0588 14.9673 15.0514 16.0297C15.0504 16.1718 15.1292 16.1527 15.2149 16.1527C16.763 16.1527 18.3112 16.151 19.8593 16.1549C19.9826 16.1549 20.0244 16.1277 20.0235 15.9963C20.018 14.9877 20.0206 13.9789 20.0199 12.9701C20.0199 12.9276 20.0118 12.8851 20.0076 12.8422C20.5144 12.84 21.021 12.8338 21.5278 12.8387C21.6498 12.84 21.6839 12.8046 21.6823 12.6842C21.6758 12.2312 21.6826 11.7782 21.6777 11.3256C21.6764 11.2162 21.705 11.1747 21.8215 11.1763C22.2796 11.1822 22.7381 11.1818 23.1963 11.1763C23.3099 11.175 23.3433 11.2123 23.342 11.3243C23.3365 11.7555 23.3495 12.1874 23.3349 12.6183C23.329 12.7903 23.3858 12.8205 23.5416 12.8166C23.9618 12.8059 24.383 12.8202 24.8032 12.8091C24.9554 12.8052 25.0001 12.8393 24.9998 13.0003C24.994 15.637 24.9959 18.2738 24.9959 20.9106C24.9959 20.9431 24.9936 20.9755 24.9959 21.0076C25.0011 21.0735 24.9803 21.1066 24.9067 21.1053C24.3898 21.0962 23.8722 21.1206 23.3553 21.0927C23.3268 21.0365 23.3404 20.9762 23.3404 20.9178C23.3394 19.9359 23.3375 18.954 23.3427 17.9721C23.3433 17.8432 23.3063 17.8072 23.1794 17.8092C22.7316 17.8163 22.2839 17.8157 21.8361 17.8092C21.7163 17.8075 21.679 17.8416 21.68 17.9636C21.6855 18.6272 21.6826 19.2908 21.6826 19.9543C21.6826 20.2941 21.6826 20.6342 21.6826 20.9739C21.6826 21.0381 21.6709 21.104 21.7751 21.1021C22.3033 21.092 22.8319 21.117 23.3599 21.0884C23.3281 21.1491 23.3404 21.215 23.3401 21.2786C23.3391 21.7248 23.3375 22.1709 23.341 22.6168C23.342 22.7141 23.3245 22.7608 23.2103 22.7595C22.705 22.7527 22.1998 22.7547 21.6949 22.7534C21.6897 22.695 21.6803 22.6362 21.6803 22.5778C21.679 22.1466 21.6741 21.7153 21.6826 21.2841C21.6852 21.1455 21.6388 21.1121 21.5077 21.115C21.1413 21.1232 20.7747 21.1154 20.408 21.1193C20.2743 21.1206 20.1387 21.0972 20.0066 21.1374C20.0108 21.1108 20.0189 21.0845 20.0189 21.0579C20.0199 20.0173 20.0176 18.977 20.0228 17.9364C20.0235 17.7962 19.9449 17.8108 19.8573 17.8108C19.0163 17.8111 18.1752 17.8108 17.3341 17.8108C16.6225 17.8108 15.9109 17.8108 15.1993 17.8108C15.1237 17.8108 15.0517 17.7965 15.0523 17.9188C15.0578 18.9916 15.0582 20.0644 15.0601 21.1371C15.0501 21.1329 15.0403 21.1251 15.0303 21.1251C14.5134 21.1225 13.9961 21.1212 13.4792 21.1176C13.3906 21.117 13.39 21.1734 13.3903 21.2358C13.3903 21.4726 13.3861 21.7098 13.3913 21.9467C13.3974 22.2151 13.3673 22.4841 13.4085 22.7514C12.8916 22.7531 12.3743 22.7514 11.8574 22.7586C11.7419 22.7602 11.7267 22.7109 11.7273 22.6145C11.7309 22.1622 11.7293 21.7095 11.728 21.2572C11.728 21.1994 11.7435 21.1381 11.7052 21.0849C12.2221 21.1189 12.7394 21.0875 13.2563 21.1024C13.3708 21.1056 13.4 21.0699 13.3997 20.958C13.3955 19.9605 13.3955 18.963 13.3997 17.9656C13.4004 17.8475 13.3718 17.8059 13.2475 17.8079C12.7949 17.8147 12.3416 17.815 11.8889 17.8079C11.7611 17.8059 11.7254 17.8439 11.726 17.9714C11.7312 18.9527 11.7293 19.9339 11.728 20.9152C11.728 20.9726 11.7471 21.0339 11.7075 21.0871C11.1617 21.1163 10.6159 21.0933 10.0698 21.0988L10.0705 21.1011ZM23.3394 14.5124C23.3394 14 23.3371 13.488 23.3414 12.9756C23.3423 12.8737 23.3173 12.8344 23.207 12.8357C22.7433 12.8416 22.2796 12.8413 21.8159 12.8357C21.7079 12.8344 21.6803 12.8708 21.6806 12.974C21.6839 13.9877 21.6839 15.0014 21.6806 16.0147C21.6806 16.1163 21.7046 16.1559 21.8146 16.1543C22.2783 16.1488 22.742 16.1488 23.2057 16.1543C23.3144 16.1556 23.3423 16.1196 23.3417 16.0157C23.3371 15.5144 23.3397 15.0127 23.3397 14.5114L23.3394 14.5124Z" fill="white"/>
<path d="M20.0121 12.8472C19.516 12.8447 19.0202 12.8378 18.524 12.8417C18.4001 12.8427 18.3573 12.8138 18.3595 12.6818C18.368 12.2236 18.3602 11.7648 18.3647 11.3063C18.3657 11.2021 18.3501 11.1537 18.2278 11.1557C17.7641 11.1628 17.3001 11.1625 16.8364 11.1557C16.7238 11.1541 16.705 11.1963 16.7059 11.2955C16.7102 11.7592 16.7037 12.2233 16.7108 12.6873C16.7127 12.807 16.6822 12.843 16.5593 12.8417C16.0579 12.8372 15.5566 12.8443 15.0553 12.8472C15.0543 12.3349 15.0498 11.8225 15.0553 11.3105C15.0566 11.1917 15.0277 11.1534 14.9037 11.1554C14.4456 11.1628 13.9871 11.1554 13.5286 11.1602C13.4247 11.1612 13.3877 11.1333 13.3887 11.0246C13.3939 10.5609 13.3939 10.0969 13.3887 9.6332C13.3874 9.5232 13.4289 9.49951 13.5299 9.49951C16.1991 9.50243 18.8686 9.50243 21.5382 9.49951C21.655 9.49951 21.6826 9.5391 21.6813 9.64813C21.6764 10.1011 21.6758 10.5541 21.6816 11.0071C21.6832 11.1252 21.6534 11.1638 21.5288 11.1619C21.0758 11.1541 20.6228 11.1635 20.1698 11.1557C20.0456 11.1537 20.0167 11.1924 20.0177 11.3108C20.0212 11.8228 20.0147 12.3349 20.0121 12.8472Z" fill="white"/>
<path d="M13.4047 22.7506C13.9161 22.7532 14.4278 22.7529 14.9392 22.7603C15.0544 22.762 15.0534 22.7006 15.0531 22.6185C15.0521 22.123 15.0537 21.6276 15.0547 21.1317C15.5771 21.1042 16.0995 21.1272 16.6223 21.1194C16.73 21.1178 16.7073 21.1931 16.7076 21.2537C16.7086 21.7012 16.7119 22.1487 16.7057 22.5961C16.7041 22.7156 16.7252 22.7646 16.8611 22.762C17.3138 22.7526 17.7668 22.7551 18.2197 22.7607C18.3301 22.762 18.3677 22.7347 18.3661 22.6185C18.3593 22.1766 18.368 21.7343 18.3606 21.2924C18.3583 21.1635 18.3856 21.1119 18.5267 21.1165C19.0219 21.1321 19.518 21.1035 20.0132 21.1317C20.0158 21.6159 20.0242 22.1 20.0171 22.5841C20.0148 22.7289 20.0567 22.7649 20.1975 22.7616C20.6975 22.7503 21.1979 22.7526 21.6982 22.7496C21.6567 22.9904 21.6859 23.2331 21.6807 23.4749C21.6752 23.7335 21.672 23.9927 21.6824 24.2514C21.6879 24.3896 21.6389 24.4211 21.5078 24.4207C19.4801 24.4168 17.452 24.4181 15.4243 24.4181C14.8042 24.4181 14.1838 24.4149 13.5637 24.4207C13.4352 24.422 13.3829 24.3951 13.3875 24.254C13.4034 23.7533 13.3729 23.2516 13.4044 22.7509L13.4047 22.7506Z" fill="white"/>
<defs>
<filter id="filter0_i_1067_85" x="0" y="0" width="35" height="35" filterUnits="userSpaceOnUse" color-interpolation-filters="sRGB">
<feFlood flood-opacity="0" result="BackgroundImageFix"/>
<feBlend mode="normal" in="SourceGraphic" in2="BackgroundImageFix" result="shape"/>
<feColorMatrix in="SourceAlpha" type="matrix" values="0 0 0 0 0 0 0 0 0 0 0 0 0 0 0 0 0 0 127 0" result="hardAlpha"/>
<feOffset/>
<feGaussianBlur stdDeviation="3.5"/>
<feComposite in2="hardAlpha" operator="arithmetic" k2="-1" k3="1"/>
<feColorMatrix type="matrix" values="0 0 0 0 1 0 0 0 0 1 0 0 0 0 1 0 0 0 0.45 0"/>
<feBlend mode="normal" in2="shape" result="effect1_innerShadow_1067_85"/>
</filter>
</defs>
</svg>
